<svg width="100" height="100" viewBox="0 0 100 100" fill="none" xmlns="http://www.w3.org/2000/svg">
<path d="M49.9973 39.1674C48.0135 39.1674 46.1576 38.3141 44.7713 36.7641C43.4254 35.2596 42.6836 33.2695 42.6826 31.1607C42.6799 25.7412 47.6201 25.7387 49.9943 25.7373C52.3719 25.7389 57.3086 25.7338 57.3113 31.1531C57.3135 35.5699 54.0342 39.165 50.001 39.1672C49.9996 39.1674 49.9984 39.1674 49.9973 39.1674ZM50.0184 28.667C50.0105 28.667 50.0033 28.667 49.9955 28.667C46.2156 28.6691 45.6111 29.2605 45.6121 31.1592C45.6127 32.5469 46.0896 33.8438 46.9547 34.8107C47.7779 35.7311 48.8584 36.2377 49.9973 36.2377H49.9994C52.4172 36.2363 54.383 33.9563 54.3816 31.1549C54.3805 29.0135 53.3436 28.667 50.0184 28.667Z" fill="#FF7E29"/>
<path d="M34.459 29.6035C33.6502 29.6035 32.9945 28.9482 32.9941 28.1395C32.9936 26.9895 33.4408 25.908 34.2537 25.0945C35.0664 24.2811 36.1473 23.8326 37.2973 23.832H37.2994C39.6725 23.832 41.6035 25.7617 41.6045 28.135C41.6049 28.9441 40.9494 29.6002 40.1402 29.6006C40.14 29.6006 40.1398 29.6006 40.1396 29.6006C39.3309 29.6006 38.6752 28.9453 38.6748 28.1365C38.6744 27.3783 38.0574 26.7617 37.2994 26.7617C37.2992 26.7617 37.299 26.7617 37.2986 26.7617C36.9312 26.7619 36.5859 26.9051 36.3262 27.165C36.0664 27.425 35.9234 27.7705 35.9236 28.1377C35.924 28.9469 35.2686 29.6029 34.4594 29.6033C34.4596 29.6035 34.4592 29.6035 34.459 29.6035Z" fill="#FF7E29"/>
<path d="M59.8496 29.5918C59.0408 29.5918 58.3852 28.9365 58.3848 28.1277C58.3842 26.9777 58.8314 25.8965 59.6443 25.0828C60.457 24.2693 61.5379 23.8209 62.6879 23.8203H62.69C65.0631 23.8203 66.9941 25.75 66.9951 28.1232C66.9955 28.9324 66.34 29.5885 65.5309 29.5889C65.5307 29.5889 65.5305 29.5889 65.5303 29.5889C64.7215 29.5889 64.0658 28.9336 64.0654 28.1248C64.065 27.3666 63.448 26.75 62.69 26.75C62.6898 26.75 62.6896 26.75 62.6893 26.75C62.3219 26.7502 61.9766 26.8934 61.7168 27.1533C61.457 27.4133 61.3141 27.7588 61.3143 28.126C61.3146 28.9352 60.6592 29.5912 59.85 29.5916C59.8502 29.5918 59.8498 29.5918 59.8496 29.5918Z" fill="#FF7E29"/>
<path d="M47.4377 84.9524C47.4377 80.4936 45.4863 76.2834 42.084 73.4018L37.3354 69.3797C35.3326 67.6836 32.9273 66.4553 30.3795 65.8274L29.1859 65.5332C27.3709 65.086 25.7127 64.151 24.3902 62.8291L20.1977 58.6383C18.8643 57.3018 17.0881 56.5659 15.1965 56.5659C14.8398 56.5659 14.4873 56.5922 14.141 56.6436V44.1442C14.141 42.2141 13.3463 40.3276 11.9605 38.9684C10.5949 37.6291 8.80859 36.9188 6.93106 36.9471C3.10918 37.0207 0 40.1912 0 44.0153V55.1188C0 55.928 0.655664 56.5836 1.46484 56.5836C2.27402 56.5836 2.92969 55.928 2.92969 55.1188V44.0153C2.92969 41.776 4.7498 39.9194 6.98711 39.8766C8.07031 39.853 9.10918 40.2758 9.90859 41.06C10.7361 41.8719 11.2109 42.9961 11.2109 44.1444V57.7946C10.851 58.0414 10.5109 58.3221 10.1963 58.6373C7.44043 61.3934 7.44043 65.8784 10.1963 68.6348L22.683 81.1213C23.2553 81.6932 24.1826 81.6932 24.7547 81.1213C25.3268 80.5491 25.3268 79.6217 24.7547 79.0497L12.268 66.5633C10.6539 64.9491 10.6539 62.3231 12.2691 60.7079C13.0488 59.9264 14.0883 59.4959 15.1961 59.4959C16.3039 59.4959 17.3436 59.9264 18.1246 60.7094L22.3188 64.9018C24.0189 66.6012 26.1512 67.8032 28.4848 68.3784L29.6781 68.6725C31.7893 69.1926 33.7822 70.2106 35.4416 71.6157L40.19 75.6375C42.934 77.9616 44.5076 81.3567 44.5076 84.9526C44.5076 86.3778 44.5072 91.1746 44.5074 92.6776C44.5074 95.1006 42.5359 97.0721 40.1129 97.0721H24.777C23.6023 97.0721 22.4994 96.6151 21.6701 95.7842L4.8041 78.9215C3.59531 77.7112 2.92969 76.102 2.92969 74.3903V61.9547C2.92969 61.1455 2.27402 60.4899 1.46484 60.4899C0.655664 60.4899 0 61.1457 0 61.9547V74.3903C0 76.8836 0.969922 79.2282 2.73184 80.9926L19.5979 97.8547C20.9799 99.2393 22.8191 100.002 24.7773 100.002H40.1133C44.152 100.002 47.4375 96.7161 47.4375 92.6774C47.4373 90.8641 47.4377 86.7233 47.4377 84.9524Z" fill="#FF7E29"/>
<path d="M50.0007 63.3456C48.6365 63.3456 47.2724 63.0985 45.974 62.6048C35.6193 58.6704 26.7355 52.61 20.2835 45.0794C14.2599 38.0485 10.7751 30.1401 10.4714 22.8108C10.2878 18.3813 11.2435 14.3608 13.3119 10.8608C15.4906 7.1747 18.8072 4.24813 23.1697 2.1622C23.1831 2.15575 23.1968 2.1495 23.2105 2.14345C32.9536 -2.15284 42.0929 0.0364155 49.6394 8.47392C49.7644 8.61356 49.9195 8.63446 50.0007 8.63446C50.082 8.63446 50.2368 8.61356 50.3628 8.47274C57.9087 0.0364155 67.0476 -2.15323 76.7909 2.14345C76.8046 2.1495 76.8183 2.15556 76.8318 2.1622C82.4906 4.86806 86.4675 9.09638 88.3327 14.3897C90.4886 20.5083 89.7492 27.8944 86.2511 35.1874C85.9011 35.9169 85.0263 36.2249 84.2968 35.8749C83.5673 35.5249 83.2597 34.6501 83.6095 33.9206C86.7689 27.3335 87.465 20.7431 85.5695 15.3634C83.9476 10.7606 80.5896 7.21181 75.5882 4.81493C67.0062 1.03876 59.2534 2.92724 52.5454 10.4268C51.8974 11.1499 50.9702 11.564 50.0005 11.564C49.0308 11.564 48.1036 11.1499 47.4566 10.428C40.7476 2.92724 32.9954 1.03876 24.413 4.81493C16.98 8.37704 13.0685 14.7243 13.3988 22.6893C13.6755 29.3647 16.9107 36.6393 22.5085 43.1731C28.6425 50.3329 37.1167 56.1054 47.0152 59.8665C48.9406 60.5985 51.0609 60.5987 52.9859 59.8667C64.4837 55.4972 74.171 48.302 80.264 39.6063C80.7283 38.9434 81.6419 38.7833 82.3042 39.2472C82.9667 39.7114 83.1275 40.6249 82.6632 41.2874C76.2372 50.4587 66.0673 58.0296 54.0269 62.605C52.729 63.0985 51.3648 63.3454 50.0007 63.3456Z" fill="#FF7E29"/>
<path d="M93.0703 36.947C91.1955 36.9199 89.4065 37.6287 88.0408 38.9683C86.6551 40.3275 85.8604 42.214 85.8604 44.1441V56.6439C85.5141 56.5926 85.1615 56.5662 84.8049 56.5662C82.9131 56.5662 81.1371 57.3023 79.8049 58.6373L75.6111 62.8297C74.2887 64.1515 72.6303 65.0865 70.8152 65.5338L69.6215 65.8279C67.0738 66.4558 64.6686 67.6842 62.6656 69.3802L57.9172 73.4019C54.5148 76.2838 52.5635 80.4939 52.5635 84.9527C52.5635 86.7097 52.5639 90.8797 52.5637 92.6777C52.5637 96.7164 55.8492 100.002 59.8879 100.002H75.2238C77.182 100.002 79.0213 99.2396 80.4021 97.8562L97.2701 80.9922C99.0315 79.2285 100.001 76.884 100.001 74.3906V44.0152C100.001 40.1912 96.8918 37.0207 93.0703 36.947ZM97.0713 74.3902C97.0713 76.1019 96.4057 77.7111 95.1977 78.9207L78.3293 95.7851C77.5012 96.6148 76.3981 97.0719 75.2236 97.0719H59.8877C57.4646 97.0719 55.4932 95.1004 55.4932 92.6773V85.1558C55.4932 85.1547 55.493 85.1533 55.493 85.1519V84.9523C55.493 81.3564 57.0668 77.9613 59.8105 75.6373L64.559 71.6156C66.2186 70.2103 68.2115 69.1924 70.3225 68.6722L71.516 68.3781C73.8496 67.8031 75.9818 66.6009 77.6822 64.9015L81.8773 60.7076C82.657 59.9261 83.6967 59.4957 84.8045 59.4957C85.9123 59.4957 86.9518 59.9261 87.7326 60.7088C89.3467 62.323 89.3467 64.949 87.7326 66.5631L75.2459 79.0496C74.6738 79.6219 74.6738 80.5492 75.2459 81.1213C75.818 81.6929 76.7453 81.6933 77.3176 81.1213L89.8043 68.6345C92.5602 65.8785 92.5602 61.3935 89.8055 58.6385C89.4904 58.3226 89.1498 58.0416 88.7896 57.7947V44.1441C88.7896 42.9959 89.2645 41.8717 90.092 41.0597C90.8916 40.2758 91.9334 39.8543 93.0135 39.8763C95.2508 39.9193 97.0709 41.7759 97.0709 44.015V74.3902H97.0713Z" fill="#FF7E29"/>
</svg>
