<svg width="60" height="60" viewBox="0 0 60 60" fill="none" xmlns="http://www.w3.org/2000/svg">
<g clip-path="url(#clip0_5062_126)">
<path d="M59.2583 25.7701L52.921 18.7228C52.1153 17.8274 50.8682 17.5276 49.7436 17.9591C48.6188 18.3905 47.8921 19.4477 47.8921 20.6523V23.5911H38.9584C37.1824 23.5911 35.489 23.9517 33.9477 24.6035V12.3196H37.0459C38.2502 12.3196 39.3072 11.5931 39.7388 10.4688C40.1707 9.34393 39.8711 8.09612 38.9752 7.2894L31.929 0.952134C30.8292 -0.0362255 29.1704 -0.0361084 28.0705 0.952368L21.024 7.28987C20.1285 8.09612 19.829 9.34393 20.2609 10.4688C20.6925 11.5931 21.7495 12.3196 22.9538 12.3196H26.052V18.6075C26.052 19.0929 26.4455 19.4864 26.9309 19.4864C27.4163 19.4864 27.8098 19.0929 27.8098 18.6075V11.4408C27.8098 10.9554 27.4163 10.5619 26.9309 10.5619H22.9538C22.2352 10.5619 21.967 10.0084 21.9018 9.83881C21.8366 9.66901 21.6655 9.07745 22.1997 8.59639L29.2455 2.25959C29.6756 1.87311 30.3241 1.87311 30.7539 2.25936L37.7996 8.59604C38.3343 9.07756 38.1631 9.66913 38.098 9.83893C38.0328 10.0085 37.7646 10.562 37.046 10.562H33.0689C32.5835 10.562 32.19 10.9555 32.19 11.4409V25.5128C30.3885 26.6267 28.8803 28.1709 27.8097 30.0012V22.1229C27.8097 21.6375 27.4162 21.244 26.9308 21.244C26.4454 21.244 26.0519 21.6375 26.0519 22.1229V36.0027C24.5108 35.351 22.8176 34.9904 21.0419 34.9904H12.108V32.0516C12.108 30.8469 11.3812 29.7897 10.2564 29.3584C9.13168 28.927 7.88433 29.227 7.07878 30.1228L0.741753 37.169C-0.247192 38.2686 -0.24731 39.9272 0.741753 41.0269L7.07902 48.0731C7.88468 48.9689 9.13179 49.2688 10.2567 48.8375C11.3816 48.4062 12.1082 47.349 12.1082 46.1443V42.8856H21.0421C23.805 42.8856 26.0526 45.1332 26.0526 47.896V58.9099C26.0526 59.3953 26.4461 59.7888 26.9315 59.7888H33.0689C33.5543 59.7888 33.9478 59.3953 33.9478 58.9099V47.899C33.9478 47.8981 33.9479 47.8974 33.9479 47.8967V36.4963C33.9479 33.7333 36.1957 31.4856 38.9586 31.4856H47.8924V34.7443C47.8924 35.9489 48.6191 37.006 49.7438 37.4375C50.8684 37.869 52.1157 37.5692 52.9215 36.6737L54.4788 34.9418C54.8033 34.5808 54.7737 34.0251 54.4129 33.7006C54.052 33.3762 53.4963 33.4056 53.1718 33.7665L51.6146 35.4983C51.1341 36.0324 50.5432 35.8617 50.3735 35.7964C50.2038 35.7314 49.6502 35.4631 49.6502 34.7443V30.6067C49.6502 30.1213 49.2567 29.7278 48.7713 29.7278H38.9586C35.2265 29.7278 32.1902 32.7641 32.1902 36.4962V41.4006C31.1196 39.5702 29.6115 38.0258 27.81 36.9118V36.496C27.81 30.3493 32.8112 25.3486 38.9585 25.3486H48.7712C49.2566 25.3486 49.6501 24.9551 49.6501 24.4697V20.6519C49.6501 19.9331 50.2037 19.6649 50.3734 19.5998C50.543 19.5346 51.1339 19.3639 51.6144 19.8978L57.9518 26.9454C58.3379 27.3744 58.3378 28.0222 57.9516 28.4519L55.5166 31.1589C55.192 31.5197 55.2214 32.0754 55.5823 32.4C55.9432 32.7246 56.499 32.6952 56.8235 32.3344L59.2587 29.6271C60.2472 28.5272 60.2471 26.8689 59.2583 25.7701ZM32.1898 47.896V58.0311H27.8102V47.896C27.8102 44.1641 24.774 41.1279 21.042 41.1279H11.2293C10.7439 41.1279 10.3504 41.5214 10.3504 42.0068V46.1443C10.3504 46.8631 9.79683 47.1313 9.62714 47.1964C9.45746 47.2615 8.86636 47.4322 8.38578 46.8978L2.04851 39.8516C1.66214 39.422 1.66214 38.774 2.04851 38.3444L8.38578 31.2982C8.8666 30.7638 9.45746 30.9346 9.62714 30.9996C9.79683 31.0648 10.3504 31.3329 10.3504 32.0517V35.8693C10.3504 36.3547 10.7439 36.7482 11.2293 36.7482H21.042C27.189 36.7482 32.1898 41.7491 32.1898 47.896Z" fill="#01AC5D"/>
</g>
<defs>
<clipPath id="clip0_5062_126">
<rect width="60" height="60" fill="white"/>
</clipPath>
</defs>
</svg>
