<svg width="30" height="30" viewBox="0 0 30 30" fill="none" xmlns="http://www.w3.org/2000/svg">
<g clip-path="url(#clip0_1325_36358)">
<path d="M15 6.67969C10.4122 6.67969 6.67969 10.4122 6.67969 15C6.67969 19.5878 10.4122 23.3203 15 23.3203C19.5878 23.3203 23.3203 19.5878 23.3203 15C23.3203 10.4122 19.5878 6.67969 15 6.67969ZM15 22.1484C11.0583 22.1484 7.85156 18.9417 7.85156 15C7.85156 11.0583 11.0583 7.85156 15 7.85156C18.9417 7.85156 22.1484 11.0583 22.1484 15C22.1484 18.9417 18.9417 22.1484 15 22.1484Z" fill="white"/>
<path d="M29.6889 0.0684376C29.4975 -0.033164 29.2656 -0.0209179 29.086 0.100371C26.2095 2.04398 24.4922 5.27695 24.4922 8.74857V16.3512C24.4922 17.1667 24.8098 17.9333 25.3863 18.5099L26.4844 19.608V28.2422C26.4844 29.2114 27.2729 30 28.2422 30C29.2114 30 30 29.2114 30 28.2422V0.585938C30 0.369199 29.8804 0.170156 29.6889 0.0684376ZM28.8281 28.2422C28.8281 28.5653 28.5653 28.8281 28.2422 28.8281C27.9191 28.8281 27.6562 28.5653 27.6562 28.2422V19.3652C27.6562 19.2098 27.5945 19.0608 27.4846 18.9509L26.215 17.6813C25.8597 17.326 25.6641 16.8537 25.6641 16.3512V8.74857C25.6641 6.05443 26.829 3.52236 28.8281 1.77522V28.2422Z" fill="white"/>
<path d="M13.6553 10.3531C13.5282 10.0555 13.1838 9.91726 12.8863 10.0442C10.898 10.893 9.61328 12.8383 9.61328 15C9.61328 15.3235 9.87561 15.5859 10.1992 15.5859C10.5228 15.5859 10.7852 15.3235 10.7852 15C10.7852 13.3084 11.7905 11.7862 13.3464 11.1221C13.644 10.995 13.7823 10.6507 13.6553 10.3531Z" fill="white"/>
<path d="M15.0003 9.61377L14.9707 9.61383C14.6471 9.616 14.3865 9.88008 14.3887 10.2037C14.3909 10.526 14.6528 10.7857 14.9746 10.7857C14.9759 10.7857 14.9773 10.7857 14.9785 10.7857L15.0003 10.7856C15.3239 10.7856 15.5862 10.5233 15.5862 10.1997C15.5862 9.87609 15.3239 9.61377 15.0003 9.61377Z" fill="white"/>
<path d="M23.1222 7.29366C22.087 6.20288 20.8667 5.3446 19.4953 4.74273C18.0752 4.11952 16.5627 3.80353 14.9998 3.80353C13.2138 3.80353 11.5066 4.21169 9.92567 5.01677C9.63733 5.16361 9.52254 5.5164 9.66938 5.8048C9.81627 6.09308 10.1691 6.20781 10.4575 6.06103C11.8721 5.34068 13.4004 4.9754 14.9998 4.9754C17.7769 4.9754 20.3596 6.08517 22.2722 8.10038C22.3874 8.22179 22.5422 8.28296 22.6973 8.28296C22.8421 8.28296 22.9872 8.22958 23.1005 8.122C23.3353 7.89923 23.3449 7.52839 23.1222 7.29366Z" fill="white"/>
<path d="M23.6904 21.116C23.4365 20.9153 23.0681 20.9584 22.8674 21.2122C20.9518 23.6351 18.0839 25.0246 14.9991 25.0246C13.0685 25.0246 11.1942 24.4747 9.57904 23.4345C9.30705 23.2592 8.94435 23.3378 8.76916 23.6098C8.59396 23.8819 8.67248 24.2445 8.94453 24.4197C10.7493 25.582 12.843 26.1964 14.9991 26.1964C18.4445 26.1964 21.6474 24.6447 23.7866 21.939C23.9873 21.6852 23.9443 21.3167 23.6904 21.116Z" fill="white"/>
<path d="M7.96629 22.144L7.95768 22.1341C7.95457 22.1303 7.95146 22.1264 7.94824 22.1227C7.73982 21.875 7.37021 21.8434 7.12266 22.0518C6.8751 22.2602 6.84334 22.6298 7.05182 22.8774L7.0575 22.8841L7.05779 22.8839C7.064 22.8918 7.07045 22.8996 7.07713 22.9073C7.19303 23.0423 7.35697 23.1116 7.52197 23.1116C7.65709 23.1116 7.79285 23.0651 7.90336 22.9703C8.14887 22.7595 8.17705 22.3896 7.96629 22.144Z" fill="white"/>
<path d="M7.26562 0C6.94201 0 6.67969 0.262324 6.67969 0.585938V6.91406H5.62453C5.62459 6.91078 5.625 6.90762 5.625 6.90428V0.585938C5.625 0.262324 5.36268 0 5.03906 0C4.71545 0 4.45312 0.262324 4.45312 0.585938V6.90428C4.45312 6.90756 4.45359 6.91078 4.45359 6.91406H3.39797C3.39803 6.91078 3.39844 6.90762 3.39844 6.90428V0.585938C3.39844 0.262324 3.13611 0 2.8125 0C2.48889 0 2.22656 0.262324 2.22656 0.585938V6.90428C2.22656 6.90756 2.22703 6.91078 2.22703 6.91406H1.17188V0.585938C1.17188 0.262324 0.909551 0 0.585938 0C0.262324 0 0 0.262324 0 0.585938V7.73438C0 9.17168 0.872109 10.4689 2.16797 11.0296V28.2422C2.16797 29.2114 2.95652 30 3.92578 30C4.89504 30 5.68359 29.2114 5.68359 28.2422V11.0296C6.97945 10.4689 7.85156 9.17168 7.85156 7.73438V0.585938C7.85156 0.262324 7.58924 0 7.26562 0ZM4.935 10.0559C4.68434 10.1283 4.51172 10.3578 4.51172 10.6188V28.2422C4.51172 28.5653 4.24887 28.8281 3.92578 28.8281C3.6027 28.8281 3.33984 28.5653 3.33984 28.2422V10.6188C3.33984 10.3578 3.16729 10.1283 2.91656 10.0559C2.0035 9.79201 1.33564 9.00826 1.19836 8.08594H6.65314C6.51592 9.00826 5.84807 9.79201 4.935 10.0559Z" fill="white"/>
</g>
<defs>
<clipPath id="clip0_1325_36358">
<rect width="30" height="30" fill="white"/>
</clipPath>
</defs>
</svg>
