<svg width="1440" height="63" viewBox="0 0 1440 63" fill="none" xmlns="http://www.w3.org/2000/svg">
<g clip-path="url(#clip0_5110_1863)">
<path d="M-69.0828 70.772C-68.8273 70.6818 -60.5763 70.276 -62.1694 70.772C-63.7475 71.2679 -65.2504 71.6887 -65.3406 69.8552C-65.4307 68.0216 -65.3406 60.9279 -65.3406 60.9279C-65.3406 60.9279 -48.5831 60.3417 -53.167 60.8377C-57.7508 61.3337 -62.5001 61.0932 -62.6654 60.0862C-62.8307 59.0793 -62.8307 58.1625 -62.8307 58.1625C-62.8307 58.1625 -48.9137 57.8319 -51.9045 58.1625C-54.9103 58.4931 -67.5799 57.7417 -68.0759 57.907C-68.5718 58.0723 -71.1569 58.914 -67.9857 58.2377C-64.8145 57.5764 -63.7325 56.8249 -63.1463 56.3139C-62.5602 55.818 -57.4803 49.5658 -57.4803 49.5658C-57.4803 49.5658 -38.228 48.7242 -41.1436 49.2352C-44.0593 49.7311 -61.0723 48.8144 -60.8168 48.2282C-60.5613 47.6421 -54.3993 44.3056 -52.9866 44.3056C-51.5739 44.3056 -42.0604 43.975 -44.7356 44.1403C-47.4108 44.3056 -51.9045 44.1403 -51.9045 43.3137C-51.9045 42.4871 -49.6501 39.6466 -48.9888 36.8962C-48.3276 34.1459 -48.1622 30.9748 -48.8235 32.5528C-49.4848 34.1309 -47.8166 42.3067 -46.7345 43.2235C-45.6524 44.1403 -35.2221 47.3115 -36.2291 48.1381C-37.236 48.9647 -39.3101 48.8895 -39.5656 49.145C-39.8211 49.4005 -38.0626 52.226 -35.3123 54.2249C-32.562 56.2237 -28.6394 58.8088 -28.474 58.3128C-28.3087 57.8168 -49.3946 59.4851 -47.5611 58.2226C-45.7275 56.9752 -35.4776 58.8839 -35.4776 59.47C-35.4776 60.0562 -34.8915 60.973 -35.8984 61.2134C-36.9054 61.4689 -51.2432 61.9649 -47.3206 61.3036C-43.398 60.6423 -32.1412 61.3938 -32.1412 61.3938C-32.1412 61.3938 -31.7203 71.0575 -32.3065 70.8171C-32.8926 70.5616 -33.7192 63.3927 -36.0638 64.8204C-38.3933 66.2332 -38.6488 70.246 -38.9794 69.239C-39.3101 68.232 -40.7378 64.1591 -43.1425 65.4817C-45.5622 66.8193 -46.2235 70.7419 -46.479 69.3141C-46.7345 67.9014 -48.3125 61.6493 -50.2363 63.558C-52.16 65.4817 -52.3253 69.9754 -52.4005 69.0586C-52.4906 68.1419 -55.241 63.062 -56.4884 65.0609C-57.7358 67.0598 -57.6607 69.5696 -57.826 68.8933C-57.9913 68.232 -60.6665 63.062 -60.907 65.9777C-61.1625 68.8933 -61.4029 70.8171 -59.6595 70.9824C-57.9162 71.1477 -26.1445 71.1477 -26.1445 71.1477C-26.1445 71.1477 -19.9375 71.3731 -22.5676 71.4934C-25.1827 71.6136 -25.0774 71.6136 -24.2809 64.5349C-23.4844 57.4712 -22.1167 38.5344 -21.0947 37.8581C-20.0727 37.1668 -10.7246 37.0616 -14.031 37.5124C-17.3374 37.9633 -25.4381 37.287 -22.9283 36.265C-20.4184 35.243 -8.5604 35.3482 -11.7616 35.8141C-14.9478 36.265 -21.8011 36.265 -22.252 34.5667C-22.7028 32.8534 -23.2739 31.2603 -22.4774 30.8094C-21.6809 30.3586 -9.37197 30.1181 -12.5582 30.584C-15.7443 31.0349 -22.7028 31.2753 -22.4774 29.562C-22.252 27.8487 -20.7641 26.3758 -18.5999 25.8047C-16.4357 25.2336 -15.2935 21.9272 -16.5409 22.2729C-17.7883 22.6185 -17.9085 25.0082 -15.9698 26.1504C-14.031 27.2926 -12.8888 27.2926 -12.6634 28.7655C-12.4379 30.2534 -12.7836 34.687 -12.7836 34.687C-12.7836 34.687 -10.9651 35.6037 -11.2957 36.746C-11.6414 37.8882 -13.5801 37.3171 -13.3547 39.1356C-13.1293 40.9541 -9.25174 71.283 -10.394 70.6066C-11.5362 69.9153 -14.3767 38.8049 -16.5559 40.6235C-18.7201 42.442 -20.8843 70.8321 -19.4115 71.1778C-17.9236 71.5234 -6.06556 71.298 -6.06556 71.298C-6.06556 71.298 -1.64699 70.8772 -2.90944 71.1327C-4.17189 71.3882 -7.08754 71.8841 -6.06556 69.8702C-5.05861 67.8413 31.7628 37.8581 31.5073 38.7448C31.2519 39.6315 6.82946 70.8772 3.29761 70.7569C-0.249274 70.6367 -2.65394 69.239 0.381947 68.232C3.41784 67.2251 13.788 68.9835 12.1498 69.75C10.5116 70.5165 8.99366 71.8992 9.74512 70.1257C10.5116 68.3523 32.3941 38.8801 33.5363 38.3691C34.6785 37.8581 38.9768 37.3621 38.0901 37.6176C37.2034 37.8731 32.9051 37.4974 33.0253 36.6107C33.1455 35.724 35.5502 36.235 36.0612 33.5748C36.5722 30.9146 35.43 28.1342 35.5502 30.0279C35.6704 31.9216 36.3167 36.4754 39.2173 38.6246C42.133 40.7738 77.8122 70.1257 76.5347 70.5014C75.2723 70.8772 67.938 71.2529 66.2848 70.2459C64.6466 69.239 67.2918 66.6991 68.945 67.8413C70.5832 68.9835 71.6051 70.9974 69.0652 70.1257C66.5403 69.239 38.8265 40.398 38.8265 40.398C38.8265 40.398 58.8153 71.1477 60.3333 71.0124C61.8512 70.8922 64.6316 69.1188 62.3622 68.4875C60.0778 67.8563 53.7655 71.7789 53.2545 70.0055C52.7435 68.232 48.7007 59.0041 44.5226 57.6064C40.3445 56.2087 26.8032 55.2018 27.8252 56.4642C28.8322 57.7267 41.9977 56.4642 41.9977 54.826C41.9977 53.1879 41.7422 51.5346 41.3665 51.0237C40.9907 50.5127 35.8057 43.2987 35.4149 41.6605C35.0392 40.0223 34.2727 38.2489 35.0392 40.0223C35.7907 41.7957 27.0737 50.9034 28.9674 51.7901C30.8611 52.6769 44.6579 51.4144 40.104 52.1659C35.5502 52.9324 26.698 52.7971 29.8541 53.5636C33.0103 54.315 44.4024 53.8191 39.8485 54.5705C35.2947 55.337 28.8472 54.826 27.5697 55.337C26.3073 55.848 21.3777 61.1533 19.0933 63.6932C16.8088 66.2181 18.462 70.772 17.3198 71.0275C16.1776 71.283 12.1348 70.772 14.9152 70.772C17.6955 70.772 22.3846 71.1477 22.3846 70.5165C22.3846 69.8853 28.0807 56.4642 32.4993 58.6284C36.9329 60.7776 37.6843 70.1407 35.6554 70.3962C33.6265 70.6517 30.2148 72.8009 30.4703 69.254C30.7258 65.7071 32.9952 55.9683 38.3156 58.4931C43.6359 61.018 47.799 71.6437 44.5076 70.5165C41.2162 69.3743 38.3156 57.6064 42.6139 59.2596C46.9122 60.8978 50.9701 70.261 49.4522 70.772C47.9342 71.283 34.5282 71.6587 39.9688 70.8922C45.4093 70.1407 79.8261 71.0124 79.8261 71.0124C79.8261 71.0124 85.943 71.0425 83.9291 71.0425C81.9151 71.0425 81.9151 72.1396 81.9151 67.9315C81.9151 63.7383 80.277 51.3092 81.5545 53.3231C82.8319 55.337 83.5684 59.1695 84.1094 57.7116C84.6505 56.2538 84.8458 50.7682 85.9279 54.0595C87.0251 57.3509 89.2193 70.3061 87.0251 70.1257C84.8308 69.9454 88.6632 71.5835 89.2193 70.3061C89.7604 69.0286 87.9418 55.6977 89.2193 55.6977C90.4968 55.6977 107.299 55.5174 102.731 55.8781C98.1617 56.2388 89.2193 55.8781 89.2193 53.6838C89.2193 51.4896 89.3997 47.1161 89.3997 47.1161C89.3997 47.1161 104.925 46.0189 102.731 46.7554C100.536 47.4918 89.58 47.2964 89.7604 45.4779C89.9407 43.6443 89.3997 42.0062 90.1211 42.0062C90.8575 42.0062 104.188 42.3669 100.897 42.7426C97.6056 43.1033 89.58 43.6594 89.58 40.7287C89.58 37.813 90.6772 33.9806 92.6911 33.0638C94.705 32.147 96.5235 33.4245 96.5235 31.2453C96.5235 29.051 96.7038 26.3157 95.7871 27.5932C94.8703 28.8707 95.4264 31.7863 97.6056 32.3424C99.7998 32.8835 101.618 37.272 101.799 39.6466C101.979 42.0212 103.076 72.1547 103.257 70.3211C103.437 68.5026 104.534 50.9635 104.895 52.0607C105.255 53.1578 105.436 71.5986 106.909 70.1407C108.366 68.6829 109.464 49.8664 108.923 54.4353C108.382 59.0041 110.02 70.6818 108.923 70.6818C107.825 70.6818 100.702 71.2228 100.521 69.765C100.341 68.3072 99.4241 60.4469 96.1327 60.8227C92.8414 61.1834 94.6749 70.8621 93.5778 71.0425C92.4807 71.2228 88.2875 71.7789 92.4806 71.2228C96.6738 70.6818 112.019 70.4864 112.019 70.4864C112.019 70.4864 124.868 70.2009 124.012 70.8171C123.14 71.4333 122.779 72.8009 122.644 71.4333C122.524 70.0656 122.524 56.3289 122.524 56.3289C122.524 56.3289 133.916 55.337 131.196 56.2087C128.475 57.0804 114.228 55.2168 113.236 55.4723C112.244 55.7128 110.02 56.8399 112.244 56.5844C114.468 56.344 125.86 48.5438 127.964 48.5438C130.069 48.5438 156.82 47.6722 150.869 48.4236C144.932 49.16 127.589 49.4155 127.469 46.6953C127.348 43.975 127.228 39.7668 127.589 39.2709C127.964 38.7749 145.909 37.287 139.357 38.5344C132.789 39.7668 120.285 38.4142 119.668 38.4142C119.052 38.4142 116.197 39.9021 119.548 39.2859C122.885 38.6697 129.948 33.9656 130.94 33.5898C131.932 33.2141 142.573 32.7181 141.1 33.2141C139.612 33.7101 132.067 32.7181 131.812 31.11C131.556 29.5019 130.324 26.1504 131.316 25.414C132.308 24.6775 140.98 23.8058 137.508 24.6775C134.036 25.5492 125.996 24.3018 125.62 24.7978C125.244 25.2937 124.388 27.0221 126.492 25.5342C128.596 24.0463 133.3 20.9503 133.916 20.8301C134.532 20.7098 143.82 19.8381 141.596 20.3341C139.372 20.8301 138.38 20.2139 138.38 18.8462C138.38 17.4786 138.259 16.9826 138.996 16.8624C139.732 16.7421 151.756 16.4866 148.164 16.7421C144.572 16.9826 140.739 16.2462 140.739 15.0138C140.739 13.7814 144.572 6.83793 144.707 4.23788C144.827 1.63784 144.587 -0.466246 144.467 0.886379C144.346 2.25403 146.946 13.6461 147.322 14.3826C147.698 15.119 149.546 15.8705 149.682 16.6069C149.802 17.3433 150.674 20.6948 150.057 20.6948C149.441 20.6948 145.969 20.4543 148.329 20.4543C150.689 20.4543 154.145 19.9584 154.761 20.5746C155.378 21.1908 162.802 25.0382 163.674 24.903C164.545 24.7827 141.145 25.0232 142.002 24.903C142.873 24.7827 157.106 23.6706 157.482 24.407C157.857 25.1434 158.594 31.9667 157.857 32.2071C157.121 32.4476 141.506 33.1991 146.706 32.7031C151.906 32.2071 158.098 32.2071 159.586 32.8233C161.074 33.4395 168.754 38.6396 169.61 38.5194C170.482 38.3992 175.682 38.1437 172.466 38.0234C169.25 37.9032 141.145 39.5113 143.114 38.6396C145.098 37.7679 161.434 39.0154 161.69 39.872C161.945 40.7437 162.306 48.1681 161.074 48.1681C159.841 48.1681 155.002 47.6722 157.857 47.4317C160.698 47.1762 162.817 47.4317 163.554 47.9276C164.29 48.4236 174.074 56.344 176.313 56.2237C178.538 56.1035 180.897 56.2237 178.538 56.1035C176.178 55.9833 133.961 56.7197 133.961 56.7197C133.961 56.7197 128.385 56.9602 127.033 58.944C125.665 60.9279 126.296 70.3361 126.792 68.6078C127.288 66.8794 131.872 57.4712 133.36 61.1834C134.848 64.8956 135.344 69.224 135.584 67.3754C135.825 65.5118 139.176 56.7197 141.401 59.455C143.625 62.1753 145.113 68.743 145.489 67.0147C145.864 65.2863 147.713 55.1266 150.944 59.455C154.16 63.7834 155.768 69.6147 155.904 67.2551C156.024 64.8956 158.759 57.0954 160.608 59.6955C162.471 62.2955 163.824 70.3512 164.576 67.7511C165.312 65.1511 167.055 55.1266 167.551 58.3429C168.047 61.5591 169.159 69.9754 167.927 70.3512C166.695 70.7269 121.622 69.4795 126.687 70.8471C131.767 72.2148 181.288 71.0876 181.288 71.0876C181.288 71.0876 186.323 70.8621 185.12 71.1627C183.918 71.4633 182.565 70.8621 182.415 69.0586C182.265 67.2551 181.814 62.7464 182.716 62.4458C183.617 62.1452 189.93 61.2435 187.074 62.4458C184.219 63.6481 178.072 64.8505 178.372 63.6481C178.673 62.4458 181.979 62.4458 181.979 60.6423C181.979 58.8388 181.528 55.2318 182.43 54.6307C183.332 54.0295 201.803 53.4283 195.941 54.1798C190.08 54.9312 177.32 54.7809 178.072 54.0295C178.823 53.278 181.979 51.6248 182.43 51.4745C182.881 51.3242 193.988 49.671 189.794 50.8734C185.586 52.0757 182.13 52.5266 182.13 49.5207C182.13 46.5149 181.228 37.5124 181.979 37.3621C182.731 37.2119 187.39 37.2119 187.39 37.2119C187.39 37.2119 187.24 43.8247 186.638 41.1194C186.037 38.4142 186.939 31.5158 186.338 31.5158C185.737 31.5158 183.031 31.8164 184.083 31.2152C185.135 30.6141 187.54 31.0649 187.54 30.0129C187.54 28.9608 186.638 27.0071 187.69 26.5562C188.742 26.1053 212.909 26.4059 212.909 26.4059C212.909 26.4059 212.308 24.6024 212.308 25.955C212.308 27.3076 213.661 29.562 212.308 30.0129C210.956 30.4638 189.629 31.6661 194.438 30.3135C199.248 28.9608 215.314 29.8626 216.065 30.3135C216.817 30.7643 218.17 30.9146 217.568 31.2152C216.967 31.5158 213.811 32.117 213.811 32.117C213.811 32.117 214.713 40.368 214.112 40.368C213.51 40.368 187.54 40.0674 189.93 38.4142C192.334 36.761 218.455 35.8592 218.605 36.761C218.756 37.6627 218.906 51.1739 218.455 51.3242C218.004 51.4745 194.123 52.0757 198.481 50.8734C202.84 49.671 220.559 50.8734 221.16 51.4745C221.761 52.0757 223.866 54.1798 223.264 54.1798C222.663 54.1798 209.152 54.3301 211.857 54.1798C214.563 54.0295 219.672 55.5324 219.522 56.1336C219.372 56.7347 219.222 61.6944 219.222 61.6944C219.222 61.6944 193.251 61.8446 199.248 61.8446C205.244 61.8446 220.424 60.6423 221.626 61.6944C222.829 62.7464 224.031 63.9487 224.031 63.9487C224.031 63.9487 199.398 65.4516 200.45 64.3996C201.502 63.3476 219.372 65.0008 219.672 65.7522C219.973 66.5037 220.274 70.7119 220.274 70.7119C220.274 70.7119 184.985 72.5154 188.742 70.8621C192.5 69.2089 218.32 71.4633 222.077 71.0124C225.834 70.5616 228.239 70.8621 228.239 70.8621C228.239 70.8621 232.748 71.1477 231.2 71.2679C229.652 71.4032 229.396 71.7789 229.396 69.8402C229.396 67.9014 229.787 50.4525 229.787 50.4525C229.787 50.4525 235.859 49.671 233.92 50.4525C231.981 51.2341 226.676 50.9635 227.202 49.9416C227.713 48.9045 228.359 49.5508 228.359 48.7843C228.359 48.0028 227.578 46.5901 227.578 46.5901C227.578 46.5901 225.504 47.4918 225.248 46.4548C224.993 45.4178 224.993 44.6513 224.467 44.516C223.956 44.3808 222.919 44.6513 222.919 44.005C222.919 43.3588 222.663 42.8478 223.43 42.8478C224.211 42.8478 226.916 43.6293 227.052 43.1033C227.187 42.5923 227.307 39.7368 228.089 40.5183C228.87 41.2998 227.052 42.2015 229.126 42.7125C231.2 43.2235 236.37 43.7495 236.37 43.2235C236.37 42.7125 237.527 39.4662 237.918 40.5032C238.309 41.5403 237.527 42.953 238.955 42.442C240.383 41.931 240.383 34.8072 242.321 37.3922C244.26 39.9772 245.553 43.3438 245.943 42.6975C246.334 42.0512 247.747 39.0755 248.017 40.368C248.273 41.6605 246.079 42.953 249.054 43.2085C252.03 43.464 257.336 44.1102 257.456 43.0732C257.591 42.0362 257.711 39.842 258.357 40.7437C259.004 41.6455 259.785 43.464 259.785 43.464H260.687C260.687 43.464 261.078 45.012 260.687 45.2675C260.296 45.523 258.493 45.7785 258.493 45.7785C258.493 45.7785 258.748 46.9357 258.357 47.071C257.967 47.2063 257.065 47.4617 257.065 47.4617L256.419 49.7913C256.419 49.7913 260.041 49.9265 258.748 50.4375C257.456 50.9485 256.809 50.5728 256.554 51.0838C256.298 51.5948 256.043 69.9604 256.689 70.0957C257.335 70.2309 258.883 70.4864 258.117 70.2309C257.335 69.9754 253.849 71.2679 253.593 69.5847C253.338 67.9014 253.984 50.8433 252.947 50.8433C251.91 50.8433 234.206 51.6248 233.68 51.6248C233.169 51.6248 233.68 70.7569 233.68 70.7569C236.129 70.2459 264.58 70.7569 264.58 70.7569" stroke="#E5E5E5" stroke-width="0.983653" stroke-miterlimit="10" stroke-linecap="round" stroke-linejoin="round"/>
</g>
<g clip-path="url(#clip1_5110_1863)">
<path d="M596.917 70.772C597.173 70.6818 605.424 70.276 603.831 70.772C602.253 71.2679 600.75 71.6887 600.659 69.8552C600.569 68.0216 600.659 60.9279 600.659 60.9279C600.659 60.9279 617.417 60.3417 612.833 60.8377C608.249 61.3337 603.5 61.0932 603.335 60.0862C603.169 59.0793 603.169 58.1625 603.169 58.1625C603.169 58.1625 617.086 57.8319 614.095 58.1625C611.09 58.4931 598.42 57.7417 597.924 57.907C597.428 58.0723 594.843 58.914 598.014 58.2377C601.185 57.5764 602.268 56.8249 602.854 56.3139C603.44 55.818 608.52 49.5658 608.52 49.5658C608.52 49.5658 627.772 48.7242 624.856 49.2352C621.941 49.7311 604.928 48.8144 605.183 48.2282C605.439 47.6421 611.601 44.3056 613.013 44.3056C614.426 44.3056 623.94 43.975 621.264 44.1403C618.589 44.3056 614.095 44.1403 614.095 43.3137C614.095 42.4871 616.35 39.6466 617.011 36.8962C617.672 34.1459 617.838 30.9748 617.176 32.5528C616.515 34.1309 618.183 42.3067 619.266 43.2235C620.348 44.1403 630.778 47.3115 629.771 48.1381C628.764 48.9647 626.69 48.8895 626.434 49.145C626.179 49.4005 627.937 52.226 630.688 54.2249C633.438 56.2237 637.361 58.8088 637.526 58.3128C637.691 57.8168 616.605 59.4851 618.439 58.2226C620.272 56.9752 630.522 58.8839 630.522 59.47C630.522 60.0562 631.109 60.973 630.102 61.2134C629.095 61.4689 614.757 61.9649 618.679 61.3036C622.602 60.6423 633.859 61.3938 633.859 61.3938C633.859 61.3938 634.28 71.0575 633.694 70.8171C633.107 70.5616 632.281 63.3927 629.936 64.8204C627.607 66.2332 627.351 70.246 627.021 69.239C626.69 68.232 625.262 64.1591 622.857 65.4817C620.438 66.8193 619.777 70.7419 619.521 69.3141C619.266 67.9014 617.687 61.6493 615.764 63.558C613.84 65.4817 613.675 69.9754 613.6 69.0586C613.509 68.1419 610.759 63.062 609.512 65.0609C608.264 67.0598 608.339 69.5696 608.174 68.8933C608.009 68.232 605.333 63.062 605.093 65.9777C604.838 68.8933 604.597 70.8171 606.34 70.9824C608.084 71.1477 639.855 71.1477 639.855 71.1477C639.855 71.1477 646.063 71.3731 643.432 71.4934C640.817 71.6136 640.923 71.6136 641.719 64.5349C642.516 57.4712 643.883 38.5344 644.905 37.8581C645.927 37.1668 655.275 37.0616 651.969 37.5124C648.663 37.9633 640.562 37.287 643.072 36.265C645.582 35.243 657.44 35.3482 654.238 35.8141C651.052 36.265 644.199 36.265 643.748 34.5667C643.297 32.8534 642.726 31.2603 643.523 30.8094C644.319 30.3586 656.628 30.1181 653.442 30.584C650.256 31.0349 643.297 31.2753 643.523 29.562C643.748 27.8487 645.236 26.3758 647.4 25.8047C649.564 25.2336 650.707 21.9272 649.459 22.2729C648.212 22.6185 648.091 25.0082 650.03 26.1504C651.969 27.2926 653.111 27.2926 653.337 28.7655C653.562 30.2534 653.216 34.687 653.216 34.687C653.216 34.687 655.035 35.6037 654.704 36.746C654.359 37.8882 652.42 37.3171 652.645 39.1356C652.871 40.9541 656.748 71.283 655.606 70.6066C654.464 69.9153 651.623 38.8049 649.444 40.6235C647.28 42.442 645.116 70.8321 646.589 71.1778C648.076 71.5234 659.934 71.298 659.934 71.298C659.934 71.298 664.353 70.8772 663.091 71.1327C661.828 71.3882 658.912 71.8841 659.934 69.8702C660.941 67.8413 697.763 37.8581 697.507 38.7448C697.252 39.6315 672.829 70.8772 669.298 70.7569C665.751 70.6367 663.346 69.239 666.382 68.232C669.418 67.2251 679.788 68.9835 678.15 69.75C676.512 70.5165 674.994 71.8992 675.745 70.1257C676.512 68.3523 698.394 38.8801 699.536 38.3691C700.679 37.8581 704.977 37.3621 704.09 37.6176C703.203 37.8731 698.905 37.4974 699.025 36.6107C699.146 35.724 701.55 36.235 702.061 33.5748C702.572 30.9146 701.43 28.1342 701.55 30.0279C701.67 31.9216 702.317 36.4754 705.217 38.6246C708.133 40.7738 743.812 70.1257 742.535 70.5014C741.272 70.8772 733.938 71.2529 732.285 70.2459C730.647 69.239 733.292 66.6991 734.945 67.8413C736.583 68.9835 737.605 70.9974 735.065 70.1257C732.54 69.239 704.827 40.398 704.827 40.398C704.827 40.398 724.815 71.1477 726.333 71.0124C727.851 70.8922 730.632 69.1188 728.362 68.4875C726.078 67.8563 719.766 71.7789 719.255 70.0055C718.744 68.232 714.701 59.0041 710.523 57.6064C706.344 56.2087 692.803 55.2018 693.825 56.4642C694.832 57.7267 707.998 56.4642 707.998 54.826C707.998 53.1879 707.742 51.5346 707.366 51.0237C706.991 50.5127 701.806 43.2987 701.415 41.6605C701.039 40.0223 700.273 38.2489 701.039 40.0223C701.791 41.7957 693.074 50.9034 694.967 51.7901C696.861 52.6769 710.658 51.4144 706.104 52.1659C701.55 52.9324 692.698 52.7971 695.854 53.5636C699.01 54.315 710.402 53.8191 705.849 54.5705C701.295 55.337 694.847 54.826 693.57 55.337C692.307 55.848 687.378 61.1533 685.093 63.6932C682.809 66.2181 684.462 70.772 683.32 71.0275C682.178 71.283 678.135 70.772 680.915 70.772C683.696 70.772 688.385 71.1477 688.385 70.5165C688.385 69.8853 694.081 56.4642 698.499 58.6284C702.933 60.7776 703.684 70.1407 701.655 70.3962C699.626 70.6517 696.215 72.8009 696.47 69.254C696.726 65.7071 698.995 55.9683 704.316 58.4931C709.636 61.018 713.799 71.6437 710.508 70.5165C707.216 69.3743 704.316 57.6064 708.614 59.2596C712.912 60.8978 716.97 70.261 715.452 70.772C713.934 71.283 700.528 71.6587 705.969 70.8922C711.409 70.1407 745.826 71.0124 745.826 71.0124C745.826 71.0124 751.943 71.0425 749.929 71.0425C747.915 71.0425 747.915 72.1396 747.915 67.9315C747.915 63.7383 746.277 51.3092 747.554 53.3231C748.832 55.337 749.568 59.1695 750.109 57.7116C750.65 56.2538 750.846 50.7682 751.928 54.0595C753.025 57.3509 755.219 70.3061 753.025 70.1257C750.831 69.9454 754.663 71.5835 755.219 70.3061C755.76 69.0286 753.942 55.6977 755.219 55.6977C756.497 55.6977 773.299 55.5174 768.731 55.8781C764.162 56.2388 755.219 55.8781 755.219 53.6838C755.219 51.4896 755.4 47.1161 755.4 47.1161C755.4 47.1161 770.925 46.0189 768.731 46.7554C766.536 47.4918 755.58 47.2964 755.76 45.4779C755.941 43.6443 755.4 42.0062 756.121 42.0062C756.858 42.0062 770.188 42.3669 766.897 42.7426C763.606 43.1033 755.58 43.6594 755.58 40.7287C755.58 37.813 756.677 33.9806 758.691 33.0638C760.705 32.147 762.523 33.4245 762.523 31.2453C762.523 29.051 762.704 26.3157 761.787 27.5932C760.87 28.8707 761.426 31.7863 763.606 32.3424C765.8 32.8835 767.618 37.272 767.799 39.6466C767.979 42.0212 769.076 72.1547 769.257 70.3211C769.437 68.5026 770.534 50.9635 770.895 52.0607C771.255 53.1578 771.436 71.5986 772.909 70.1407C774.366 68.6829 775.464 49.8664 774.923 54.4353C774.382 59.0041 776.02 70.6818 774.923 70.6818C773.825 70.6818 766.702 71.2228 766.521 69.765C766.341 68.3072 765.424 60.4469 762.133 60.8227C758.841 61.1834 760.675 70.8621 759.578 71.0425C758.481 71.2228 754.288 71.7789 758.481 71.2228C762.674 70.6818 778.019 70.4864 778.019 70.4864C778.019 70.4864 790.868 70.2009 790.012 70.8171C789.14 71.4333 788.779 72.8009 788.644 71.4333C788.524 70.0656 788.524 56.3289 788.524 56.3289C788.524 56.3289 799.916 55.337 797.196 56.2087C794.475 57.0804 780.228 55.2168 779.236 55.4723C778.244 55.7128 776.02 56.8399 778.244 56.5844C780.468 56.344 791.86 48.5438 793.964 48.5438C796.069 48.5438 822.82 47.6722 816.869 48.4236C810.932 49.16 793.589 49.4155 793.469 46.6953C793.348 43.975 793.228 39.7668 793.589 39.2709C793.964 38.7749 811.909 37.287 805.357 38.5344C798.789 39.7668 786.285 38.4142 785.668 38.4142C785.052 38.4142 782.197 39.9021 785.548 39.2859C788.885 38.6697 795.948 33.9656 796.94 33.5898C797.932 33.2141 808.573 32.7181 807.1 33.2141C805.612 33.7101 798.067 32.7181 797.812 31.11C797.556 29.5019 796.324 26.1504 797.316 25.414C798.308 24.6775 806.98 23.8058 803.508 24.6775C800.036 25.5492 791.996 24.3018 791.62 24.7978C791.244 25.2937 790.388 27.0221 792.492 25.5342C794.596 24.0463 799.3 20.9503 799.916 20.8301C800.532 20.7098 809.82 19.8381 807.596 20.3341C805.372 20.8301 804.38 20.2139 804.38 18.8462C804.38 17.4786 804.259 16.9826 804.996 16.8624C805.732 16.7421 817.756 16.4866 814.164 16.7421C810.572 16.9826 806.739 16.2462 806.739 15.0138C806.739 13.7814 810.572 6.83793 810.707 4.23788C810.827 1.63784 810.587 -0.466246 810.467 0.886379C810.346 2.25403 812.946 13.6461 813.322 14.3826C813.698 15.119 815.546 15.8705 815.682 16.6069C815.802 17.3433 816.674 20.6948 816.057 20.6948C815.441 20.6948 811.969 20.4543 814.329 20.4543C816.689 20.4543 820.145 19.9584 820.761 20.5746C821.378 21.1908 828.802 25.0382 829.674 24.903C830.545 24.7827 807.145 25.0232 808.002 24.903C808.873 24.7827 823.106 23.6706 823.482 24.407C823.857 25.1434 824.594 31.9667 823.857 32.2071C823.121 32.4476 807.506 33.1991 812.706 32.7031C817.906 32.2071 824.098 32.2071 825.586 32.8233C827.074 33.4395 834.754 38.6396 835.61 38.5194C836.482 38.3992 841.682 38.1437 838.466 38.0234C835.25 37.9032 807.145 39.5113 809.114 38.6396C811.098 37.7679 827.434 39.0154 827.69 39.872C827.945 40.7437 828.306 48.1681 827.074 48.1681C825.841 48.1681 821.002 47.6722 823.857 47.4317C826.698 47.1762 828.817 47.4317 829.554 47.9276C830.29 48.4236 840.074 56.344 842.313 56.2237C844.538 56.1035 846.897 56.2237 844.538 56.1035C842.178 55.9833 799.961 56.7197 799.961 56.7197C799.961 56.7197 794.385 56.9602 793.033 58.944C791.665 60.9279 792.296 70.3361 792.792 68.6078C793.288 66.8794 797.872 57.4712 799.36 61.1834C800.848 64.8956 801.344 69.224 801.584 67.3754C801.825 65.5118 805.176 56.7197 807.401 59.455C809.625 62.1753 811.113 68.743 811.489 67.0147C811.864 65.2863 813.713 55.1266 816.944 59.455C820.16 63.7834 821.768 69.6147 821.904 67.2551C822.024 64.8956 824.759 57.0954 826.608 59.6955C828.471 62.2955 829.824 70.3512 830.576 67.7511C831.312 65.1511 833.055 55.1266 833.551 58.3429C834.047 61.5591 835.159 69.9754 833.927 70.3512C832.695 70.7269 787.622 69.4795 792.687 70.8471C797.767 72.2148 847.288 71.0876 847.288 71.0876C847.288 71.0876 852.323 70.8621 851.12 71.1627C849.918 71.4633 848.565 70.8621 848.415 69.0586C848.265 67.2551 847.814 62.7464 848.716 62.4458C849.617 62.1452 855.93 61.2435 853.074 62.4458C850.219 63.6481 844.072 64.8505 844.372 63.6481C844.673 62.4458 847.979 62.4458 847.979 60.6423C847.979 58.8388 847.528 55.2318 848.43 54.6307C849.332 54.0295 867.803 53.4283 861.941 54.1798C856.08 54.9312 843.32 54.7809 844.072 54.0295C844.823 53.278 847.979 51.6248 848.43 51.4745C848.881 51.3242 859.988 49.671 855.794 50.8734C851.586 52.0757 848.13 52.5266 848.13 49.5207C848.13 46.5149 847.228 37.5124 847.979 37.3621C848.731 37.2119 853.39 37.2119 853.39 37.2119C853.39 37.2119 853.24 43.8247 852.638 41.1194C852.037 38.4142 852.939 31.5158 852.338 31.5158C851.737 31.5158 849.031 31.8164 850.083 31.2152C851.135 30.6141 853.54 31.0649 853.54 30.0129C853.54 28.9608 852.638 27.0071 853.69 26.5562C854.742 26.1053 878.909 26.4059 878.909 26.4059C878.909 26.4059 878.308 24.6024 878.308 25.955C878.308 27.3076 879.661 29.562 878.308 30.0129C876.956 30.4638 855.629 31.6661 860.438 30.3135C865.248 28.9608 881.314 29.8626 882.065 30.3135C882.817 30.7643 884.17 30.9146 883.568 31.2152C882.967 31.5158 879.811 32.117 879.811 32.117C879.811 32.117 880.713 40.368 880.112 40.368C879.51 40.368 853.54 40.0674 855.93 38.4142C858.334 36.761 884.455 35.8592 884.605 36.761C884.756 37.6627 884.906 51.1739 884.455 51.3242C884.004 51.4745 860.123 52.0757 864.481 50.8734C868.84 49.671 886.559 50.8734 887.16 51.4745C887.761 52.0757 889.866 54.1798 889.264 54.1798C888.663 54.1798 875.152 54.3301 877.857 54.1798C880.563 54.0295 885.672 55.5324 885.522 56.1336C885.372 56.7347 885.222 61.6944 885.222 61.6944C885.222 61.6944 859.251 61.8446 865.248 61.8446C871.244 61.8446 886.424 60.6423 887.626 61.6944C888.829 62.7464 890.031 63.9487 890.031 63.9487C890.031 63.9487 865.398 65.4516 866.45 64.3996C867.502 63.3476 885.372 65.0008 885.672 65.7522C885.973 66.5037 886.274 70.7119 886.274 70.7119C886.274 70.7119 850.985 72.5154 854.742 70.8621C858.5 69.2089 884.32 71.4633 888.077 71.0124C891.834 70.5616 894.239 70.8621 894.239 70.8621C894.239 70.8621 898.748 71.1477 897.2 71.2679C895.652 71.4032 895.396 71.7789 895.396 69.8402C895.396 67.9014 895.787 50.4525 895.787 50.4525C895.787 50.4525 901.859 49.671 899.92 50.4525C897.981 51.2341 892.676 50.9635 893.202 49.9416C893.713 48.9045 894.359 49.5508 894.359 48.7843C894.359 48.0028 893.578 46.5901 893.578 46.5901C893.578 46.5901 891.504 47.4918 891.248 46.4548C890.993 45.4178 890.993 44.6513 890.467 44.516C889.956 44.3808 888.919 44.6513 888.919 44.005C888.919 43.3588 888.663 42.8478 889.43 42.8478C890.211 42.8478 892.916 43.6293 893.052 43.1033C893.187 42.5923 893.307 39.7368 894.089 40.5183C894.87 41.2998 893.052 42.2015 895.126 42.7125C897.2 43.2235 902.37 43.7495 902.37 43.2235C902.37 42.7125 903.527 39.4662 903.918 40.5032C904.309 41.5403 903.527 42.953 904.955 42.442C906.383 41.931 906.383 34.8072 908.321 37.3922C910.26 39.9772 911.553 43.3438 911.943 42.6975C912.334 42.0512 913.747 39.0755 914.017 40.368C914.273 41.6605 912.079 42.953 915.054 43.2085C918.03 43.464 923.336 44.1102 923.456 43.0732C923.591 42.0362 923.711 39.842 924.357 40.7437C925.004 41.6455 925.785 43.464 925.785 43.464H926.687C926.687 43.464 927.078 45.012 926.687 45.2675C926.296 45.523 924.493 45.7785 924.493 45.7785C924.493 45.7785 924.748 46.9357 924.357 47.071C923.967 47.2063 923.065 47.4617 923.065 47.4617L922.419 49.7913C922.419 49.7913 926.041 49.9265 924.748 50.4375C923.456 50.9485 922.809 50.5728 922.554 51.0838C922.298 51.5948 922.043 69.9604 922.689 70.0957C923.335 70.2309 924.883 70.4864 924.117 70.2309C923.335 69.9754 919.849 71.2679 919.593 69.5847C919.338 67.9014 919.984 50.8433 918.947 50.8433C917.91 50.8433 900.206 51.6248 899.68 51.6248C899.169 51.6248 899.68 70.7569 899.68 70.7569C902.129 70.2459 930.58 70.7569 930.58 70.7569" stroke="#E5E5E5" stroke-width="0.983653" stroke-miterlimit="10" stroke-linecap="round" stroke-linejoin="round"/>
</g>
<g clip-path="url(#clip2_5110_1863)">
<path d="M263.917 70.772C264.173 70.6818 272.424 70.276 270.831 70.772C269.253 71.2679 267.75 71.6887 267.659 69.8552C267.569 68.0216 267.659 60.9279 267.659 60.9279C267.659 60.9279 284.417 60.3417 279.833 60.8377C275.249 61.3337 270.5 61.0932 270.335 60.0862C270.169 59.0793 270.169 58.1625 270.169 58.1625C270.169 58.1625 284.086 57.8319 281.095 58.1625C278.09 58.4931 265.42 57.7417 264.924 57.907C264.428 58.0723 261.843 58.914 265.014 58.2377C268.185 57.5764 269.268 56.8249 269.854 56.3139C270.44 55.818 275.52 49.5658 275.52 49.5658C275.52 49.5658 294.772 48.7242 291.856 49.2352C288.941 49.7311 271.928 48.8144 272.183 48.2282C272.439 47.6421 278.601 44.3056 280.013 44.3056C281.426 44.3056 290.94 43.975 288.264 44.1403C285.589 44.3056 281.095 44.1403 281.095 43.3137C281.095 42.4871 283.35 39.6466 284.011 36.8962C284.672 34.1459 284.838 30.9748 284.176 32.5528C283.515 34.1309 285.183 42.3067 286.266 43.2235C287.348 44.1403 297.778 47.3115 296.771 48.1381C295.764 48.9647 293.69 48.8895 293.434 49.145C293.179 49.4005 294.937 52.226 297.688 54.2249C300.438 56.2237 304.361 58.8088 304.526 58.3128C304.691 57.8168 283.605 59.4851 285.439 58.2226C287.272 56.9752 297.522 58.8839 297.522 59.47C297.522 60.0562 298.109 60.973 297.102 61.2134C296.095 61.4689 281.757 61.9649 285.679 61.3036C289.602 60.6423 300.859 61.3938 300.859 61.3938C300.859 61.3938 301.28 71.0575 300.694 70.8171C300.107 70.5616 299.281 63.3927 296.936 64.8204C294.607 66.2332 294.351 70.246 294.021 69.239C293.69 68.232 292.262 64.1591 289.857 65.4817C287.438 66.8193 286.777 70.7419 286.521 69.3141C286.266 67.9014 284.687 61.6493 282.764 63.558C280.84 65.4817 280.675 69.9754 280.6 69.0586C280.509 68.1419 277.759 63.062 276.512 65.0609C275.264 67.0598 275.339 69.5696 275.174 68.8933C275.009 68.232 272.333 63.062 272.093 65.9777C271.838 68.8933 271.597 70.8171 273.34 70.9824C275.084 71.1477 306.855 71.1477 306.855 71.1477C306.855 71.1477 313.063 71.3731 310.432 71.4934C307.817 71.6136 307.923 71.6136 308.719 64.5349C309.516 57.4712 310.883 38.5344 311.905 37.8581C312.927 37.1668 322.275 37.0616 318.969 37.5124C315.663 37.9633 307.562 37.287 310.072 36.265C312.582 35.243 324.44 35.3482 321.238 35.8141C318.052 36.265 311.199 36.265 310.748 34.5667C310.297 32.8534 309.726 31.2603 310.523 30.8094C311.319 30.3586 323.628 30.1181 320.442 30.584C317.256 31.0349 310.297 31.2753 310.523 29.562C310.748 27.8487 312.236 26.3758 314.4 25.8047C316.564 25.2336 317.707 21.9272 316.459 22.2729C315.212 22.6185 315.091 25.0082 317.03 26.1504C318.969 27.2926 320.111 27.2926 320.337 28.7655C320.562 30.2534 320.216 34.687 320.216 34.687C320.216 34.687 322.035 35.6037 321.704 36.746C321.359 37.8882 319.42 37.3171 319.645 39.1356C319.871 40.9541 323.748 71.283 322.606 70.6066C321.464 69.9153 318.623 38.8049 316.444 40.6235C314.28 42.442 312.116 70.8321 313.589 71.1778C315.076 71.5234 326.934 71.298 326.934 71.298C326.934 71.298 331.353 70.8772 330.091 71.1327C328.828 71.3882 325.912 71.8841 326.934 69.8702C327.941 67.8413 364.763 37.8581 364.507 38.7448C364.252 39.6315 339.829 70.8772 336.298 70.7569C332.751 70.6367 330.346 69.239 333.382 68.232C336.418 67.2251 346.788 68.9835 345.15 69.75C343.512 70.5165 341.994 71.8992 342.745 70.1257C343.512 68.3523 365.394 38.8801 366.536 38.3691C367.679 37.8581 371.977 37.3621 371.09 37.6176C370.203 37.8731 365.905 37.4974 366.025 36.6107C366.146 35.724 368.55 36.235 369.061 33.5748C369.572 30.9146 368.43 28.1342 368.55 30.0279C368.67 31.9216 369.317 36.4754 372.217 38.6246C375.133 40.7738 410.812 70.1257 409.535 70.5014C408.272 70.8772 400.938 71.2529 399.285 70.2459C397.647 69.239 400.292 66.6991 401.945 67.8413C403.583 68.9835 404.605 70.9974 402.065 70.1257C399.54 69.239 371.827 40.398 371.827 40.398C371.827 40.398 391.815 71.1477 393.333 71.0124C394.851 70.8922 397.632 69.1188 395.362 68.4875C393.078 67.8563 386.766 71.7789 386.255 70.0055C385.744 68.232 381.701 59.0041 377.523 57.6064C373.344 56.2087 359.803 55.2018 360.825 56.4642C361.832 57.7267 374.998 56.4642 374.998 54.826C374.998 53.1879 374.742 51.5346 374.366 51.0237C373.991 50.5127 368.806 43.2987 368.415 41.6605C368.039 40.0223 367.273 38.2489 368.039 40.0223C368.791 41.7957 360.074 50.9034 361.967 51.7901C363.861 52.6769 377.658 51.4144 373.104 52.1659C368.55 52.9324 359.698 52.7971 362.854 53.5636C366.01 54.315 377.402 53.8191 372.849 54.5705C368.295 55.337 361.847 54.826 360.57 55.337C359.307 55.848 354.378 61.1533 352.093 63.6932C349.809 66.2181 351.462 70.772 350.32 71.0275C349.178 71.283 345.135 70.772 347.915 70.772C350.696 70.772 355.385 71.1477 355.385 70.5165C355.385 69.8853 361.081 56.4642 365.499 58.6284C369.933 60.7776 370.684 70.1407 368.655 70.3962C366.626 70.6517 363.215 72.8009 363.47 69.254C363.726 65.7071 365.995 55.9683 371.316 58.4931C376.636 61.018 380.799 71.6437 377.508 70.5165C374.216 69.3743 371.316 57.6064 375.614 59.2596C379.912 60.8978 383.97 70.261 382.452 70.772C380.934 71.283 367.528 71.6587 372.969 70.8922C378.409 70.1407 412.826 71.0124 412.826 71.0124C412.826 71.0124 418.943 71.0425 416.929 71.0425C414.915 71.0425 414.915 72.1396 414.915 67.9315C414.915 63.7383 413.277 51.3092 414.554 53.3231C415.832 55.337 416.568 59.1695 417.109 57.7116C417.65 56.2538 417.846 50.7682 418.928 54.0595C420.025 57.3509 422.219 70.3061 420.025 70.1257C417.831 69.9454 421.663 71.5835 422.219 70.3061C422.76 69.0286 420.942 55.6977 422.219 55.6977C423.497 55.6977 440.299 55.5174 435.731 55.8781C431.162 56.2388 422.219 55.8781 422.219 53.6838C422.219 51.4896 422.4 47.1161 422.4 47.1161C422.4 47.1161 437.925 46.0189 435.731 46.7554C433.536 47.4918 422.58 47.2964 422.76 45.4779C422.941 43.6443 422.4 42.0062 423.121 42.0062C423.858 42.0062 437.188 42.3669 433.897 42.7426C430.606 43.1033 422.58 43.6594 422.58 40.7287C422.58 37.813 423.677 33.9806 425.691 33.0638C427.705 32.147 429.523 33.4245 429.523 31.2453C429.523 29.051 429.704 26.3157 428.787 27.5932C427.87 28.8707 428.426 31.7863 430.606 32.3424C432.8 32.8835 434.618 37.272 434.799 39.6466C434.979 42.0212 436.076 72.1547 436.257 70.3211C436.437 68.5026 437.534 50.9635 437.895 52.0607C438.255 53.1578 438.436 71.5986 439.909 70.1407C441.366 68.6829 442.464 49.8664 441.923 54.4353C441.382 59.0041 443.02 70.6818 441.923 70.6818C440.825 70.6818 433.702 71.2228 433.521 69.765C433.341 68.3072 432.424 60.4469 429.133 60.8227C425.841 61.1834 427.675 70.8621 426.578 71.0425C425.481 71.2228 421.288 71.7789 425.481 71.2228C429.674 70.6818 445.019 70.4864 445.019 70.4864C445.019 70.4864 457.868 70.2009 457.012 70.8171C456.14 71.4333 455.779 72.8009 455.644 71.4333C455.524 70.0656 455.524 56.3289 455.524 56.3289C455.524 56.3289 466.916 55.337 464.196 56.2087C461.475 57.0804 447.228 55.2168 446.236 55.4723C445.244 55.7128 443.02 56.8399 445.244 56.5844C447.468 56.344 458.86 48.5438 460.964 48.5438C463.069 48.5438 489.82 47.6722 483.869 48.4236C477.932 49.16 460.589 49.4155 460.469 46.6953C460.348 43.975 460.228 39.7668 460.589 39.2709C460.964 38.7749 478.909 37.287 472.357 38.5344C465.789 39.7668 453.285 38.4142 452.668 38.4142C452.052 38.4142 449.197 39.9021 452.548 39.2859C455.885 38.6697 462.948 33.9656 463.94 33.5898C464.932 33.2141 475.573 32.7181 474.1 33.2141C472.612 33.7101 465.067 32.7181 464.812 31.11C464.556 29.5019 463.324 26.1504 464.316 25.414C465.308 24.6775 473.98 23.8058 470.508 24.6775C467.036 25.5492 458.996 24.3018 458.62 24.7978C458.244 25.2937 457.388 27.0221 459.492 25.5342C461.596 24.0463 466.3 20.9503 466.916 20.8301C467.532 20.7098 476.82 19.8381 474.596 20.3341C472.372 20.8301 471.38 20.2139 471.38 18.8462C471.38 17.4786 471.259 16.9826 471.996 16.8624C472.732 16.7421 484.756 16.4866 481.164 16.7421C477.572 16.9826 473.739 16.2462 473.739 15.0138C473.739 13.7814 477.572 6.83793 477.707 4.23788C477.827 1.63784 477.587 -0.466246 477.467 0.886379C477.346 2.25403 479.946 13.6461 480.322 14.3826C480.698 15.119 482.546 15.8705 482.682 16.6069C482.802 17.3433 483.674 20.6948 483.057 20.6948C482.441 20.6948 478.969 20.4543 481.329 20.4543C483.689 20.4543 487.145 19.9584 487.761 20.5746C488.378 21.1908 495.802 25.0382 496.674 24.903C497.545 24.7827 474.145 25.0232 475.002 24.903C475.873 24.7827 490.106 23.6706 490.482 24.407C490.857 25.1434 491.594 31.9667 490.857 32.2071C490.121 32.4476 474.506 33.1991 479.706 32.7031C484.906 32.2071 491.098 32.2071 492.586 32.8233C494.074 33.4395 501.754 38.6396 502.61 38.5194C503.482 38.3992 508.682 38.1437 505.466 38.0234C502.25 37.9032 474.145 39.5113 476.114 38.6396C478.098 37.7679 494.434 39.0154 494.69 39.872C494.945 40.7437 495.306 48.1681 494.074 48.1681C492.841 48.1681 488.002 47.6722 490.857 47.4317C493.698 47.1762 495.817 47.4317 496.554 47.9276C497.29 48.4236 507.074 56.344 509.313 56.2237C511.538 56.1035 513.897 56.2237 511.538 56.1035C509.178 55.9833 466.961 56.7197 466.961 56.7197C466.961 56.7197 461.385 56.9602 460.033 58.944C458.665 60.9279 459.296 70.3361 459.792 68.6078C460.288 66.8794 464.872 57.4712 466.36 61.1834C467.848 64.8956 468.344 69.224 468.584 67.3754C468.825 65.5118 472.176 56.7197 474.401 59.455C476.625 62.1753 478.113 68.743 478.489 67.0147C478.864 65.2863 480.713 55.1266 483.944 59.455C487.16 63.7834 488.768 69.6147 488.904 67.2551C489.024 64.8956 491.759 57.0954 493.608 59.6955C495.471 62.2955 496.824 70.3512 497.576 67.7511C498.312 65.1511 500.055 55.1266 500.551 58.3429C501.047 61.5591 502.159 69.9754 500.927 70.3512C499.695 70.7269 454.622 69.4795 459.687 70.8471C464.767 72.2148 514.288 71.0876 514.288 71.0876C514.288 71.0876 519.323 70.8621 518.12 71.1627C516.918 71.4633 515.565 70.8621 515.415 69.0586C515.265 67.2551 514.814 62.7464 515.716 62.4458C516.617 62.1452 522.93 61.2435 520.074 62.4458C517.219 63.6481 511.072 64.8505 511.372 63.6481C511.673 62.4458 514.979 62.4458 514.979 60.6423C514.979 58.8388 514.528 55.2318 515.43 54.6307C516.332 54.0295 534.803 53.4283 528.941 54.1798C523.08 54.9312 510.32 54.7809 511.072 54.0295C511.823 53.278 514.979 51.6248 515.43 51.4745C515.881 51.3242 526.988 49.671 522.794 50.8734C518.586 52.0757 515.13 52.5266 515.13 49.5207C515.13 46.5149 514.228 37.5124 514.979 37.3621C515.731 37.2119 520.39 37.2119 520.39 37.2119C520.39 37.2119 520.24 43.8247 519.638 41.1194C519.037 38.4142 519.939 31.5158 519.338 31.5158C518.737 31.5158 516.031 31.8164 517.083 31.2152C518.135 30.6141 520.54 31.0649 520.54 30.0129C520.54 28.9608 519.638 27.0071 520.69 26.5562C521.742 26.1053 545.909 26.4059 545.909 26.4059C545.909 26.4059 545.308 24.6024 545.308 25.955C545.308 27.3076 546.661 29.562 545.308 30.0129C543.956 30.4638 522.629 31.6661 527.438 30.3135C532.248 28.9608 548.314 29.8626 549.065 30.3135C549.817 30.7643 551.17 30.9146 550.568 31.2152C549.967 31.5158 546.811 32.117 546.811 32.117C546.811 32.117 547.713 40.368 547.112 40.368C546.51 40.368 520.54 40.0674 522.93 38.4142C525.334 36.761 551.455 35.8592 551.605 36.761C551.756 37.6627 551.906 51.1739 551.455 51.3242C551.004 51.4745 527.123 52.0757 531.481 50.8734C535.84 49.671 553.559 50.8734 554.16 51.4745C554.761 52.0757 556.866 54.1798 556.264 54.1798C555.663 54.1798 542.152 54.3301 544.857 54.1798C547.563 54.0295 552.672 55.5324 552.522 56.1336C552.372 56.7347 552.222 61.6944 552.222 61.6944C552.222 61.6944 526.251 61.8446 532.248 61.8446C538.244 61.8446 553.424 60.6423 554.626 61.6944C555.829 62.7464 557.031 63.9487 557.031 63.9487C557.031 63.9487 532.398 65.4516 533.45 64.3996C534.502 63.3476 552.372 65.0008 552.672 65.7522C552.973 66.5037 553.274 70.7119 553.274 70.7119C553.274 70.7119 517.985 72.5154 521.742 70.8621C525.5 69.2089 551.32 71.4633 555.077 71.0124C558.834 70.5616 561.239 70.8621 561.239 70.8621C561.239 70.8621 565.748 71.1477 564.2 71.2679C562.652 71.4032 562.396 71.7789 562.396 69.8402C562.396 67.9014 562.787 50.4525 562.787 50.4525C562.787 50.4525 568.859 49.671 566.92 50.4525C564.981 51.2341 559.676 50.9635 560.202 49.9416C560.713 48.9045 561.359 49.5508 561.359 48.7843C561.359 48.0028 560.578 46.5901 560.578 46.5901C560.578 46.5901 558.504 47.4918 558.248 46.4548C557.993 45.4178 557.993 44.6513 557.467 44.516C556.956 44.3808 555.919 44.6513 555.919 44.005C555.919 43.3588 555.663 42.8478 556.43 42.8478C557.211 42.8478 559.916 43.6293 560.052 43.1033C560.187 42.5923 560.307 39.7368 561.089 40.5183C561.87 41.2998 560.052 42.2015 562.126 42.7125C564.2 43.2235 569.37 43.7495 569.37 43.2235C569.37 42.7125 570.527 39.4662 570.918 40.5032C571.309 41.5403 570.527 42.953 571.955 42.442C573.383 41.931 573.383 34.8072 575.321 37.3922C577.26 39.9772 578.553 43.3438 578.943 42.6975C579.334 42.0512 580.747 39.0755 581.017 40.368C581.273 41.6605 579.079 42.953 582.054 43.2085C585.03 43.464 590.336 44.1102 590.456 43.0732C590.591 42.0362 590.711 39.842 591.357 40.7437C592.004 41.6455 592.785 43.464 592.785 43.464H593.687C593.687 43.464 594.078 45.012 593.687 45.2675C593.296 45.523 591.493 45.7785 591.493 45.7785C591.493 45.7785 591.748 46.9357 591.357 47.071C590.967 47.2063 590.065 47.4617 590.065 47.4617L589.419 49.7913C589.419 49.7913 593.041 49.9265 591.748 50.4375C590.456 50.9485 589.809 50.5728 589.554 51.0838C589.298 51.5948 589.043 69.9604 589.689 70.0957C590.335 70.2309 591.883 70.4864 591.117 70.2309C590.335 69.9754 586.849 71.2679 586.593 69.5847C586.338 67.9014 586.984 50.8433 585.947 50.8433C584.91 50.8433 567.206 51.6248 566.68 51.6248C566.169 51.6248 566.68 70.7569 566.68 70.7569C569.129 70.2459 597.58 70.7569 597.58 70.7569" stroke="#E5E5E5" stroke-width="0.983653" stroke-miterlimit="10" stroke-linecap="round" stroke-linejoin="round"/>
</g>
<g clip-path="url(#clip3_5110_1863)">
<path d="M929.917 70.772C930.173 70.6818 938.424 70.276 936.831 70.772C935.253 71.2679 933.75 71.6887 933.659 69.8552C933.569 68.0216 933.659 60.9279 933.659 60.9279C933.659 60.9279 950.417 60.3417 945.833 60.8377C941.249 61.3337 936.5 61.0932 936.335 60.0862C936.169 59.0793 936.169 58.1625 936.169 58.1625C936.169 58.1625 950.086 57.8319 947.095 58.1625C944.09 58.4931 931.42 57.7417 930.924 57.907C930.428 58.0723 927.843 58.914 931.014 58.2377C934.185 57.5764 935.268 56.8249 935.854 56.3139C936.44 55.818 941.52 49.5658 941.52 49.5658C941.52 49.5658 960.772 48.7242 957.856 49.2352C954.941 49.7311 937.928 48.8144 938.183 48.2282C938.439 47.6421 944.601 44.3056 946.013 44.3056C947.426 44.3056 956.94 43.975 954.264 44.1403C951.589 44.3056 947.095 44.1403 947.095 43.3137C947.095 42.4871 949.35 39.6466 950.011 36.8962C950.672 34.1459 950.838 30.9748 950.176 32.5528C949.515 34.1309 951.183 42.3067 952.266 43.2235C953.348 44.1403 963.778 47.3115 962.771 48.1381C961.764 48.9647 959.69 48.8895 959.434 49.145C959.179 49.4005 960.937 52.226 963.688 54.2249C966.438 56.2237 970.361 58.8088 970.526 58.3128C970.691 57.8168 949.605 59.4851 951.439 58.2226C953.272 56.9752 963.522 58.8839 963.522 59.47C963.522 60.0562 964.109 60.973 963.102 61.2134C962.095 61.4689 947.757 61.9649 951.679 61.3036C955.602 60.6423 966.859 61.3938 966.859 61.3938C966.859 61.3938 967.28 71.0575 966.694 70.8171C966.107 70.5616 965.281 63.3927 962.936 64.8204C960.607 66.2332 960.351 70.246 960.021 69.239C959.69 68.232 958.262 64.1591 955.857 65.4817C953.438 66.8193 952.777 70.7419 952.521 69.3141C952.266 67.9014 950.687 61.6493 948.764 63.558C946.84 65.4817 946.675 69.9754 946.6 69.0586C946.509 68.1419 943.759 63.062 942.512 65.0609C941.264 67.0598 941.339 69.5696 941.174 68.8933C941.009 68.232 938.333 63.062 938.093 65.9777C937.838 68.8933 937.597 70.8171 939.34 70.9824C941.084 71.1477 972.855 71.1477 972.855 71.1477C972.855 71.1477 979.063 71.3731 976.432 71.4934C973.817 71.6136 973.923 71.6136 974.719 64.5349C975.516 57.4712 976.883 38.5344 977.905 37.8581C978.927 37.1668 988.275 37.0616 984.969 37.5124C981.663 37.9633 973.562 37.287 976.072 36.265C978.582 35.243 990.44 35.3482 987.238 35.8141C984.052 36.265 977.199 36.265 976.748 34.5667C976.297 32.8534 975.726 31.2603 976.523 30.8094C977.319 30.3586 989.628 30.1181 986.442 30.584C983.256 31.0349 976.297 31.2753 976.523 29.562C976.748 27.8487 978.236 26.3758 980.4 25.8047C982.564 25.2336 983.707 21.9272 982.459 22.2729C981.212 22.6185 981.091 25.0082 983.03 26.1504C984.969 27.2926 986.111 27.2926 986.337 28.7655C986.562 30.2534 986.216 34.687 986.216 34.687C986.216 34.687 988.035 35.6037 987.704 36.746C987.359 37.8882 985.42 37.3171 985.645 39.1356C985.871 40.9541 989.748 71.283 988.606 70.6066C987.464 69.9153 984.623 38.8049 982.444 40.6235C980.28 42.442 978.116 70.8321 979.589 71.1778C981.076 71.5234 992.934 71.298 992.934 71.298C992.934 71.298 997.353 70.8772 996.091 71.1327C994.828 71.3882 991.912 71.8841 992.934 69.8702C993.941 67.8413 1030.76 37.8581 1030.51 38.7448C1030.25 39.6315 1005.83 70.8772 1002.3 70.7569C998.751 70.6367 996.346 69.239 999.382 68.232C1002.42 67.2251 1012.79 68.9835 1011.15 69.75C1009.51 70.5165 1007.99 71.8992 1008.75 70.1257C1009.51 68.3523 1031.39 38.8801 1032.54 38.3691C1033.68 37.8581 1037.98 37.3621 1037.09 37.6176C1036.2 37.8731 1031.91 37.4974 1032.03 36.6107C1032.15 35.724 1034.55 36.235 1035.06 33.5748C1035.57 30.9146 1034.43 28.1342 1034.55 30.0279C1034.67 31.9216 1035.32 36.4754 1038.22 38.6246C1041.13 40.7738 1076.81 70.1257 1075.53 70.5014C1074.27 70.8772 1066.94 71.2529 1065.28 70.2459C1063.65 69.239 1066.29 66.6991 1067.94 67.8413C1069.58 68.9835 1070.61 70.9974 1068.07 70.1257C1065.54 69.239 1037.83 40.398 1037.83 40.398C1037.83 40.398 1057.82 71.1477 1059.33 71.0124C1060.85 70.8922 1063.63 69.1188 1061.36 68.4875C1059.08 67.8563 1052.77 71.7789 1052.25 70.0055C1051.74 68.232 1047.7 59.0041 1043.52 57.6064C1039.34 56.2087 1025.8 55.2018 1026.83 56.4642C1027.83 57.7267 1041 56.4642 1041 54.826C1041 53.1879 1040.74 51.5346 1040.37 51.0237C1039.99 50.5127 1034.81 43.2987 1034.41 41.6605C1034.04 40.0223 1033.27 38.2489 1034.04 40.0223C1034.79 41.7957 1026.07 50.9034 1027.97 51.7901C1029.86 52.6769 1043.66 51.4144 1039.1 52.1659C1034.55 52.9324 1025.7 52.7971 1028.85 53.5636C1032.01 54.315 1043.4 53.8191 1038.85 54.5705C1034.29 55.337 1027.85 54.826 1026.57 55.337C1025.31 55.848 1020.38 61.1533 1018.09 63.6932C1015.81 66.2181 1017.46 70.772 1016.32 71.0275C1015.18 71.283 1011.13 70.772 1013.92 70.772C1016.7 70.772 1021.38 71.1477 1021.38 70.5165C1021.38 69.8853 1027.08 56.4642 1031.5 58.6284C1035.93 60.7776 1036.68 70.1407 1034.66 70.3962C1032.63 70.6517 1029.21 72.8009 1029.47 69.254C1029.73 65.7071 1032 55.9683 1037.32 58.4931C1042.64 61.018 1046.8 71.6437 1043.51 70.5165C1040.22 69.3743 1037.32 57.6064 1041.61 59.2596C1045.91 60.8978 1049.97 70.261 1048.45 70.772C1046.93 71.283 1033.53 71.6587 1038.97 70.8922C1044.41 70.1407 1078.83 71.0124 1078.83 71.0124C1078.83 71.0124 1084.94 71.0425 1082.93 71.0425C1080.92 71.0425 1080.92 72.1396 1080.92 67.9315C1080.92 63.7383 1079.28 51.3092 1080.55 53.3231C1081.83 55.337 1082.57 59.1695 1083.11 57.7116C1083.65 56.2538 1083.85 50.7682 1084.93 54.0595C1086.03 57.3509 1088.22 70.3061 1086.03 70.1257C1083.83 69.9454 1087.66 71.5835 1088.22 70.3061C1088.76 69.0286 1086.94 55.6977 1088.22 55.6977C1089.5 55.6977 1106.3 55.5174 1101.73 55.8781C1097.16 56.2388 1088.22 55.8781 1088.22 53.6838C1088.22 51.4896 1088.4 47.1161 1088.4 47.1161C1088.4 47.1161 1103.92 46.0189 1101.73 46.7554C1099.54 47.4918 1088.58 47.2964 1088.76 45.4779C1088.94 43.6443 1088.4 42.0062 1089.12 42.0062C1089.86 42.0062 1103.19 42.3669 1099.9 42.7426C1096.61 43.1033 1088.58 43.6594 1088.58 40.7287C1088.58 37.813 1089.68 33.9806 1091.69 33.0638C1093.7 32.147 1095.52 33.4245 1095.52 31.2453C1095.52 29.051 1095.7 26.3157 1094.79 27.5932C1093.87 28.8707 1094.43 31.7863 1096.61 32.3424C1098.8 32.8835 1100.62 37.272 1100.8 39.6466C1100.98 42.0212 1102.08 72.1547 1102.26 70.3211C1102.44 68.5026 1103.53 50.9635 1103.89 52.0607C1104.26 53.1578 1104.44 71.5986 1105.91 70.1407C1107.37 68.6829 1108.46 49.8664 1107.92 54.4353C1107.38 59.0041 1109.02 70.6818 1107.92 70.6818C1106.83 70.6818 1099.7 71.2228 1099.52 69.765C1099.34 68.3072 1098.42 60.4469 1095.13 60.8227C1091.84 61.1834 1093.67 70.8621 1092.58 71.0425C1091.48 71.2228 1087.29 71.7789 1091.48 71.2228C1095.67 70.6818 1111.02 70.4864 1111.02 70.4864C1111.02 70.4864 1123.87 70.2009 1123.01 70.8171C1122.14 71.4333 1121.78 72.8009 1121.64 71.4333C1121.52 70.0656 1121.52 56.3289 1121.52 56.3289C1121.52 56.3289 1132.92 55.337 1130.2 56.2087C1127.48 57.0804 1113.23 55.2168 1112.24 55.4723C1111.24 55.7128 1109.02 56.8399 1111.24 56.5844C1113.47 56.344 1124.86 48.5438 1126.96 48.5438C1129.07 48.5438 1155.82 47.6722 1149.87 48.4236C1143.93 49.16 1126.59 49.4155 1126.47 46.6953C1126.35 43.975 1126.23 39.7668 1126.59 39.2709C1126.96 38.7749 1144.91 37.287 1138.36 38.5344C1131.79 39.7668 1119.28 38.4142 1118.67 38.4142C1118.05 38.4142 1115.2 39.9021 1118.55 39.2859C1121.88 38.6697 1128.95 33.9656 1129.94 33.5898C1130.93 33.2141 1141.57 32.7181 1140.1 33.2141C1138.61 33.7101 1131.07 32.7181 1130.81 31.11C1130.56 29.5019 1129.32 26.1504 1130.32 25.414C1131.31 24.6775 1139.98 23.8058 1136.51 24.6775C1133.04 25.5492 1125 24.3018 1124.62 24.7978C1124.24 25.2937 1123.39 27.0221 1125.49 25.5342C1127.6 24.0463 1132.3 20.9503 1132.92 20.8301C1133.53 20.7098 1142.82 19.8381 1140.6 20.3341C1138.37 20.8301 1137.38 20.2139 1137.38 18.8462C1137.38 17.4786 1137.26 16.9826 1138 16.8624C1138.73 16.7421 1150.76 16.4866 1147.16 16.7421C1143.57 16.9826 1139.74 16.2462 1139.74 15.0138C1139.74 13.7814 1143.57 6.83793 1143.71 4.23788C1143.83 1.63784 1143.59 -0.466246 1143.47 0.886379C1143.35 2.25403 1145.95 13.6461 1146.32 14.3826C1146.7 15.119 1148.55 15.8705 1148.68 16.6069C1148.8 17.3433 1149.67 20.6948 1149.06 20.6948C1148.44 20.6948 1144.97 20.4543 1147.33 20.4543C1149.69 20.4543 1153.15 19.9584 1153.76 20.5746C1154.38 21.1908 1161.8 25.0382 1162.67 24.903C1163.55 24.7827 1140.15 25.0232 1141 24.903C1141.87 24.7827 1156.11 23.6706 1156.48 24.407C1156.86 25.1434 1157.59 31.9667 1156.86 32.2071C1156.12 32.4476 1140.51 33.1991 1145.71 32.7031C1150.91 32.2071 1157.1 32.2071 1158.59 32.8233C1160.07 33.4395 1167.75 38.6396 1168.61 38.5194C1169.48 38.3992 1174.68 38.1437 1171.47 38.0234C1168.25 37.9032 1140.15 39.5113 1142.11 38.6396C1144.1 37.7679 1160.43 39.0154 1160.69 39.872C1160.95 40.7437 1161.31 48.1681 1160.07 48.1681C1158.84 48.1681 1154 47.6722 1156.86 47.4317C1159.7 47.1762 1161.82 47.4317 1162.55 47.9276C1163.29 48.4236 1173.07 56.344 1175.31 56.2237C1177.54 56.1035 1179.9 56.2237 1177.54 56.1035C1175.18 55.9833 1132.96 56.7197 1132.96 56.7197C1132.96 56.7197 1127.39 56.9602 1126.03 58.944C1124.67 60.9279 1125.3 70.3361 1125.79 68.6078C1126.29 66.8794 1130.87 57.4712 1132.36 61.1834C1133.85 64.8956 1134.34 69.224 1134.58 67.3754C1134.82 65.5118 1138.18 56.7197 1140.4 59.455C1142.62 62.1753 1144.11 68.743 1144.49 67.0147C1144.86 65.2863 1146.71 55.1266 1149.94 59.455C1153.16 63.7834 1154.77 69.6147 1154.9 67.2551C1155.02 64.8956 1157.76 57.0954 1159.61 59.6955C1161.47 62.2955 1162.82 70.3512 1163.58 67.7511C1164.31 65.1511 1166.06 55.1266 1166.55 58.3429C1167.05 61.5591 1168.16 69.9754 1166.93 70.3512C1165.69 70.7269 1120.62 69.4795 1125.69 70.8471C1130.77 72.2148 1180.29 71.0876 1180.29 71.0876C1180.29 71.0876 1185.32 70.8621 1184.12 71.1627C1182.92 71.4633 1181.57 70.8621 1181.42 69.0586C1181.26 67.2551 1180.81 62.7464 1181.72 62.4458C1182.62 62.1452 1188.93 61.2435 1186.07 62.4458C1183.22 63.6481 1177.07 64.8505 1177.37 63.6481C1177.67 62.4458 1180.98 62.4458 1180.98 60.6423C1180.98 58.8388 1180.53 55.2318 1181.43 54.6307C1182.33 54.0295 1200.8 53.4283 1194.94 54.1798C1189.08 54.9312 1176.32 54.7809 1177.07 54.0295C1177.82 53.278 1180.98 51.6248 1181.43 51.4745C1181.88 51.3242 1192.99 49.671 1188.79 50.8734C1184.59 52.0757 1181.13 52.5266 1181.13 49.5207C1181.13 46.5149 1180.23 37.5124 1180.98 37.3621C1181.73 37.2119 1186.39 37.2119 1186.39 37.2119C1186.39 37.2119 1186.24 43.8247 1185.64 41.1194C1185.04 38.4142 1185.94 31.5158 1185.34 31.5158C1184.74 31.5158 1182.03 31.8164 1183.08 31.2152C1184.14 30.6141 1186.54 31.0649 1186.54 30.0129C1186.54 28.9608 1185.64 27.0071 1186.69 26.5562C1187.74 26.1053 1211.91 26.4059 1211.91 26.4059C1211.91 26.4059 1211.31 24.6024 1211.31 25.955C1211.31 27.3076 1212.66 29.562 1211.31 30.0129C1209.96 30.4638 1188.63 31.6661 1193.44 30.3135C1198.25 28.9608 1214.31 29.8626 1215.07 30.3135C1215.82 30.7643 1217.17 30.9146 1216.57 31.2152C1215.97 31.5158 1212.81 32.117 1212.81 32.117C1212.81 32.117 1213.71 40.368 1213.11 40.368C1212.51 40.368 1186.54 40.0674 1188.93 38.4142C1191.33 36.761 1217.46 35.8592 1217.61 36.761C1217.76 37.6627 1217.91 51.1739 1217.46 51.3242C1217 51.4745 1193.12 52.0757 1197.48 50.8734C1201.84 49.671 1219.56 50.8734 1220.16 51.4745C1220.76 52.0757 1222.87 54.1798 1222.26 54.1798C1221.66 54.1798 1208.15 54.3301 1210.86 54.1798C1213.56 54.0295 1218.67 55.5324 1218.52 56.1336C1218.37 56.7347 1218.22 61.6944 1218.22 61.6944C1218.22 61.6944 1192.25 61.8446 1198.25 61.8446C1204.24 61.8446 1219.42 60.6423 1220.63 61.6944C1221.83 62.7464 1223.03 63.9487 1223.03 63.9487C1223.03 63.9487 1198.4 65.4516 1199.45 64.3996C1200.5 63.3476 1218.37 65.0008 1218.67 65.7522C1218.97 66.5037 1219.27 70.7119 1219.27 70.7119C1219.27 70.7119 1183.99 72.5154 1187.74 70.8621C1191.5 69.2089 1217.32 71.4633 1221.08 71.0124C1224.83 70.5616 1227.24 70.8621 1227.24 70.8621C1227.24 70.8621 1231.75 71.1477 1230.2 71.2679C1228.65 71.4032 1228.4 71.7789 1228.4 69.8402C1228.4 67.9014 1228.79 50.4525 1228.79 50.4525C1228.79 50.4525 1234.86 49.671 1232.92 50.4525C1230.98 51.2341 1225.68 50.9635 1226.2 49.9416C1226.71 48.9045 1227.36 49.5508 1227.36 48.7843C1227.36 48.0028 1226.58 46.5901 1226.58 46.5901C1226.58 46.5901 1224.5 47.4918 1224.25 46.4548C1223.99 45.4178 1223.99 44.6513 1223.47 44.516C1222.96 44.3808 1221.92 44.6513 1221.92 44.005C1221.92 43.3588 1221.66 42.8478 1222.43 42.8478C1223.21 42.8478 1225.92 43.6293 1226.05 43.1033C1226.19 42.5923 1226.31 39.7368 1227.09 40.5183C1227.87 41.2998 1226.05 42.2015 1228.13 42.7125C1230.2 43.2235 1235.37 43.7495 1235.37 43.2235C1235.37 42.7125 1236.53 39.4662 1236.92 40.5032C1237.31 41.5403 1236.53 42.953 1237.95 42.442C1239.38 41.931 1239.38 34.8072 1241.32 37.3922C1243.26 39.9772 1244.55 43.3438 1244.94 42.6975C1245.33 42.0512 1246.75 39.0755 1247.02 40.368C1247.27 41.6605 1245.08 42.953 1248.05 43.2085C1251.03 43.464 1256.34 44.1102 1256.46 43.0732C1256.59 42.0362 1256.71 39.842 1257.36 40.7437C1258 41.6455 1258.79 43.464 1258.79 43.464H1259.69C1259.69 43.464 1260.08 45.012 1259.69 45.2675C1259.3 45.523 1257.49 45.7785 1257.49 45.7785C1257.49 45.7785 1257.75 46.9357 1257.36 47.071C1256.97 47.2063 1256.06 47.4617 1256.06 47.4617L1255.42 49.7913C1255.42 49.7913 1259.04 49.9265 1257.75 50.4375C1256.46 50.9485 1255.81 50.5728 1255.55 51.0838C1255.3 51.5948 1255.04 69.9604 1255.69 70.0957C1256.34 70.2309 1257.88 70.4864 1257.12 70.2309C1256.34 69.9754 1252.85 71.2679 1252.59 69.5847C1252.34 67.9014 1252.98 50.8433 1251.95 50.8433C1250.91 50.8433 1233.21 51.6248 1232.68 51.6248C1232.17 51.6248 1232.68 70.7569 1232.68 70.7569C1235.13 70.2459 1263.58 70.7569 1263.58 70.7569" stroke="#E5E5E5" stroke-width="0.983653" stroke-miterlimit="10" stroke-linecap="round" stroke-linejoin="round"/>
</g>
<g clip-path="url(#clip4_5110_1863)">
<path d="M1262.92 70.772C1263.17 70.6818 1271.42 70.276 1269.83 70.772C1268.25 71.2679 1266.75 71.6887 1266.66 69.8552C1266.57 68.0216 1266.66 60.9279 1266.66 60.9279C1266.66 60.9279 1283.42 60.3417 1278.83 60.8377C1274.25 61.3337 1269.5 61.0932 1269.33 60.0862C1269.17 59.0793 1269.17 58.1625 1269.17 58.1625C1269.17 58.1625 1283.09 57.8319 1280.1 58.1625C1277.09 58.4931 1264.42 57.7417 1263.92 57.907C1263.43 58.0723 1260.84 58.914 1264.01 58.2377C1267.19 57.5764 1268.27 56.8249 1268.85 56.3139C1269.44 55.818 1274.52 49.5658 1274.52 49.5658C1274.52 49.5658 1293.77 48.7242 1290.86 49.2352C1287.94 49.7311 1270.93 48.8144 1271.18 48.2282C1271.44 47.6421 1277.6 44.3056 1279.01 44.3056C1280.43 44.3056 1289.94 43.975 1287.26 44.1403C1284.59 44.3056 1280.1 44.1403 1280.1 43.3137C1280.1 42.4871 1282.35 39.6466 1283.01 36.8962C1283.67 34.1459 1283.84 30.9748 1283.18 32.5528C1282.52 34.1309 1284.18 42.3067 1285.27 43.2235C1286.35 44.1403 1296.78 47.3115 1295.77 48.1381C1294.76 48.9647 1292.69 48.8895 1292.43 49.145C1292.18 49.4005 1293.94 52.226 1296.69 54.2249C1299.44 56.2237 1303.36 58.8088 1303.53 58.3128C1303.69 57.8168 1282.61 59.4851 1284.44 58.2226C1286.27 56.9752 1296.52 58.8839 1296.52 59.47C1296.52 60.0562 1297.11 60.973 1296.1 61.2134C1295.09 61.4689 1280.76 61.9649 1284.68 61.3036C1288.6 60.6423 1299.86 61.3938 1299.86 61.3938C1299.86 61.3938 1300.28 71.0575 1299.69 70.8171C1299.11 70.5616 1298.28 63.3927 1295.94 64.8204C1293.61 66.2332 1293.35 70.246 1293.02 69.239C1292.69 68.232 1291.26 64.1591 1288.86 65.4817C1286.44 66.8193 1285.78 70.7419 1285.52 69.3141C1285.27 67.9014 1283.69 61.6493 1281.76 63.558C1279.84 65.4817 1279.67 69.9754 1279.6 69.0586C1279.51 68.1419 1276.76 63.062 1275.51 65.0609C1274.26 67.0598 1274.34 69.5696 1274.17 68.8933C1274.01 68.232 1271.33 63.062 1271.09 65.9777C1270.84 68.8933 1270.6 70.8171 1272.34 70.9824C1274.08 71.1477 1305.86 71.1477 1305.86 71.1477C1305.86 71.1477 1312.06 71.3731 1309.43 71.4934C1306.82 71.6136 1306.92 71.6136 1307.72 64.5349C1308.52 57.4712 1309.88 38.5344 1310.91 37.8581C1311.93 37.1668 1321.28 37.0616 1317.97 37.5124C1314.66 37.9633 1306.56 37.287 1309.07 36.265C1311.58 35.243 1323.44 35.3482 1320.24 35.8141C1317.05 36.265 1310.2 36.265 1309.75 34.5667C1309.3 32.8534 1308.73 31.2603 1309.52 30.8094C1310.32 30.3586 1322.63 30.1181 1319.44 30.584C1316.26 31.0349 1309.3 31.2753 1309.52 29.562C1309.75 27.8487 1311.24 26.3758 1313.4 25.8047C1315.56 25.2336 1316.71 21.9272 1315.46 22.2729C1314.21 22.6185 1314.09 25.0082 1316.03 26.1504C1317.97 27.2926 1319.11 27.2926 1319.34 28.7655C1319.56 30.2534 1319.22 34.687 1319.22 34.687C1319.22 34.687 1321.03 35.6037 1320.7 36.746C1320.36 37.8882 1318.42 37.3171 1318.65 39.1356C1318.87 40.9541 1322.75 71.283 1321.61 70.6066C1320.46 69.9153 1317.62 38.8049 1315.44 40.6235C1313.28 42.442 1311.12 70.8321 1312.59 71.1778C1314.08 71.5234 1325.93 71.298 1325.93 71.298C1325.93 71.298 1330.35 70.8772 1329.09 71.1327C1327.83 71.3882 1324.91 71.8841 1325.93 69.8702C1326.94 67.8413 1363.76 37.8581 1363.51 38.7448C1363.25 39.6315 1338.83 70.8772 1335.3 70.7569C1331.75 70.6367 1329.35 69.239 1332.38 68.232C1335.42 67.2251 1345.79 68.9835 1344.15 69.75C1342.51 70.5165 1340.99 71.8992 1341.75 70.1257C1342.51 68.3523 1364.39 38.8801 1365.54 38.3691C1366.68 37.8581 1370.98 37.3621 1370.09 37.6176C1369.2 37.8731 1364.91 37.4974 1365.03 36.6107C1365.15 35.724 1367.55 36.235 1368.06 33.5748C1368.57 30.9146 1367.43 28.1342 1367.55 30.0279C1367.67 31.9216 1368.32 36.4754 1371.22 38.6246C1374.13 40.7738 1409.81 70.1257 1408.53 70.5014C1407.27 70.8772 1399.94 71.2529 1398.28 70.2459C1396.65 69.239 1399.29 66.6991 1400.94 67.8413C1402.58 68.9835 1403.61 70.9974 1401.07 70.1257C1398.54 69.239 1370.83 40.398 1370.83 40.398C1370.83 40.398 1390.82 71.1477 1392.33 71.0124C1393.85 70.8922 1396.63 69.1188 1394.36 68.4875C1392.08 67.8563 1385.77 71.7789 1385.25 70.0055C1384.74 68.232 1380.7 59.0041 1376.52 57.6064C1372.34 56.2087 1358.8 55.2018 1359.83 56.4642C1360.83 57.7267 1374 56.4642 1374 54.826C1374 53.1879 1373.74 51.5346 1373.37 51.0237C1372.99 50.5127 1367.81 43.2987 1367.41 41.6605C1367.04 40.0223 1366.27 38.2489 1367.04 40.0223C1367.79 41.7957 1359.07 50.9034 1360.97 51.7901C1362.86 52.6769 1376.66 51.4144 1372.1 52.1659C1367.55 52.9324 1358.7 52.7971 1361.85 53.5636C1365.01 54.315 1376.4 53.8191 1371.85 54.5705C1367.29 55.337 1360.85 54.826 1359.57 55.337C1358.31 55.848 1353.38 61.1533 1351.09 63.6932C1348.81 66.2181 1350.46 70.772 1349.32 71.0275C1348.18 71.283 1344.13 70.772 1346.92 70.772C1349.7 70.772 1354.38 71.1477 1354.38 70.5165C1354.38 69.8853 1360.08 56.4642 1364.5 58.6284C1368.93 60.7776 1369.68 70.1407 1367.66 70.3962C1365.63 70.6517 1362.21 72.8009 1362.47 69.254C1362.73 65.7071 1365 55.9683 1370.32 58.4931C1375.64 61.018 1379.8 71.6437 1376.51 70.5165C1373.22 69.3743 1370.32 57.6064 1374.61 59.2596C1378.91 60.8978 1382.97 70.261 1381.45 70.772C1379.93 71.283 1366.53 71.6587 1371.97 70.8922C1377.41 70.1407 1411.83 71.0124 1411.83 71.0124C1411.83 71.0124 1417.94 71.0425 1415.93 71.0425C1413.92 71.0425 1413.92 72.1396 1413.92 67.9315C1413.92 63.7383 1412.28 51.3092 1413.55 53.3231C1414.83 55.337 1415.57 59.1695 1416.11 57.7116C1416.65 56.2538 1416.85 50.7682 1417.93 54.0595C1419.03 57.3509 1421.22 70.3061 1419.03 70.1257C1416.83 69.9454 1420.66 71.5835 1421.22 70.3061C1421.76 69.0286 1419.94 55.6977 1421.22 55.6977C1422.5 55.6977 1439.3 55.5174 1434.73 55.8781C1430.16 56.2388 1421.22 55.8781 1421.22 53.6838C1421.22 51.4896 1421.4 47.1161 1421.4 47.1161C1421.4 47.1161 1436.92 46.0189 1434.73 46.7554C1432.54 47.4918 1421.58 47.2964 1421.76 45.4779C1421.94 43.6443 1421.4 42.0062 1422.12 42.0062C1422.86 42.0062 1436.19 42.3669 1432.9 42.7426C1429.61 43.1033 1421.58 43.6594 1421.58 40.7287C1421.58 37.813 1422.68 33.9806 1424.69 33.0638C1426.7 32.147 1428.52 33.4245 1428.52 31.2453C1428.52 29.051 1428.7 26.3157 1427.79 27.5932C1426.87 28.8707 1427.43 31.7863 1429.61 32.3424C1431.8 32.8835 1433.62 37.272 1433.8 39.6466C1433.98 42.0212 1435.08 72.1547 1435.26 70.3211C1435.44 68.5026 1436.53 50.9635 1436.89 52.0607C1437.26 53.1578 1437.44 71.5986 1438.91 70.1407C1440.37 68.6829 1441.46 49.8664 1440.92 54.4353C1440.38 59.0041 1442.02 70.6818 1440.92 70.6818C1439.83 70.6818 1432.7 71.2228 1432.52 69.765C1432.34 68.3072 1431.42 60.4469 1428.13 60.8227C1424.84 61.1834 1426.67 70.8621 1425.58 71.0425C1424.48 71.2228 1420.29 71.7789 1424.48 71.2228C1428.67 70.6818 1444.02 70.4864 1444.02 70.4864C1444.02 70.4864 1456.87 70.2009 1456.01 70.8171C1455.14 71.4333 1454.78 72.8009 1454.64 71.4333C1454.52 70.0656 1454.52 56.3289 1454.52 56.3289C1454.52 56.3289 1465.92 55.337 1463.2 56.2087C1460.48 57.0804 1446.23 55.2168 1445.24 55.4723C1444.24 55.7128 1442.02 56.8399 1444.24 56.5844C1446.47 56.344 1457.86 48.5438 1459.96 48.5438C1462.07 48.5438 1488.82 47.6722 1482.87 48.4236C1476.93 49.16 1459.59 49.4155 1459.47 46.6953C1459.35 43.975 1459.23 39.7668 1459.59 39.2709C1459.96 38.7749 1477.91 37.287 1471.36 38.5344C1464.79 39.7668 1452.28 38.4142 1451.67 38.4142C1451.05 38.4142 1448.2 39.9021 1451.55 39.2859C1454.88 38.6697 1461.95 33.9656 1462.94 33.5898C1463.93 33.2141 1474.57 32.7181 1473.1 33.2141C1471.61 33.7101 1464.07 32.7181 1463.81 31.11C1463.56 29.5019 1462.32 26.1504 1463.32 25.414C1464.31 24.6775 1472.98 23.8058 1469.51 24.6775C1466.04 25.5492 1458 24.3018 1457.62 24.7978C1457.24 25.2937 1456.39 27.0221 1458.49 25.5342C1460.6 24.0463 1465.3 20.9503 1465.92 20.8301C1466.53 20.7098 1475.82 19.8381 1473.6 20.3341C1471.37 20.8301 1470.38 20.2139 1470.38 18.8462C1470.38 17.4786 1470.26 16.9826 1471 16.8624C1471.73 16.7421 1483.76 16.4866 1480.16 16.7421C1476.57 16.9826 1472.74 16.2462 1472.74 15.0138C1472.74 13.7814 1476.57 6.83793 1476.71 4.23788C1476.83 1.63784 1476.59 -0.466246 1476.47 0.886379C1476.35 2.25403 1478.95 13.6461 1479.32 14.3826C1479.7 15.119 1481.55 15.8705 1481.68 16.6069C1481.8 17.3433 1482.67 20.6948 1482.06 20.6948C1481.44 20.6948 1477.97 20.4543 1480.33 20.4543C1482.69 20.4543 1486.15 19.9584 1486.76 20.5746C1487.38 21.1908 1494.8 25.0382 1495.67 24.903C1496.55 24.7827 1473.15 25.0232 1474 24.903C1474.87 24.7827 1489.11 23.6706 1489.48 24.407C1489.86 25.1434 1490.59 31.9667 1489.86 32.2071C1489.12 32.4476 1473.51 33.1991 1478.71 32.7031C1483.91 32.2071 1490.1 32.2071 1491.59 32.8233C1493.07 33.4395 1500.75 38.6396 1501.61 38.5194C1502.48 38.3992 1507.68 38.1437 1504.47 38.0234C1501.25 37.9032 1473.15 39.5113 1475.11 38.6396C1477.1 37.7679 1493.43 39.0154 1493.69 39.872C1493.95 40.7437 1494.31 48.1681 1493.07 48.1681C1491.84 48.1681 1487 47.6722 1489.86 47.4317C1492.7 47.1762 1494.82 47.4317 1495.55 47.9276C1496.29 48.4236 1506.07 56.344 1508.31 56.2237C1510.54 56.1035 1512.9 56.2237 1510.54 56.1035C1508.18 55.9833 1465.96 56.7197 1465.96 56.7197C1465.96 56.7197 1460.39 56.9602 1459.03 58.944C1457.67 60.9279 1458.3 70.3361 1458.79 68.6078C1459.29 66.8794 1463.87 57.4712 1465.36 61.1834C1466.85 64.8956 1467.34 69.224 1467.58 67.3754C1467.82 65.5118 1471.18 56.7197 1473.4 59.455C1475.62 62.1753 1477.11 68.743 1477.49 67.0147C1477.86 65.2863 1479.71 55.1266 1482.94 59.455C1486.16 63.7834 1487.77 69.6147 1487.9 67.2551C1488.02 64.8956 1490.76 57.0954 1492.61 59.6955C1494.47 62.2955 1495.82 70.3512 1496.58 67.7511C1497.31 65.1511 1499.06 55.1266 1499.55 58.3429C1500.05 61.5591 1501.16 69.9754 1499.93 70.3512C1498.69 70.7269 1453.62 69.4795 1458.69 70.8471C1463.77 72.2148 1513.29 71.0876 1513.29 71.0876C1513.29 71.0876 1518.32 70.8621 1517.12 71.1627C1515.92 71.4633 1514.57 70.8621 1514.42 69.0586C1514.26 67.2551 1513.81 62.7464 1514.72 62.4458C1515.62 62.1452 1521.93 61.2435 1519.07 62.4458C1516.22 63.6481 1510.07 64.8505 1510.37 63.6481C1510.67 62.4458 1513.98 62.4458 1513.98 60.6423C1513.98 58.8388 1513.53 55.2318 1514.43 54.6307C1515.33 54.0295 1533.8 53.4283 1527.94 54.1798C1522.08 54.9312 1509.32 54.7809 1510.07 54.0295C1510.82 53.278 1513.98 51.6248 1514.43 51.4745C1514.88 51.3242 1525.99 49.671 1521.79 50.8734C1517.59 52.0757 1514.13 52.5266 1514.13 49.5207C1514.13 46.5149 1513.23 37.5124 1513.98 37.3621C1514.73 37.2119 1519.39 37.2119 1519.39 37.2119C1519.39 37.2119 1519.24 43.8247 1518.64 41.1194C1518.04 38.4142 1518.94 31.5158 1518.34 31.5158C1517.74 31.5158 1515.03 31.8164 1516.08 31.2152C1517.14 30.6141 1519.54 31.0649 1519.54 30.0129C1519.54 28.9608 1518.64 27.0071 1519.69 26.5562C1520.74 26.1053 1544.91 26.4059 1544.91 26.4059C1544.91 26.4059 1544.31 24.6024 1544.31 25.955C1544.31 27.3076 1545.66 29.562 1544.31 30.0129C1542.96 30.4638 1521.63 31.6661 1526.44 30.3135C1531.25 28.9608 1547.31 29.8626 1548.07 30.3135C1548.82 30.7643 1550.17 30.9146 1549.57 31.2152C1548.97 31.5158 1545.81 32.117 1545.81 32.117C1545.81 32.117 1546.71 40.368 1546.11 40.368C1545.51 40.368 1519.54 40.0674 1521.93 38.4142C1524.33 36.761 1550.46 35.8592 1550.61 36.761C1550.76 37.6627 1550.91 51.1739 1550.46 51.3242C1550 51.4745 1526.12 52.0757 1530.48 50.8734C1534.84 49.671 1552.56 50.8734 1553.16 51.4745C1553.76 52.0757 1555.87 54.1798 1555.26 54.1798C1554.66 54.1798 1541.15 54.3301 1543.86 54.1798C1546.56 54.0295 1551.67 55.5324 1551.52 56.1336C1551.37 56.7347 1551.22 61.6944 1551.22 61.6944C1551.22 61.6944 1525.25 61.8446 1531.25 61.8446C1537.24 61.8446 1552.42 60.6423 1553.63 61.6944C1554.83 62.7464 1556.03 63.9487 1556.03 63.9487C1556.03 63.9487 1531.4 65.4516 1532.45 64.3996C1533.5 63.3476 1551.37 65.0008 1551.67 65.7522C1551.97 66.5037 1552.27 70.7119 1552.27 70.7119C1552.27 70.7119 1516.99 72.5154 1520.74 70.8621C1524.5 69.2089 1550.32 71.4633 1554.08 71.0124C1557.83 70.5616 1560.24 70.8621 1560.24 70.8621C1560.24 70.8621 1564.75 71.1477 1563.2 71.2679C1561.65 71.4032 1561.4 71.7789 1561.4 69.8402C1561.4 67.9014 1561.79 50.4525 1561.79 50.4525C1561.79 50.4525 1567.86 49.671 1565.92 50.4525C1563.98 51.2341 1558.68 50.9635 1559.2 49.9416C1559.71 48.9045 1560.36 49.5508 1560.36 48.7843C1560.36 48.0028 1559.58 46.5901 1559.58 46.5901C1559.58 46.5901 1557.5 47.4918 1557.25 46.4548C1556.99 45.4178 1556.99 44.6513 1556.47 44.516C1555.96 44.3808 1554.92 44.6513 1554.92 44.005C1554.92 43.3588 1554.66 42.8478 1555.43 42.8478C1556.21 42.8478 1558.92 43.6293 1559.05 43.1033C1559.19 42.5923 1559.31 39.7368 1560.09 40.5183C1560.87 41.2998 1559.05 42.2015 1561.13 42.7125C1563.2 43.2235 1568.37 43.7495 1568.37 43.2235C1568.37 42.7125 1569.53 39.4662 1569.92 40.5032C1570.31 41.5403 1569.53 42.953 1570.95 42.442C1572.38 41.931 1572.38 34.8072 1574.32 37.3922C1576.26 39.9772 1577.55 43.3438 1577.94 42.6975C1578.33 42.0512 1579.75 39.0755 1580.02 40.368C1580.27 41.6605 1578.08 42.953 1581.05 43.2085C1584.03 43.464 1589.34 44.1102 1589.46 43.0732C1589.59 42.0362 1589.71 39.842 1590.36 40.7437C1591 41.6455 1591.79 43.464 1591.79 43.464H1592.69C1592.69 43.464 1593.08 45.012 1592.69 45.2675C1592.3 45.523 1590.49 45.7785 1590.49 45.7785C1590.49 45.7785 1590.75 46.9357 1590.36 47.071C1589.97 47.2063 1589.06 47.4617 1589.06 47.4617L1588.42 49.7913C1588.42 49.7913 1592.04 49.9265 1590.75 50.4375C1589.46 50.9485 1588.81 50.5728 1588.55 51.0838C1588.3 51.5948 1588.04 69.9604 1588.69 70.0957C1589.34 70.2309 1590.88 70.4864 1590.12 70.2309C1589.34 69.9754 1585.85 71.2679 1585.59 69.5847C1585.34 67.9014 1585.98 50.8433 1584.95 50.8433C1583.91 50.8433 1566.21 51.6248 1565.68 51.6248C1565.17 51.6248 1565.68 70.7569 1565.68 70.7569C1568.13 70.2459 1596.58 70.7569 1596.58 70.7569" stroke="#E5E5E5" stroke-width="0.983653" stroke-miterlimit="10" stroke-linecap="round" stroke-linejoin="round"/>
</g>
<defs>
<clipPath id="clip0_5110_1863">
<rect width="335" height="72.4856" fill="white" transform="translate(-70)"/>
</clipPath>
<clipPath id="clip1_5110_1863">
<rect width="335" height="72.4856" fill="white" transform="translate(596)"/>
</clipPath>
<clipPath id="clip2_5110_1863">
<rect width="335" height="72.4856" fill="white" transform="translate(263)"/>
</clipPath>
<clipPath id="clip3_5110_1863">
<rect width="335" height="72.4856" fill="white" transform="translate(929)"/>
</clipPath>
<clipPath id="clip4_5110_1863">
<rect width="335" height="72.4856" fill="white" transform="translate(1262)"/>
</clipPath>
</defs>
</svg>
