<svg width="344" height="144" viewBox="0 0 344 144" fill="none" xmlns="http://www.w3.org/2000/svg">
<g clip-path="url(#clip0_5110_666)">
<path d="M382.231 138.776C369.193 138.907 310.952 138.768 313.881 138.768C317.165 138.768 320.921 135.955 310.828 127.036C300.735 118.118 285.015 111.077 285.015 107.793C285.015 104.508 313.177 124.215 314.113 121.17C315.048 118.118 312.706 108.967 313.881 111.549C315.055 114.13 317.165 135.02 320.45 127.74C323.734 120.467 321.625 97.2357 317.165 85.2644C312.706 73.2932 303.161 57.3109 297.844 55.7961C292.527 54.2891 277.04 93.0083 280.324 94.1752C283.609 95.35 261.32 80.0941 261.32 78.6876C261.32 77.281 257.332 85.96 255.926 85.7281C254.519 85.4963 243.722 76.1063 246.536 73.0536C249.349 70.0009 257.093 78.6876 256.861 76.57C256.629 74.4601 254.983 68.5943 256.861 70.2327C258.739 71.8789 260.849 78.6798 259.21 76.8018C257.564 74.9239 250.292 52.1638 249.588 52.6352C248.885 53.1066 226.828 60.8505 227.763 61.7856C228.706 62.7285 240.902 97.9235 243.251 97.9235C245.6 97.9235 258.739 94.639 259.21 92.761C259.682 90.883 255.222 85.9523 258.275 89.005C261.328 92.0577 280.1 109.887 285.263 106.602C290.425 103.318 301.222 78.6798 301.454 73.0459C301.685 67.4119 299.962 66.3299 298.169 64.1273C296.376 61.9247 299.916 53.8795 296.345 54.0727C292.775 54.2659 289.954 51.2209 289.25 46.9935C288.547 42.766 291.832 31.9772 287.141 26.8147C282.449 21.6521 271.181 20.4774 269.072 22.5872C266.962 24.6971 252.409 30.8025 253.584 37.3716C254.759 43.9408 269.072 33.1442 269.072 34.0871C269.072 35.0299 268.84 39.9529 272.588 40.1925C276.344 40.4243 277.573 41.1817 278.833 41.0349C280.092 40.8958 280.564 35.0299 283.848 37.6112C287.133 40.1925 284.32 45.5869 286.198 46.2902C288.076 46.9935 290.186 22.8268 277.279 26.3432C264.373 29.8596 258.978 34.3189 258.267 38.0749C257.564 41.8309 265.779 60.835 273.755 60.1317C281.731 59.4284 286.43 52.6197 284.783 52.156C283.137 51.6846 276.808 57.5504 280.556 61.3064C284.312 65.0624 284.312 67.1723 285.015 65.9976C285.719 64.8229 293.934 60.835 291.584 55.201C289.235 49.567 283.369 64.8229 281.963 71.6238C280.556 78.4325 279.149 84.5302 276.8 85.2335C274.451 85.9368 262.719 76.5545 262.719 76.5545C262.719 76.5545 257.788 65.0547 257.788 68.8107C257.788 72.5667 260.841 79.6072 266.235 82.1885C271.63 84.7698 281.252 99.0828 283.833 92.2818C286.414 85.4731 289.467 69.7536 294.158 73.0381C298.849 76.3227 307.064 79.1358 302.134 88.0544C297.203 96.9729 292.512 93.4488 298.849 98.8509C305.186 104.245 308.942 104.956 302.373 105.891C295.804 106.827 293.926 106.363 293.694 107.066C293.462 107.769 282.032 109.609 284.111 112.213C286.19 114.81 314.344 129.834 312.706 135.932C311.06 142.037 310.357 143.676 301.678 144.379C292.991 145.082 239.255 133.35 232.686 123.497C226.117 113.643 226.349 104.956 237.377 103.55C248.406 102.143 281.027 113.875 283.369 115.05C285.719 116.224 271.398 113.172 275.857 115.992C280.316 118.806 303.548 127.253 297.682 127.724C291.816 128.196 280.788 125.614 287.828 129.602C294.869 133.59 308.247 135.939 298.153 139.224C288.06 142.509 266.096 141.782 263.7 140.151C261.305 138.521 266.003 132.415 257.317 131.712C248.63 131.009 234.317 131.712 235.02 139.688C235.724 147.663 263.414 142.74 260.362 140.862C257.309 138.984 215.777 139.688 215.777 139.688C215.777 139.688 207.16 131.271 211.256 131.271C215.352 131.271 219.788 141.512 212.276 142.532C204.764 143.552 188.387 137.416 188.387 135.708C188.387 134 189.407 130.591 194.531 129.564C199.648 128.543 225.252 127.175 227.3 116.595C229.348 106.015 223.204 101.239 211.256 102.259C199.307 103.279 151.523 124.447 151.523 127.175C151.523 129.904 154.599 135.368 156.639 135.368C158.687 135.368 189.067 130.931 180.875 130.251C172.683 129.571 157.667 138.103 147.427 140.151C137.187 142.199 121.49 141.519 125.239 136.055C128.995 130.591 150.495 127.183 148.107 126.495C145.719 125.815 115.339 126.155 110.222 112.499C105.106 98.8509 111.93 93.3869 126.607 95.0949C141.283 96.8029 166.539 111.479 175.071 111.479C183.603 111.479 197.599 104.995 197.259 101.579C196.919 98.1631 195.551 82.1267 194.871 83.8269C194.191 85.5349 175.419 95.0872 173.711 94.7471C172.003 94.4071 169.955 51.7387 171.323 55.1546C172.691 58.5706 174.399 94.067 170.303 94.4071C166.207 94.7471 146.754 90.6511 146.754 88.6031C146.754 86.5551 145.046 78.0229 146.414 77.3428C147.782 76.6627 164.847 63.6868 157.335 61.9865C149.823 60.2786 145.727 65.7425 145.046 63.3545C144.366 60.9664 141.971 43.5543 145.387 44.5822C148.802 45.6024 169.275 54.4823 172.011 53.7945C174.739 53.1144 193.511 43.2143 193.511 43.2143C193.511 43.2143 194.531 56.8703 194.191 58.2305C193.851 59.5985 184.979 52.4265 183.271 58.5706C181.563 64.7147 194.879 74.6147 197.267 73.9269C199.655 73.2468 202.383 55.8347 198.635 60.2708C194.879 64.7069 194.879 74.607 197.955 76.9951C201.023 79.3831 217.407 89.9633 220.823 83.8192C224.239 77.6751 207.167 43.2066 200.003 39.4506C192.839 35.6946 183.279 39.1105 183.279 39.1105C183.279 39.1105 180.203 49.0106 170.651 48.3228C161.091 47.6427 160.411 40.1307 160.411 40.1307C160.411 40.1307 163.486 31.2585 163.826 32.9665C164.167 34.6744 168.603 43.2066 175.775 41.8386C182.939 40.4707 186.355 28.8704 186.355 19.3104C186.355 9.75039 183.627 7.36232 183.627 7.36232C183.627 7.36232 182.259 15.5544 174.414 16.5746C166.562 17.5947 162.126 23.3987 162.126 23.3987C162.126 23.3987 160.418 16.9146 159.058 21.0106C157.69 25.1067 160.766 29.5428 160.766 29.5428C160.766 29.5428 154.962 27.4948 156.67 14.5265C158.378 1.55831 168.618 -1.85764 177.15 0.87821C185.682 3.60633 184.144 5.14428 184.144 5.14428C184.144 5.14428 186.872 4.46418 187.9 7.53235C188.921 10.6082 187.56 21.6985 187.22 20.5006C186.88 19.3027 189.098 18.7926 188.418 22.8886C187.738 26.9847 186.37 28.3526 186.37 28.3526C186.37 28.3526 186.03 38.4227 179.716 42.0009C173.402 45.5869 163.842 45.0768 161.972 42.341C160.094 39.6129 161.292 38.585 157.536 39.6129C153.78 40.633 143.879 39.4428 139.783 45.7569C135.687 52.071 122.379 85.0094 129.203 88.0776C136.027 91.1457 146.268 79.3754 145.077 78.0075C143.879 76.6395 140.811 72.0334 142.179 68.6175C143.547 65.2015 133.477 74.0815 132.109 78.1775C130.741 82.2735 144.737 85.0017 146.275 89.9555C147.813 94.9017 176.826 98.3177 170.512 99.6856C164.197 101.054 145.085 97.1275 151.569 99.1755C158.053 101.224 172.049 104.122 171.709 105.32C171.369 106.517 174.438 113.852 168.123 114.702C161.809 115.552 130.749 98.3177 128.021 99.3455C125.293 100.366 161.129 114.702 156.863 117.09C152.597 119.478 147.651 119.818 148.841 121.696C150.039 123.574 151.917 124.254 149.011 125.452C146.113 126.65 113.515 125.622 115.223 127.5C116.931 129.378 122.387 130.398 118.809 131.596C115.223 132.794 98.4984 131.086 98.4984 131.086C98.4984 131.086 110.323 140.19 104.241 142.215C98.1584 144.24 76.1325 138.443 77.454 134.463C78.7756 130.491 81.9288 130.159 84.5719 130.653C87.2227 131.148 102.123 133.134 97.3237 133.304C92.5244 133.466 82.0911 128.999 85.9012 129.332C89.7113 129.664 94.5106 131.318 100.477 127.345C106.435 123.373 109.086 115.421 108.422 115.753C107.757 116.085 86.0635 131.982 64.3776 134.633C42.6918 137.284 20.3336 139.433 25.4652 128.172C30.5969 116.912 51.7958 110.127 56.7574 108.635C61.7268 107.143 97.1614 100.358 104.774 101.015C112.394 101.68 120.509 109.794 102.788 118.404C85.0665 127.013 51.9504 135.623 49.2996 132.477C46.6487 129.332 63.0406 116.418 54.2689 120.22C45.4972 124.03 33.24 135.623 33.9046 131.642C34.5693 127.67 39.3686 121.541 36.0531 124.192C32.7454 126.843 24.2982 134.626 22.4743 128.667C20.6504 122.708 18.8497 115.877 24.9551 87.4361C29.3758 66.8709 32.243 55.8116 38.8662 52.3338C45.4895 48.856 51.448 87.1038 51.7804 85.7822C52.1127 84.4607 45.3194 83.9583 41.5171 84.623C37.707 85.2876 33.5723 74.8543 35.0561 76.8405C36.5477 78.8267 39.6932 101.347 44.4925 102.839C49.2918 104.33 80.0972 102.676 80.4217 101.68C80.7541 100.683 90.0281 102.839 93.5059 100.188C96.9837 97.5371 104.766 101.015 103.112 98.8664C101.458 96.7102 90.1982 93.0701 86.5504 94.0671C82.9103 95.064 79.2625 97.7071 80.0894 99.0364C80.9164 100.358 107.912 101.023 108.406 99.3687C108.901 97.7148 108.406 95.7287 106.42 95.7287C104.434 95.7287 83.5672 95.7286 79.4325 96.7256C75.2901 97.7226 52.9396 93.5802 51.2857 94.2448C49.6319 94.9094 51.4558 84.3061 49.1373 80.1714C46.8187 76.029 38.0393 78.5175 35.8908 73.3859C33.7346 68.2543 37.877 53.0216 42.1817 50.5331C46.4864 48.0523 43.6733 43.4152 43.341 35.9573C43.0086 28.5072 49.1373 25.3617 47.808 23.3755C46.4864 21.3893 41.6794 24.3725 42.1817 27.3479C42.6763 30.3311 45.1649 26.6833 43.341 28.0126C41.5171 29.3341 43.341 36.792 41.6871 41.429C40.0332 46.0661 31.7484 49.0492 33.7346 48.5469C35.7208 48.0523 35.2262 45.4014 34.7316 35.3004C34.2369 25.1994 36.3854 20.8947 42.1817 19.2408C47.978 17.587 46.981 25.8641 46.6564 24.2102C46.3241 22.5563 48.6426 19.9055 57.5844 19.4109C66.5261 18.9163 79.1079 36.6297 76.7894 38.1213C74.4709 39.6129 59.9029 44.9145 60.7298 41.9314C61.5568 38.9482 65.4982 35.9728 62.6156 37.2944C59.7329 38.6159 54.2689 42.5883 54.7712 40.1075C55.2659 37.6267 57.9167 35.3082 55.7682 36.2974C53.612 37.2943 52.4527 40.2698 52.2904 38.9482C52.1281 37.6267 50.1342 31.9927 48.6504 34.9758C47.1588 37.959 50.4743 43.423 48.8127 43.0906C47.1588 42.7583 42.5218 39.2805 45.9995 33.6543C49.4773 28.0203 62.0591 25.3772 67.5231 31.1735C72.987 36.9698 72.4229 41.4909 68.35 46.2438C64.2772 50.9968 60.5675 56.3448 56.7574 55.0233C52.9473 53.7017 51.0307 51.2518 51.4094 49.9071C51.7881 48.5623 51.6258 53.1994 51.6258 53.1994C51.6258 53.1994 49.9719 55.0233 50.6288 58.8334C51.2935 62.6435 50.7911 66.4535 49.4696 63.965C48.148 61.4842 43.8356 54.1963 45.9918 53.864C48.1403 53.5317 51.7881 57.5041 53.1096 59.498C54.4312 61.4842 59.5706 73.5714 59.9029 77.0492C60.2352 80.5269 55.4282 83.1778 53.442 90.4656C51.4558 97.7535 53.9366 106.193 50.7911 106.525C47.6457 106.858 22.9689 105.366 27.1114 107.352C31.2538 109.338 43.6733 109.338 36.7177 111.162C29.7622 112.986 23.3013 114.972 26.2844 115.962C29.2676 116.951 31.9107 113.481 27.4437 118.28C22.9689 123.079 18.8343 138.32 23.8036 136.001C28.773 133.683 -33 133.845 -33 133.845" stroke="#525252" stroke-miterlimit="10" stroke-linecap="round" stroke-linejoin="round"/>
</g>
<defs>
<clipPath id="clip0_5110_666">
<rect width="344" height="144" fill="white"/>
</clipPath>
</defs>
</svg>
