<svg width="328" height="133" viewBox="0 0 328 133" fill="none" xmlns="http://www.w3.org/2000/svg">
<g clip-path="url(#clip0_5110_668)">
<path d="M397.514 129.975C390.462 129.888 306.542 130.122 307.374 130.434C308.924 131.015 314.267 131.932 314.267 122.791C314.267 113.65 313.448 105.581 311.01 105.581C308.572 105.581 294.815 107.561 294.815 107.561C294.815 107.561 298.804 110.205 298.804 113.726C298.804 117.248 298.185 119.29 297.159 119.29C296.134 119.29 301.919 117.916 303.452 118.795C304.986 119.675 306.452 120.758 305.906 124.183C305.361 127.608 304.356 129.445 303.025 130.773C301.696 132.102 279.364 133.505 279.364 131.519C279.364 129.534 284.759 128.343 284.759 125.266C284.759 122.189 280.464 119.728 281.149 119.043C281.835 118.358 287.571 113.579 289.119 114.265C290.665 114.953 298.531 130.434 296.582 128.485C294.633 126.536 290.523 116.59 287.783 111.597C285.041 106.606 275.255 98.8148 276.651 101.061C278.045 103.307 280.021 103.558 286.504 103.558C292.987 103.558 301.966 97.3175 301.596 88.8203C301.227 80.3232 292.014 73.8376 289.904 70.5585C287.794 67.2794 284.073 62.514 285.48 64.3709C286.888 66.2293 288.722 72.3389 286.294 72.4401C283.865 72.5413 272.343 67.6473 271.405 63.9539C270.467 60.2619 277.031 69.8734 280.887 67.6322C284.743 65.3924 285.231 62.1448 283.48 58.7536C281.728 55.3624 273.645 42.7343 269.979 40.3496C266.312 37.9661 258.619 36.4032 258.619 37.4055C258.619 39.767 257.563 45.6743 252.977 49.3827C248.389 53.0925 246.144 47.0294 247.609 45.4445C249.075 43.8583 246.629 43.0393 246.629 41.1796C246.629 39.3199 248.233 35.4337 248.233 36.4018C248.233 37.37 245.532 44.4518 241.146 42.9476C236.758 41.4421 229.416 31.527 230.063 28.9904C230.71 26.4539 237.716 26.7192 250.127 27.0282C262.538 27.3386 272.756 25.829 270.659 23.7313C268.561 21.6324 255.897 23.0572 254.773 21.9332C253.649 20.8092 254.503 15.4202 246.395 12.9069C238.288 10.3936 232.896 11.735 231.023 16.3118C229.148 20.8885 230.023 23.7313 230.023 22.6825C230.023 21.6337 214.61 17.887 214.61 22.3831C214.61 26.8791 224.351 27.4781 226.3 27.4781C228.248 27.4781 215.702 23.101 219.556 23.5809C223.409 24.0623 222.424 26.298 232.08 26.298C241.735 26.298 248.05 23.3416 248.929 24.2195C249.808 25.0988 246.081 28.3765 249.677 31.9741C253.273 35.5704 252.33 35.8685 258.72 35.8685C265.11 35.8685 270.656 40.8158 270.656 38.5678C270.656 36.3198 266.846 31.594 261.366 29.5757C255.884 27.5587 252.223 27.9279 252.223 27.9279C252.223 27.9279 253.258 32.0466 254.27 37.9867C255.282 43.9253 257.337 44.9659 254.031 46.9378C250.724 48.9082 246.592 44.5885 245.569 49.0942C244.545 53.5998 240.857 68.5169 239.635 69.738C238.719 70.6542 243.629 76.3372 246.141 77.546C246.979 77.9494 247.551 77.855 247.551 76.9211C247.551 73.1853 238.087 67.6924 237.403 70.0731C236.719 72.4537 234.689 73.9346 234.689 74.9848C234.689 76.035 243.22 87.4324 245.003 84.4241C246.785 81.4144 245.778 78.4307 244.131 80.0798C242.482 81.7276 240.787 84.1602 234.54 87.5733C228.292 90.985 218.656 94.4664 218.656 94.4664C218.656 94.4664 210.702 100.136 207.901 97.3352C205.101 94.5348 205.519 90.8728 207.417 88.9735C209.316 87.0755 211.969 83.3657 213.41 86.8239C214.852 90.2821 214.683 95.44 213.261 94.0179C211.838 92.5944 211.763 88.4252 213.86 81.7289C215.958 75.0341 223.945 61.9055 222.103 63.746C220.261 65.5879 213.968 78.4293 214.172 74.8371C214.376 71.2422 214.759 52.2939 214.262 54.8647C213.767 57.4354 209.662 80.7006 209.583 80.0921C209.504 79.4836 202.716 56.2471 202.716 59.4729C202.716 62.6986 206.594 85.1242 205.319 79.5643C204.044 74.003 196.476 63.4479 199.174 68.9928C201.871 74.5377 209.364 88.1872 209.364 93.1209C209.364 98.0545 207.779 128.354 208.315 125.791C208.851 123.227 212.363 113.746 212.363 116.981C212.363 120.216 210.54 130.939 212.215 127.745C213.89 124.551 215.265 112.474 215.958 117.848C216.651 123.222 216.257 132.385 216.257 125.942C216.257 119.498 214.413 93.4969 214.804 90.6978C215.192 87.8987 214.882 85.7478 215.459 86.3248C216.036 86.9018 216.709 87.8768 222.253 85.1789C227.798 82.4824 235.444 76.4015 237.295 74.55C239.145 72.6999 250.212 74.1986 250.127 71.394C250.043 68.5908 249.078 56.1705 249.078 58.5034C249.078 60.8362 249.454 64.211 251.926 69.2936C254.397 74.375 257.233 75.6945 258.485 74.6676C259.736 73.6393 257.772 54.5652 257.772 59.6807C257.772 64.7962 258.877 75.499 258.088 78.8861C257.298 82.2731 264.918 86.3645 267.231 84.0535C269.541 81.7426 272.159 79.9321 271.409 82.3306C270.66 84.729 272.872 87.1234 268.095 87.1234C263.317 87.1234 257.611 81.9586 256.916 83.2249C256.221 84.4911 255.685 87.6293 252.93 90.7238C250.177 93.8182 243.384 100.463 240.838 100.463C238.292 100.463 236.492 98.8148 236.492 100.463C236.492 101.287 236.472 103.025 236.579 104.557C236.684 106.088 236.919 107.414 237.426 107.414C238.441 107.414 242.936 105.258 238.889 103.609C234.843 101.961 234.693 102.41 229.599 104.658C224.504 106.906 219.996 110.732 214.469 107.944C208.943 105.157 206.348 102.511 207.034 104.41C207.718 106.308 211.615 113.651 219.707 112.602C227.801 111.554 231.352 105.261 233.945 104.509C236.538 103.757 234.701 107.524 235.656 108.48C236.611 109.435 242.999 111.491 245.334 109.154C247.67 106.818 245.755 104.617 248.973 103.508C252.192 102.4 262.207 94.0329 264.788 90.1467C267.371 86.2605 268.431 82.135 268.87 79.7489C269.308 77.3614 268.988 64.3504 268.988 57.4546C268.988 50.5587 269.261 48.2614 266.027 45.0261C262.792 41.7908 260.771 41.4161 258.822 43.3647C256.875 45.3133 258.67 53.6203 256.723 58.3078C254.777 62.9967 253.428 67.6418 251.929 63.746C250.43 59.8489 250.656 51.0797 250.544 55.465C250.43 59.8489 250.857 65.1736 253.428 69.4413C255.997 73.709 256.268 75.1038 259.388 78.2229C262.509 81.3433 267.075 86.05 272.919 85.1981C278.762 84.3462 287.105 80.1728 280.987 81.9956C274.869 83.8183 256.092 97.1616 256.276 101.51C256.462 105.86 280.854 121.592 277.106 117.845C273.359 114.098 260.447 104.831 259.722 107.655C258.997 110.48 255.751 121.817 257.773 123.841C259.797 125.864 284.244 123.795 279.649 125.764C275.055 127.734 241.813 122.416 244.436 125.039C247.058 127.662 255.076 128.036 248.781 128.036C242.487 128.036 204.033 129.26 203.449 128.676C202.865 128.094 204.496 120.918 202.325 123.091C200.151 125.263 197.829 127.587 196.929 126.688C196.029 125.788 194.38 122.042 194.38 123.99C194.38 125.939 193.115 130.833 195.021 128.76C197.539 126.025 154.067 128.758 143.65 128.758C143.65 128.758 151.878 121.831 146.463 124.853C141.047 127.874 137.192 126.268 137.192 126.268C137.192 126.268 131.468 133.8 131.468 128.075C131.468 122.349 136.57 114.838 133.276 118.132C129.98 121.428 122.87 127.361 122.87 125.726C122.87 124.09 127.31 114.597 122.87 119.036C118.432 123.475 110.835 128.698 111.884 123.856C112.934 119.014 122.429 101.666 128.456 91.2188C134.48 80.7717 135.243 76.9812 135.243 76.9812C135.243 76.9812 132.727 83.1538 146.835 83.1538C160.943 83.1538 162.429 85.369 162.143 81.3789C161.859 77.3887 162.098 74.967 164.108 62.6548C166.117 50.3426 182.295 46.8831 182.295 45.264C182.295 43.645 169.835 44.5147 172.366 42.6495C174.897 40.7858 181.994 31.3164 179.932 32.1245C177.869 32.9313 164.912 47.631 167.622 40.7023C170.334 33.7723 175.936 23.9734 172.717 26.8969C169.499 29.8205 159.691 47.8662 162.199 36.7847C164.707 25.7032 169.222 13.4101 164.711 17.9198C160.2 22.4309 151.956 48.2327 151.956 40.3988C151.956 32.5649 157.376 17.6682 154.627 20.4181C151.875 23.1693 148.04 40.701 146.835 35.8795C145.63 31.0593 143.143 22.234 142.701 27.8828C142.258 33.5302 140.809 44.9181 140.809 42.5087C140.809 40.0993 137.628 22.8986 137.628 30.5944C137.628 38.2902 133.958 76.0022 138.399 70.2276C142.842 64.453 146.233 45.5813 146.233 52.752C146.233 59.9227 141.112 78.0601 144.728 69.6246C148.343 61.189 155.701 46.1365 155.439 52.7561C155.176 59.3771 148.816 76.329 152.863 69.3237C156.91 62.3184 161.464 50.5751 160.542 57.5147C159.62 64.4544 153.954 64.4133 151.959 86.1963C149.964 107.979 151.843 121.277 151.843 115.959C151.843 110.642 143.318 86.4287 143.318 97.461C143.318 108.493 139.908 129.281 139.908 113.013C139.908 96.7445 138.703 78.9667 136.593 84.3899C136.593 84.3899 142.049 86.0636 142.049 89.4822C142.049 92.9007 138.801 95.2937 132.82 91.8751C126.839 88.4566 124.787 85.8927 124.787 84.0139C124.787 82.135 129.658 77.0906 127.864 78.8861C126.069 80.6801 125.3 82.3046 123.079 82.3046C120.858 82.3046 106.329 70.3411 105.646 69.6574C104.962 68.9737 112.14 69.3155 114.191 65.8983C116.242 62.4812 117.438 59.9173 116.413 59.9173C115.387 59.9173 116.499 57.9509 113.678 60.7719C110.858 63.5915 107.434 66.753 105.599 66.753C103.764 66.753 103.338 69.0598 104.107 68.2913C104.877 67.5228 107.526 67.6076 102.74 62.823C97.9554 58.0384 93.6822 47.9537 92.8276 42.6564C91.973 37.3576 98.382 27.1895 103.253 32.0603C108.123 36.931 108.951 50.1006 112.141 57.0129C115.33 63.9252 116.927 69.831 122.395 72.9077C127.864 75.9844 131.527 77.5337 132.515 77.5337C133.504 77.5337 134.787 74.2943 134.787 72.4893C134.787 70.6843 127.174 66.2238 125.13 64.1795C123.084 62.1338 124.446 59.5768 123.764 59.5768C123.082 59.5768 115.901 60.6023 118.123 62.8244C120.345 65.0464 125.131 61.457 123.422 57.0129C121.713 52.5688 120.176 48.0932 120.176 46.9296C120.176 45.7659 119.448 40.299 117.946 38.7948C116.443 37.2906 115.525 41.7375 111.273 40.4494C107.019 39.1613 104.453 32.744 104.453 29.4964C104.453 26.2488 107.444 25.8221 108.385 24.8827C109.325 23.9419 113.084 18.3027 115.562 15.8236C118.041 13.3458 118.21 12.3175 117.272 11.3781C116.333 10.4387 104.795 -4.51399 103.942 1.80894C103.087 8.13324 112.316 18.0456 118.981 21.806C125.647 25.5651 129.582 25.8495 131.803 30.8351C134.021 35.8207 137.507 40.3167 138.636 37.8718C139.764 35.4269 136.764 28.9262 136.764 27.9307C136.764 26.9352 141.871 20.8365 140.169 15.8523C138.465 10.8667 131.971 5.5707 127.014 5.5707C122.057 5.5707 120.006 10.0107 120.006 11.3795C120.006 12.7483 123.083 14.4575 128.382 18.0456C133.68 21.6351 135.458 27.5669 134.959 28.0674C134.459 28.5665 133.641 23.4661 129.731 23.4661C125.822 23.4661 125.706 26.2023 124.109 26.9338C122.51 27.6654 123.805 20.6164 119.835 24.0281C115.866 27.4398 116.589 28.6431 114.538 28.6431C112.487 28.6431 109.581 26.592 110.949 25.2259C112.316 23.8585 116.009 18.3752 122.399 20.9528C128.789 23.5303 132.654 28.3026 132.654 29.67C132.654 31.0375 128.014 39.9407 120.165 39.9407C112.316 39.9407 113.512 28.9863 112.145 28.9863C110.778 28.9863 108.897 30.1828 107.872 30.1828C106.846 30.1828 104.966 25.3982 103.6 25.3982C102.234 25.3982 98.6432 21.2973 83.0902 24.8868C67.5372 28.4749 64.291 30.0133 56.7702 34.7992C49.2494 39.5838 44.123 44.3698 42.4137 50.009C40.7044 55.6496 42.6708 84.9601 44.9776 87.267C47.2845 89.5738 53.1807 92.2238 50.9587 92.2238C48.7366 92.2238 44.9776 90.0018 44.123 90.0018C43.2684 90.0018 34.7234 97.5226 34.7234 99.7433C34.7234 100.222 35.2539 100.843 36.0881 101.522C39.1237 104.001 46.1741 107.263 46.1741 107.263C46.1741 107.263 32.4247 118.655 34.7234 120.953C37.022 123.252 45.4904 127.6 41.5591 128.969C37.6278 130.336 24.785 128.285 24.0288 126.065C23.2726 123.843 30.3654 105.127 32.3304 103.162C34.2967 101.195 44.2939 106.58 47.7125 105.213C51.131 103.845 55.6599 96.069 57.6248 94.1054C59.5912 92.139 62.5817 71.7153 62.5817 67.2726C62.5817 62.8299 57.6248 53.258 57.6248 56.6765C57.6248 60.095 61.9828 65.1367 63.4364 66.5889C64.8886 68.0411 74.8871 64.3668 72.1523 67.1017C69.4188 69.8365 63.9491 71.5458 64.9733 71.5458C65.9975 71.5458 75.2276 69.4946 72.836 71.8876C70.443 74.2806 65.6584 71.5458 66.513 73.9387C67.3677 76.3304 78.9032 92.3934 80.5072 93.996C82.1098 95.5986 91.3945 91.8232 87.5343 93.0798C83.6755 94.3351 80.8695 92.3961 80.8695 96.4984C80.8695 100.601 78.9893 101.455 79.844 102.31C80.6986 103.165 95.747 101.075 94.4097 102.41C93.0724 103.747 87.0694 116.542 89.4145 118.887C91.7596 121.234 102.233 124.186 99.6688 126.748C97.1062 129.312 79.4392 130.163 78.5463 126.122C77.6534 122.08 78.9497 107.167 80.5099 104.84C82.0701 102.514 82.855 101.108 87.3319 101.108C91.8089 101.108 93.2433 100.722 93.8983 100.067C94.5533 99.4137 98.5475 85.0039 97.5999 81.9532C96.6523 78.9038 83.7767 65.0273 81.2128 64.185C78.6489 63.3426 59.1659 56.1637 66.3435 58.8985C73.5224 61.6334 76.77 63.3426 80.5291 61.2902C84.2894 59.239 92.1507 54.6254 92.1507 53.5998C92.1507 52.5742 92.4926 48.6429 92.4926 48.6429C92.4926 48.6429 87.9637 51.9767 81.3837 45.3967C74.8037 38.8167 75.7431 35.6552 82.922 31.553C90.0996 27.4521 100.013 26.5975 100.013 26.5975C100.013 26.5975 84.2894 24.7173 78.4779 28.6486C72.6664 32.5799 70.1039 40.2702 73.8629 48.3024C77.6233 56.336 88.0485 61.8043 78.307 57.1906C68.5655 52.5756 64.1214 47.7897 65.3179 50.5245C66.5144 53.2593 74.2048 58.2148 68.7365 56.1651C63.2668 54.114 57.4567 50.3536 55.5765 52.2338C53.6963 54.114 55.0637 60.4369 56.2602 66.0775C57.4567 71.7181 57.6276 77.6937 56.4311 83.1661C55.2346 88.6385 50.8767 96.7554 47.8861 99.7473C44.8956 102.738 43.442 106.412 38.9993 110.856C34.5552 115.3 29.4547 120.629 32.8459 123.333C36.2371 126.037 39.9469 125.08 35.7982 126.002C31.6494 126.923 21.908 127.093 21.908 127.093C21.908 127.093 20.8824 117.693 20.1987 120.94C19.515 124.187 20.5405 126.922 19.3441 125.726C18.1476 124.529 14.3885 121.281 14.3885 123.847C14.3885 126.412 18.1489 129.315 14.3885 127.778C10.6281 126.24 3.10873 122.479 5.33078 124.701C7.55283 126.923 10.7143 130.083 9.2621 128.633C7.8099 127.179 -30.4941 128.017 -30.4941 128.017" stroke="#525252" stroke-linecap="round" stroke-linejoin="round"/>
</g>
<defs>
<clipPath id="clip0_5110_668">
<rect width="328" height="133" fill="white"/>
</clipPath>
</defs>
</svg>
