<svg width="60" height="60" viewBox="0 0 60 60" fill="none" xmlns="http://www.w3.org/2000/svg">
<path d="M59.4656 15.6621L53.2732 4.93668C52.7396 4.01264 51.8783 3.35157 50.8476 3.07535C49.8169 2.79913 48.7404 2.94093 47.8163 3.4745C46.8922 4.00795 46.2312 4.86941 45.955 5.9001C45.8959 6.12042 45.8573 6.34284 45.8362 6.56539L44.4564 7.36204C43.7534 6.92387 42.9889 6.59316 42.1772 6.37636L33.4556 4.03865C32.4558 3.77064 31.4117 3.90799 30.5173 4.42491C29.622 4.9409 28.9813 5.77611 28.7131 6.77645C28.4451 7.77549 28.5823 8.81895 29.0993 9.71463C29.6166 10.6104 30.4519 11.251 31.4508 11.518L33.1125 11.9636L31.8276 12.7052L23.7602 8.04784C21.3703 6.66793 18.5138 6.53984 16.0247 7.67939L14.167 6.60652C14.0586 5.30888 13.3211 4.12924 12.1853 3.47415C10.2776 2.37338 7.82982 3.02918 6.7287 4.93609L5.94001 6.30136C5.69719 6.72172 5.8411 7.25927 6.26146 7.50209C6.68159 7.7449 7.21926 7.60099 7.46219 7.18075L8.25088 5.81537C8.86765 4.74754 10.2385 4.38038 11.307 4.99692C11.9964 5.39466 12.4247 6.13835 12.4247 6.93793C12.4247 7.32865 12.3214 7.71373 12.1253 8.05241L5.93286 18.7778C5.31633 19.8461 3.94544 20.2137 2.8776 19.5976C2.18688 19.1982 1.75785 18.4548 1.75785 17.6571C1.75785 17.2676 1.8618 16.882 2.05844 16.5414L5.7136 10.2108C5.9563 9.79046 5.81227 9.25291 5.39191 9.0102C4.97143 8.7675 4.434 8.91153 4.1913 9.33189L0.536262 15.6625C0.185395 16.2698 0 16.9596 0 17.6571C0 19.0805 0.765485 20.4071 1.99821 21.1196C2.62564 21.4816 3.31132 21.6536 3.98821 21.6536C4.56666 21.6536 5.13796 21.5265 5.66192 21.2866L7.04429 22.0852C7.01687 22.9152 7.1125 23.7423 7.32977 24.5511L9.66642 33.274C9.93443 34.2741 10.5757 35.1092 11.4703 35.6248C12.066 35.9697 12.7278 36.1459 13.399 36.1459C13.7357 36.1459 14.0748 36.1016 14.409 36.012C16.4714 35.4591 17.6997 33.3316 17.147 31.2695L16.7019 29.6082L18.9977 30.9336V40.7569C18.9977 43.5161 20.3151 46.054 22.5462 47.6405V49.7858C21.5069 50.5078 20.8248 51.7094 20.8248 53.0679C20.8248 55.2706 22.6169 57.0627 24.8194 57.0627H37.2043C39.407 57.0627 41.199 55.2706 41.199 53.0679C41.199 51.7244 40.5317 50.5346 39.5119 49.8101V48.2142C40.245 47.8228 40.914 47.3263 41.5054 46.7338L42.5261 45.7142C42.8695 45.3712 42.8699 44.8147 42.5269 44.4713C42.1838 44.1277 41.6274 44.1276 41.2838 44.4706L40.2623 45.4911C39.6848 46.0696 39.0155 46.5319 38.273 46.8654C37.9573 47.0072 37.7541 47.321 37.7541 47.6672V49.112C37.5743 49.0872 37.3909 49.0733 37.2044 49.0733H24.8194C24.6447 49.0733 24.4729 49.0858 24.304 49.1076V47.1704C24.304 46.8455 24.1277 46.5618 23.8653 46.4099C21.9172 45.1732 20.7555 43.0625 20.7555 40.7569V24.7291C20.7555 23.8059 21.487 23.0356 22.386 23.0121C22.8538 23.0006 23.2898 23.1737 23.6174 23.5026C23.9334 23.8186 24.1075 24.2381 24.1083 24.6845L24.1084 32.9382C24.1084 33.4236 24.502 33.8171 24.9874 33.8171C25.4728 33.8171 25.8663 33.4236 25.8663 32.9382L25.8662 22.499C25.8662 21.5745 26.6183 20.8224 27.5428 20.8224C28.4673 20.8224 29.2195 21.5745 29.2195 22.499V32.9382C29.2195 33.4236 29.613 33.8171 30.0984 33.8171C30.5839 33.8171 30.9773 33.4236 30.9773 32.9382V21.2869C30.9773 20.3624 31.7294 19.6103 32.6539 19.6103C33.5785 19.6103 34.3306 20.3624 34.3306 21.2869L34.3298 32.9377C34.3298 33.4231 34.7232 33.8166 35.2087 33.8166C35.6942 33.8166 36.0876 33.4231 36.0876 32.9377L36.0884 22.4819C36.0927 22.0396 36.2659 21.6255 36.5809 21.312C36.8965 20.9956 37.3168 20.8213 37.7646 20.8213C38.6893 20.8213 39.4416 21.5736 39.4416 22.4983V38.2111C39.4416 38.5666 39.6557 38.8871 39.9842 39.0232C40.3127 39.1592 40.6906 39.084 40.9421 38.8326L43.6589 36.1158C44.0579 35.7163 44.5887 35.4963 45.1531 35.4963C45.7178 35.4963 46.2489 35.7164 46.6485 36.116C47.0478 36.5154 47.2677 37.0463 47.2677 37.611C47.2677 38.1758 47.0478 38.7067 46.6485 39.106L43.7575 41.9971C43.4142 42.3403 43.4142 42.8969 43.7575 43.24C43.9291 43.4116 44.1542 43.4975 44.379 43.4975C44.6039 43.4975 44.8289 43.4117 45.0006 43.24L47.8917 40.3489C48.6228 39.6175 49.0256 38.6452 49.0256 37.611C49.0256 36.5768 48.6228 35.6045 47.8916 34.8731C47.16 34.1414 46.1874 33.7385 45.1532 33.7385C44.1189 33.7385 43.1466 34.1415 42.4158 34.8731L41.1997 36.0892V32.9314L48.2556 28.8568C50.6453 27.477 52.1846 25.0672 52.4431 22.342L54.298 21.2706C54.5129 21.3718 54.7381 21.4554 54.9724 21.5182C55.3167 21.6105 55.6658 21.6561 56.013 21.6561C56.7051 21.6561 57.3883 21.4745 58.0038 21.1191C59.9109 20.0176 60.5668 17.5698 59.4656 15.6621ZM37.2043 50.8311C38.4376 50.8311 39.4411 51.8346 39.4411 53.068C39.4411 54.3015 38.4377 55.305 37.2043 55.305H24.8194C23.586 55.305 22.5826 54.3015 22.5826 53.068C22.5826 51.8346 23.586 50.8311 24.8194 50.8311H37.2043ZM35.7183 19.7391C35.1513 18.6208 33.9911 17.8523 32.6538 17.8523C32.1089 17.8523 31.5936 17.9804 31.1355 18.2072L27.9765 16.3834C27.5561 16.1406 27.0186 16.2848 26.7759 16.7051C26.5332 17.1255 26.6773 17.663 27.0976 17.9057L29.7589 19.4422C29.6971 19.5389 29.6399 19.6388 29.5879 19.7416C29.0161 19.3165 28.3083 19.0644 27.5427 19.0644C25.9105 19.0644 24.5415 20.2094 24.1942 21.7381C23.6423 21.4066 23.0057 21.2379 22.3399 21.2547C20.4969 21.303 18.9976 22.8615 18.9976 24.729V28.9038L15.7431 27.025C15.4351 26.8472 15.0506 26.8724 14.7685 27.0889C14.4866 27.3053 14.3627 27.6703 14.4546 28.0136L15.4488 31.7244C15.7506 32.8504 15.0799 34.0121 13.9536 34.314C13.4076 34.4605 12.8383 34.3856 12.3494 34.1025C11.8604 33.8207 11.5105 33.3649 11.3642 32.8189L9.02738 24.0955C8.81527 23.3061 8.74952 22.4955 8.83179 21.6864C8.86683 21.3422 8.69667 21.0095 8.39713 20.8364L7.14672 20.1141C7.25828 19.9706 7.36153 19.8179 7.45493 19.6561L13.6467 8.9318C13.7334 8.78204 13.8098 8.62711 13.8759 8.4682L15.551 9.43572C15.8086 9.58455 16.1395 9.59065 16.4026 9.45154C18.4531 8.3673 20.8747 8.4116 22.8809 9.5699L36.7611 17.583C37.3074 17.8987 37.626 18.4758 37.6291 19.0664C36.931 19.0935 36.2698 19.3275 35.7183 19.7391ZM51.1878 21.0367C50.9085 21.1834 50.7181 21.4763 50.7175 21.8137C50.6207 24.1192 49.3733 26.1812 47.3761 27.3344L41.1992 30.9013V22.4982C41.1992 21.1819 40.4546 20.0368 39.3649 19.4604C39.5146 18.1258 38.8602 16.7658 37.6405 16.0611L33.5856 13.7202L35.8286 12.4256C36.1365 12.2479 36.307 11.9022 36.2607 11.5498C36.2144 11.1973 35.9605 10.9075 35.6171 10.8154L31.9055 9.81987C31.3599 9.67397 30.9039 9.32451 30.6217 8.83559C30.3396 8.34679 30.2646 7.77725 30.4109 7.23161C30.5574 6.68504 30.9069 6.22917 31.3959 5.94733C31.8845 5.66502 32.4543 5.59013 33.0005 5.7365L41.7228 8.07444C42.5157 8.2862 43.2501 8.63426 43.9059 9.109C44.1867 9.31232 44.5608 9.33154 44.8608 9.15822L46.112 8.43574C46.1811 8.60473 46.2612 8.77043 46.354 8.93122L52.5464 19.6567C52.6333 19.8073 52.7298 19.95 52.8334 20.0861L51.1878 21.0367ZM57.1244 19.5968C56.6069 19.8955 56.0039 19.9749 55.4271 19.8203C54.8498 19.6656 54.3675 19.2955 54.0688 18.778L47.8765 8.05253C47.5776 7.53502 47.4983 6.93231 47.653 6.35515C47.8077 5.77799 48.1778 5.29563 48.6953 4.99692C49.0399 4.79793 49.4224 4.69632 49.8101 4.69632C50.0044 4.69632 50.2 4.72187 50.3928 4.77355C50.9699 4.92824 51.4523 5.29833 51.751 5.81584L57.9434 16.5413C58.5599 17.6093 58.1926 18.98 57.1244 19.5968Z" fill="#01AC5D"/>
</svg>
