<svg width="100" height="100" viewBox="0 0 100 100" fill="none" xmlns="http://www.w3.org/2000/svg">
<path d="M99.1094 26.2077L88.7886 8.33197C87.8994 6.79189 86.4638 5.69011 84.746 5.22975C83.0282 4.76939 81.234 5.00572 79.6939 5.895C78.1536 6.78408 77.052 8.21985 76.5917 9.93767C76.4932 10.3049 76.4288 10.6756 76.3936 11.0465L74.094 12.3742C72.9223 11.644 71.6482 11.0928 70.2953 10.7314L55.7594 6.83525C54.093 6.38856 52.3529 6.61748 50.8622 7.47902C49.37 8.339 48.3022 9.73102 47.8551 11.3982C47.4084 13.0633 47.6372 14.8024 48.4989 16.2952C49.361 17.7882 50.7532 18.8558 52.4179 19.3008L55.1875 20.0435L53.0461 21.2795L39.6003 13.5172C35.6172 11.2174 30.8563 11.0039 26.7078 12.9032L23.6116 11.115C23.431 8.95229 22.2018 6.98623 20.3088 5.89441C17.1293 4.0598 13.0497 5.1528 11.2145 8.33099L9.90002 10.6064C9.49532 11.307 9.73517 12.2029 10.4358 12.6076C11.136 13.0123 12.0321 12.7725 12.437 12.0721L13.7515 9.79645C14.7794 8.01673 17.0642 7.4048 18.8449 8.43236C19.994 9.09526 20.7079 10.3347 20.7079 11.6674C20.7079 12.3186 20.5356 12.9604 20.2088 13.5249L9.8881 31.4004C8.86054 33.1809 6.57573 33.7936 4.796 32.7669C3.64481 32.1012 2.92975 30.8621 2.92975 29.5326C2.92975 28.8836 3.103 28.2408 3.43074 27.6732L9.52267 17.1222C9.92717 16.4216 9.68712 15.5257 8.98652 15.1212C8.28572 14.7167 7.39 14.9567 6.9855 15.6573L0.893769 26.2083C0.308991 27.2205 0 28.3701 0 29.5326C0 31.9049 1.27581 34.1159 3.33035 35.3034C4.37607 35.9068 5.51887 36.1935 6.64702 36.1935C7.6111 36.1935 8.56327 35.9816 9.43653 35.5818L11.7405 36.9129C11.6948 38.2961 11.8542 39.6746 12.2163 41.0227L16.1107 55.5609C16.5574 57.2277 17.6262 58.6196 19.1172 59.4788C20.11 60.0536 21.213 60.3473 22.3317 60.3473C22.8929 60.3473 23.4579 60.2735 24.015 60.1241C27.4523 59.2026 29.4995 55.6568 28.5783 52.22L27.8365 49.4512L31.6628 51.6602V68.0323C31.6628 72.631 33.8585 76.8608 37.577 79.505V83.0805C35.8449 84.2838 34.708 86.2866 34.708 88.5507C34.708 92.2219 37.6948 95.2086 41.3657 95.2086H62.0072C65.6784 95.2086 68.665 92.2219 68.665 88.5507C68.665 86.3116 67.5528 84.3285 65.8532 83.1211V80.4613C67.0751 79.8089 68.1899 78.9813 69.1757 77.9938L70.8769 76.2946C71.4492 75.7229 71.4498 74.7953 70.8781 74.223C70.3064 73.6504 69.379 73.6502 68.8064 74.2219L67.1038 75.9227C66.1413 76.8868 65.0258 77.6573 63.7883 78.2132C63.2621 78.4495 62.9234 78.9725 62.9234 79.5495V81.9576C62.6238 81.9162 62.3181 81.8929 62.0074 81.8929H41.3657C41.0745 81.8929 40.7882 81.9138 40.5067 81.9501V78.7216C40.5067 78.18 40.2128 77.7071 39.7755 77.454C36.5287 75.3928 34.5925 71.8749 34.5925 68.0323V41.3194C34.5925 39.7807 35.8117 38.4969 37.31 38.4576C38.0897 38.4385 38.8163 38.727 39.3624 39.2752C39.8889 39.8018 40.1792 40.501 40.1806 41.245L40.1807 55.0011C40.1807 55.8101 40.8366 56.466 41.6456 56.466C42.4546 56.466 43.1105 55.8101 43.1105 55.0011L43.1103 37.6025C43.1103 36.0617 44.3638 34.8081 45.9047 34.8081C47.4456 34.8081 48.6991 36.0617 48.6991 37.6025V55.0011C48.6991 55.8101 49.355 56.466 50.164 56.466C50.9732 56.466 51.6288 55.8101 51.6288 55.0011V35.5824C51.6288 34.0415 52.8824 32.788 54.4232 32.788C55.9641 32.788 57.2176 34.0415 57.2176 35.5824L57.2163 55.0004C57.2163 55.8094 57.872 56.4652 58.6811 56.4652C59.4903 56.4652 60.146 55.8094 60.146 55.0004L60.1474 37.574C60.1544 36.8369 60.4431 36.1466 60.9681 35.6242C61.4941 35.0968 62.1947 34.8064 62.941 34.8064C64.4822 34.8064 65.736 36.0601 65.736 37.6013V63.7894C65.736 64.3818 66.0928 64.916 66.6403 65.1428C67.1878 65.3695 67.8177 65.2441 68.2368 64.8252L72.7648 60.2971C73.4299 59.6313 74.3145 59.2647 75.2551 59.2647C76.1964 59.2647 77.0815 59.6315 77.7476 60.2975C78.413 60.9632 78.7794 61.848 78.7794 62.7892C78.7794 63.7304 78.413 64.6154 77.7476 65.2809L72.9291 70.0993C72.357 70.6714 72.357 71.5989 72.9291 72.1708C73.2152 72.4568 73.5903 72.6 73.9651 72.6C74.3399 72.6 74.7149 72.457 75.001 72.1708L79.8195 67.3524C81.0381 66.1334 81.7094 64.5129 81.7094 62.7892C81.7094 61.0655 81.0381 59.445 79.8193 58.226C78.5999 57.0064 76.979 56.335 75.2553 56.335C73.5315 56.335 71.9109 57.0066 70.6929 58.226L68.6661 60.2528V54.9898L80.4259 48.1988C84.4088 45.8992 86.9743 41.8829 87.4052 37.3408L90.4967 35.5552C90.8549 35.7238 91.2301 35.8632 91.6207 35.9679C92.1946 36.1216 92.7764 36.1976 93.3549 36.1976C94.5085 36.1976 95.6472 35.8951 96.673 35.3027C99.8516 33.4669 100.945 29.3871 99.1094 26.2077ZM62.0072 84.8227C64.0627 84.8227 65.7352 86.4952 65.7352 88.5509C65.7352 90.6066 64.0629 92.2791 62.0072 92.2791H41.3657C39.31 92.2791 37.6377 90.6066 37.6377 88.5509C37.6377 86.4952 39.31 84.8227 41.3657 84.8227H62.0072ZM59.5306 33.0026C58.5854 31.1389 56.6518 29.858 54.423 29.858C53.5148 29.858 52.656 30.0715 51.8925 30.4494L46.6276 27.4099C45.9268 27.0052 45.031 27.2455 44.6265 27.9461C44.222 28.6467 44.4621 29.5426 45.1627 29.9471L49.5981 32.5079C49.4952 32.669 49.3999 32.8354 49.3132 33.0069C48.3602 32.2983 47.1805 31.8782 45.9045 31.8782C43.1841 31.8782 40.9024 33.7864 40.3237 36.3343C39.4038 35.7818 38.3428 35.5007 37.2332 35.5286C34.1615 35.6091 31.6626 38.2066 31.6626 41.3192V48.2772L26.2385 45.1458C25.7252 44.8495 25.0843 44.8915 24.6142 45.2523C24.1443 45.613 23.9378 46.2213 24.0909 46.7935L25.748 52.9782C26.251 54.8548 25.1332 56.791 23.256 57.2942C22.346 57.5383 21.3971 57.4135 20.5823 56.9416C19.7674 56.4721 19.1842 55.7123 18.9403 54.8023L15.0456 40.2633C14.6921 38.9477 14.5825 37.5967 14.7197 36.2482C14.7781 35.6745 14.4945 35.12 13.9952 34.8316L11.9112 33.6276C12.0971 33.3886 12.2692 33.1341 12.4249 32.8643L22.7444 14.9905C22.889 14.7409 23.0163 14.4827 23.1265 14.2178L25.9183 15.8304C26.3476 16.0784 26.8992 16.0886 27.3377 15.8567C30.7552 14.0497 34.7912 14.1235 38.1348 16.054L61.2685 29.4092C62.1791 29.9354 62.7099 30.8971 62.7152 31.8815C61.5517 31.9266 60.4497 32.3167 59.5306 33.0026ZM85.313 35.1654C84.8475 35.4099 84.5301 35.898 84.5292 36.4603C84.3678 40.3028 82.2889 43.7396 78.9601 45.6615L68.6653 51.6063V37.6012C68.6653 35.4074 67.4243 33.4989 65.6082 32.5382C65.8577 30.3139 64.767 28.0472 62.7342 26.8726L55.976 22.9711L59.7144 20.8135C60.2275 20.5174 60.5117 19.9412 60.4345 19.3539C60.3574 18.7664 59.9341 18.2834 59.3618 18.1298L53.1758 16.4706C52.2666 16.2274 51.5066 15.645 51.0363 14.8302C50.5659 14.0155 50.4409 13.0662 50.6849 12.1569C50.929 11.2459 51.5115 10.4861 52.3265 10.0164C53.1408 9.54586 54.0904 9.42105 55.0008 9.665L69.538 13.5616C70.8595 13.9145 72.0836 14.4946 73.1766 15.2858C73.6446 15.6247 74.268 15.6567 74.768 15.3679L76.8534 14.1637C76.9685 14.4454 77.102 14.7216 77.2567 14.9895L87.5773 32.8653C87.7222 33.1163 87.8829 33.3542 88.0556 33.5809L85.313 35.1654ZM95.2073 32.7655C94.3448 33.2634 93.3399 33.3956 92.3785 33.138C91.4164 32.8802 90.6125 32.2633 90.1146 31.4008L79.7941 13.525C79.296 12.6625 79.1638 11.658 79.4216 10.6961C79.6794 9.73415 80.2963 8.93022 81.1588 8.43236C81.7332 8.10071 82.3707 7.93137 83.0168 7.93137C83.3407 7.93137 83.6666 7.97395 83.9879 8.06009C84.9499 8.3179 85.7538 8.93471 86.2517 9.79723L96.5724 27.673C97.5998 29.4529 96.9876 31.7375 95.2073 32.7655Z" fill="#FF7E29"/>
</svg>
