<svg width="100" height="100" viewBox="0 0 100 100" fill="none" xmlns="http://www.w3.org/2000/svg">
<path d="M3 64.5469H6.125V67.6719H3V64.5469Z" fill="#FF7E29"/>
<path d="M95.1875 23.9219H76.4375C75.5781 23.9219 74.875 24.625 74.875 25.4844V29.3437L54.5625 24.2812C53.5938 24.0312 52.2969 23.9219 51.4375 23.9219H28.0937C34.2188 18.875 41.8125 16.1094 49.875 16.1094C57.9375 16.1094 66.0781 19.0781 72.2969 24.4531L74.3438 22.0938C67.5625 16.2187 58.875 13 49.8906 13C39.875 13 30.5156 16.8906 23.4531 23.9375H20.9844C19.5156 23.9375 18.1406 24.5 17.1094 25.5313C16.0937 26.5469 15.5156 27.9531 15.5156 29.4062C15.5156 30.7344 16.0156 31.9531 16.8125 32.9062C16.0469 34.3438 15.3281 35.8594 14.7188 37.4531L17.6406 38.5469C18.1562 37.1719 18.7656 35.875 19.4219 34.625C19.9219 34.7656 20.4375 34.875 20.9688 34.875H33.6563C33.5938 35.0781 33.5156 35.2812 33.4688 35.4844C32.875 38.4062 34.7031 41.2656 37.625 41.9844L49.5312 44.8437L51.5781 45.3125C52.5469 45.5312 53.3906 46.0469 54.0312 46.7656C54.0312 46.7656 55.2969 48.2031 55.3125 48.2031C58.7969 52.4688 64.625 55.0312 70.9062 55.0938L74.875 55.1563V59.875C74.875 60.7344 75.5781 61.4375 76.4375 61.4375H95.1875C96.0469 61.4375 96.75 60.7344 96.75 59.875V39.5625H93.625V58.3125H78V27.0469H93.625V30.1719H96.75V25.4844C96.75 24.625 96.0469 23.9219 95.1875 23.9219ZM74.875 52.0156L70.9375 51.9531C65.5625 51.9062 60.625 49.7656 57.6875 46.1562L56.375 44.6719C55.2969 43.4688 53.8906 42.625 52.2812 42.25L38.3594 38.9375C37.0781 38.625 36.2656 37.375 36.5312 36.0938C36.6562 35.4688 37.0156 34.9219 37.5469 34.5625C37.9219 34.2969 38.3594 34.1406 38.8281 34.125C40.0625 34.375 49.5156 36.5156 55.7812 37.9375L56.4844 34.8906C39.4219 30.9844 39.1719 30.9844 38.9531 30.9844C37.9688 30.9844 37.0469 31.25 36.2188 31.7188H20.9688C19.6719 31.7188 18.625 30.6719 18.625 29.375C18.625 28.75 18.875 28.1406 19.3125 27.7188C19.75 27.2812 20.3594 27.0312 20.9688 27.0312H51.4375C52.2031 27.0312 53.1875 27.1406 53.7969 27.2969L74.875 32.5469V51.9844V52.0156Z" fill="#FF7E29"/>
<path d="M93.625 33.2969H96.75V36.4219H93.625V33.2969Z" fill="#FF7E29"/>
<path d="M82.1094 62.4375C81.5938 63.8125 80.9844 65.0938 80.3438 66.3438C79.8438 66.1875 79.3281 66.1094 78.7812 66.1094H66.0938C66.1562 65.9062 66.2344 65.7031 66.2812 65.5C66.875 62.5781 65.0469 59.7188 62.125 59L50.2188 56.1406L48.1719 55.6719C47.2031 55.4531 46.3594 54.9375 45.7188 54.2187C45.7188 54.2187 44.4531 52.7813 44.4375 52.7813C40.9531 48.5156 35.125 45.9531 28.8438 45.8906L24.875 45.8281V41.1094C24.875 40.25 24.1719 39.5469 23.3125 39.5469H4.5625C3.70312 39.5469 3 40.25 3 41.1094V61.4219H6.125V42.6719H21.75V73.9219H6.125V70.7969H3V75.4844C3 76.3437 3.70312 77.0469 4.5625 77.0469H23.3125C24.1719 77.0469 24.875 76.3437 24.875 75.4844V71.625L45.1875 76.6875C46.1562 76.9375 47.4531 77.0469 48.3125 77.0469H71.6562C65.5312 82.0937 57.9375 84.8594 49.875 84.8594C41.8125 84.8594 33.6719 81.8906 27.4531 76.5156L25.4062 78.875C32.1875 84.75 40.875 87.9688 49.8594 87.9688C59.875 87.9688 69.2344 84.0781 76.2969 77.0312H78.7656C80.2344 77.0312 81.6094 76.4688 82.6406 75.4375C83.6562 74.4219 84.2344 73.0156 84.2344 71.5625C84.2344 70.2656 83.7656 69.0156 82.9531 68.0469C83.7188 66.6094 84.4375 65.1094 85.0312 63.5156L82.1094 62.4219V62.4375ZM80.4375 73.2344C80 73.6719 79.3906 73.9219 78.7812 73.9219H48.3125C47.5469 73.9219 46.5625 73.8125 45.9531 73.6562L24.875 68.4062V48.9688L28.8125 49.0312C34.1875 49.0781 39.125 51.2187 42.0625 54.8281L43.375 56.3125C44.4531 57.5156 45.8594 58.3594 47.4688 58.7344L61.3906 62.0469C62.6719 62.3594 63.4844 63.6094 63.2188 64.8906C63.0938 65.5156 62.7344 66.0625 62.2031 66.4219C61.8281 66.6875 61.3906 66.8437 60.9219 66.8594C59.6875 66.6094 50.2344 64.4688 43.9688 63.0469L43.2656 66.0938C60.3281 70 60.5781 70 60.7969 70C61.7813 70 62.7031 69.7344 63.5313 69.2656H78.7656C79.25 69.2656 79.7188 69.4062 80.1094 69.7031C80.7344 70.1406 81.1094 70.8594 81.1094 71.6094C81.1094 72.2344 80.8594 72.8438 80.4219 73.2656L80.4375 73.2344Z" fill="#FF7E29"/>
</svg>
