<svg width="20" height="20" viewBox="0 0 20 20" fill="none" xmlns="http://www.w3.org/2000/svg">
<path d="M10 20C15.5228 20 20 15.5228 20 10C20 4.47715 15.5228 0 10 0C4.47715 0 0 4.47715 0 10C0 15.5228 4.47715 20 10 20Z" fill="#007AB9"/>
<path d="M15.974 10.8047V14.9275H13.5837V11.081C13.5837 10.1152 13.2386 9.45566 12.3732 9.45566C11.7127 9.45566 11.3203 9.89971 11.1471 10.3297C11.0842 10.4833 11.0679 10.6967 11.0679 10.9122V14.9273H8.67747C8.67747 14.9273 8.70956 8.41267 8.67747 7.73831H11.0681V8.75707C11.0633 8.76509 11.0565 8.77293 11.0522 8.7806H11.0681V8.75707C11.3858 8.26828 11.9523 7.5695 13.2224 7.5695C14.795 7.5695 15.974 8.59699 15.974 10.8047ZM6.17685 4.27295C5.35917 4.27295 4.82422 4.80969 4.82422 5.51488C4.82422 6.2051 5.34367 6.75735 6.14548 6.75735H6.16099C6.99471 6.75735 7.51308 6.2051 7.51308 5.51488C7.49722 4.80969 6.99471 4.27295 6.17685 4.27295ZM4.96629 14.9275H7.35586V7.73831H4.96629V14.9275Z" fill="#F1F2F2"/>
</svg>
