<svg width="24" height="25" viewBox="0 0 24 25" fill="none" xmlns="http://www.w3.org/2000/svg">
<g clip-path="url(#clip0_1304_66879)">
<path d="M12.0403 8.54296C12.3707 8.54296 12.6382 8.27526 12.6382 7.94512C12.6382 7.61498 12.3707 7.34728 12.0403 7.34728C9.39904 7.34728 7.25781 9.48851 7.25781 12.13C7.25781 14.7713 9.39904 16.9125 12.0403 16.9125C14.6818 16.9125 16.823 14.7713 16.823 12.13C16.823 11.7997 16.5553 11.5321 16.2252 11.5321C15.8951 11.5321 15.6274 11.7997 15.6274 12.13C15.6274 14.111 14.0215 15.717 12.0403 15.717C10.0593 15.717 8.45331 14.111 8.45331 12.13C8.45331 10.1488 10.0593 8.54296 12.0403 8.54296Z" fill="#FDB60D"/>
<path d="M23.4468 8.57904C23.343 8.26538 23.0046 8.09528 22.6908 8.1991C22.3842 8.30054 22.2136 8.62683 22.305 8.93646C24.0928 14.6298 20.9269 20.6944 15.2336 22.4822C9.54051 24.2701 3.47588 21.1042 1.68804 15.4109C-0.0999815 9.71759 3.06609 3.65296 8.7592 1.86512C10.8667 1.20338 13.1263 1.20338 15.2336 1.86512C15.55 1.96052 15.8838 1.78144 15.9792 1.46503C16.0732 1.15339 15.9009 0.823984 15.5912 0.723276C9.26951 -1.26012 2.53673 2.25678 0.553338 8.57867C-1.43006 14.9004 2.08703 21.6332 8.40874 23.6166C14.7306 25.6 21.4632 22.083 23.4466 15.7612C24.1801 13.4233 24.1801 10.9169 23.4468 8.57904Z" fill="#FDB60D"/>
<path d="M13.178 4.44104C13.1811 4.10064 12.9197 3.8161 12.5802 3.79065C12.4017 3.77545 12.2229 3.76025 12.0397 3.76025C7.41717 3.76025 3.66992 7.5075 3.66992 12.13C3.66992 16.7523 7.41717 20.4995 12.0397 20.4995C16.662 20.4995 20.4092 16.7523 20.4092 12.13C20.4092 11.9137 20.396 11.6977 20.3695 11.4831C20.3217 11.155 20.017 10.9277 19.6889 10.9755C19.3608 11.0231 19.1335 11.328 19.1811 11.6561C19.183 11.6686 19.1852 11.6808 19.1877 11.6933C19.2007 11.8381 19.2135 11.9817 19.2135 12.1296C19.2137 16.0918 16.0019 19.3037 12.0398 19.3041C8.07763 19.3042 4.86578 16.0922 4.8656 12.1302C4.86542 8.16814 8.07708 4.95611 12.0393 4.95593H12.0395C12.1878 4.95593 12.3315 4.96874 12.476 4.98156L12.5881 4.9909C12.9004 5.00427 13.1645 4.76184 13.1777 4.44946C13.1778 4.44653 13.1778 4.44378 13.178 4.44104Z" fill="#FDB60D"/>
<path d="M15.6277 5.55376V7.69756L11.6181 11.7072C11.3806 11.9366 11.374 12.3151 11.6034 12.5526C11.8328 12.7901 12.2113 12.7967 12.4488 12.5672C12.4537 12.5625 12.4587 12.5575 12.4635 12.5526L16.4731 8.54296H18.6169C18.7755 8.54296 18.9274 8.47997 19.0397 8.36772L22.6265 4.78069C22.86 4.54723 22.86 4.16875 22.6265 3.9353C22.5145 3.82324 22.3625 3.76025 22.2039 3.76025H20.4104V1.96673C20.4104 1.63659 20.1427 1.36889 19.8124 1.36908C19.654 1.36908 19.502 1.43206 19.39 1.54412L15.8029 5.13116C15.6907 5.24322 15.6277 5.39519 15.6277 5.55376ZM16.8234 5.80132L19.2147 3.40997V4.35809C19.2147 4.68822 19.4824 4.95592 19.8126 4.95592H20.7607L18.3693 7.34728H16.8234V5.80132Z" fill="#FDB60D"/>
</g>
<defs>
<clipPath id="clip0_1304_66879">
<rect width="24" height="24" fill="white" transform="translate(0 0.169922)"/>
</clipPath>
</defs>
</svg>
