<svg width="60" height="60" viewBox="0 0 60 60" fill="none" xmlns="http://www.w3.org/2000/svg">
<path fill-rule="evenodd" clip-rule="evenodd" d="M0.839955 47.894C0.796779 47.6607 0.843014 47.4186 0.97172 47.2167L10.4469 32.3518H8.05831V32.6346C8.05831 33.154 7.63666 33.5758 7.11713 33.5758C6.59772 33.5758 6.17596 33.154 6.17596 32.6346V30.1867C6.17596 29.6673 6.59772 29.2455 7.11713 29.2455C7.63666 29.2455 8.05831 29.6673 8.05831 30.1867V30.4694H26.1736C26.522 29.0501 27.6402 27.9319 29.0595 27.5835V22.007C24.2984 21.534 20.5748 17.5121 20.5748 12.6275C20.5748 7.42519 24.7984 3.20166 30.0007 3.20166C35.2029 3.20166 39.4265 7.42519 39.4265 12.6275C39.4265 17.5121 35.7029 21.534 30.9418 22.007V27.5835C32.3611 27.9319 33.4794 29.0501 33.8277 30.4694H51.943V30.1867C51.943 29.6673 52.3647 29.2455 52.8842 29.2455C53.4036 29.2455 53.8254 29.6673 53.8254 30.1867V32.6346C53.8254 33.154 53.4036 33.5758 52.8842 33.5758C52.3647 33.5758 51.943 33.154 51.943 32.6346V32.3518H49.5614L59.0298 47.217C59.1583 47.4187 59.2045 47.6608 59.1614 47.894C58.2276 52.9357 53.5312 56.7986 47.846 56.7986C42.161 56.7986 37.4568 52.9354 36.523 47.894C36.4798 47.6607 36.5261 47.4186 36.6548 47.2167L46.13 32.3518H33.8277C33.4054 34.0727 31.8511 35.3511 30.0007 35.3511C28.1502 35.3511 26.596 34.0727 26.1736 32.3518H13.8783L23.3467 47.217C23.4752 47.4187 23.5215 47.6608 23.4783 47.894C22.5445 52.9357 17.8481 56.7986 12.1629 56.7986C6.47796 56.7986 1.7736 52.9354 0.839955 47.894ZM3.48137 46.7814H20.8375L12.1627 33.1621L3.48137 46.7814ZM21.3402 48.6638H2.97819C4.19113 52.2973 7.85595 54.9162 12.1629 54.9162C16.4697 54.9162 20.1284 52.2971 21.3402 48.6638ZM56.5205 46.7814L47.8457 33.1621L39.1645 46.7814H56.5205ZM57.0234 48.6638H38.6612C39.8742 52.2973 43.539 54.9162 47.846 54.9162C52.1528 54.9162 55.8115 52.2971 57.0234 48.6638ZM30.0007 5.08401C25.8372 5.08401 22.4571 8.46413 22.4571 12.6275C22.4571 16.791 25.8372 20.1711 30.0007 20.1711C34.1641 20.1711 37.5442 16.791 37.5442 12.6275C37.5442 8.46413 34.1641 5.08401 30.0007 5.08401ZM30.0007 5.6879C33.8308 5.6879 36.9403 8.79742 36.9403 12.6275C36.9403 16.4575 33.8308 19.5671 30.0007 19.5671C26.1705 19.5671 23.061 16.4575 23.061 12.6275C23.061 8.79742 26.1705 5.6879 30.0007 5.6879ZM30.0007 7.57025C27.2095 7.57025 24.9434 9.83637 24.9434 12.6275C24.9434 15.4187 27.2095 17.6847 30.0007 17.6847C32.7918 17.6847 35.058 15.4187 35.058 12.6275C35.058 9.83637 32.7918 7.57025 30.0007 7.57025ZM30.0007 29.3526C28.8648 29.3526 27.9427 30.2748 27.9427 31.4106C27.9427 32.5465 28.8648 33.4687 30.0007 33.4687C31.1365 33.4687 32.0587 32.5465 32.0587 31.4106C32.0587 30.2748 31.1365 29.3526 30.0007 29.3526Z" fill="#01AC5D"/>
</svg>
