<svg width="101" height="101" viewBox="0 0 101 101" fill="none" xmlns="http://www.w3.org/2000/svg">
<path d="M99.2086 64.242C99.2086 62.1662 97.5268 60.4844 95.4511 60.4844H53.3298C51.2541 60.4844 49.5723 62.1662 49.5723 64.242C49.5723 66.2268 51.1329 67.848 53.0874 67.9844V84.8177C53.0874 89.3026 56.7389 92.9541 61.2238 92.9541H87.5723C92.0571 92.9541 95.7086 89.3026 95.7086 84.8177V67.9692C97.648 67.848 99.2086 66.2268 99.2086 64.242ZM93.4207 84.8177C93.4207 88.045 90.7995 90.6813 87.5571 90.6813H61.2086C57.9814 90.6813 55.345 88.0601 55.345 84.8177V67.9995H93.4207V84.8177ZM95.4511 65.7268H53.3298C52.5117 65.7268 51.845 65.0601 51.845 64.242C51.845 63.4238 52.5117 62.7571 53.3298 62.7571H95.4359C96.2541 62.7571 96.9208 63.4238 96.9208 64.242C96.9359 65.0601 96.2692 65.7268 95.4511 65.7268Z" fill="#FF7E29"/>
<path d="M79.3759 22.8636H81.0577V33.8333C81.0577 34.4545 81.5729 34.9697 82.1941 34.9697C82.8153 34.9697 83.3305 34.4545 83.3305 33.8333V31.7424H85.0123C91.588 31.7424 96.9365 26.3939 96.9365 19.8182V17C96.9365 16.3788 96.4214 15.8636 95.8002 15.8636H92.982C89.0123 15.8636 85.5123 17.8182 83.3305 20.803V18.9091C83.3305 12.3333 77.982 7 71.4214 7H68.6032C67.982 7 67.4668 7.51515 67.4668 8.13636V10.9545C67.4517 17.5152 72.8002 22.8636 79.3759 22.8636ZM92.9668 18.1364H94.6487V19.8182C94.6487 25.1364 90.3153 29.4697 84.9971 29.4697H84.9214L88.4365 25.9545C88.8759 25.5152 88.8759 24.7879 88.4365 24.3485C87.9971 23.9091 87.2699 23.9091 86.8305 24.3485L83.3153 27.8636V27.7879C83.3305 22.4697 87.6487 18.1364 92.9668 18.1364ZM69.7244 9.27273H71.4062C76.7244 9.27273 81.0426 13.5909 81.0426 18.9091V18.9848L77.5274 15.4697C77.088 15.0303 76.3608 15.0303 75.9214 15.4697C75.482 15.9091 75.482 16.6364 75.9214 17.0758L79.4365 20.5909H79.3608C74.0426 20.5909 69.7093 16.2576 69.7093 10.9394V9.27273H69.7244Z" fill="#FF7E29"/>
<path d="M24.3 44.4542C23.209 45.5451 21.3 45.5451 20.209 44.4542C19.7696 44.0148 19.0424 44.0148 18.603 44.4542C18.1636 44.8936 18.1636 45.6209 18.603 46.0603C19.5727 47.0451 20.8757 47.5754 22.2545 47.5754C23.6333 47.5754 24.9363 47.0299 25.906 46.0603C26.3454 45.6209 26.3454 44.8936 25.906 44.4542C25.4666 43.9996 24.7393 43.9996 24.3 44.4542Z" fill="#FF7E29"/>
<path d="M61.7994 85.3633H86.9964C87.6176 85.3633 88.1328 84.8482 88.1328 84.227V74.4391C88.1328 73.8179 87.6176 73.3027 86.9964 73.3027H61.7994C61.1782 73.3027 60.6631 73.8179 60.6631 74.4391V84.227C60.6631 84.8633 61.1631 85.3633 61.7994 85.3633ZM62.9358 75.5755H85.8601V83.0906H62.9358V75.5755Z" fill="#FF7E29"/>
<path d="M55.1938 18.0152C63.7999 23.9849 68.6483 33.3334 68.5271 43.6365C68.5271 44.091 68.512 44.5607 68.4665 45.1062C68.4665 45.1213 68.4514 45.2728 68.4514 45.288C68.4059 45.9092 68.8756 46.3789 69.4817 46.4243C70.1029 46.4849 70.6483 45.9698 70.7241 45.3486L70.7393 45.1213C70.7696 44.6213 70.7847 44.1213 70.7847 43.6365C70.9211 32.5607 65.7089 22.5304 56.4817 16.1213C47.2089 9.68191 35.4211 8.24252 24.9817 12.2728C21.4211 13.6516 19.2544 15.0001 19.2089 15.0304C17.2695 16.1365 16.0877 17.5455 15.7089 19.1971C15.3908 20.5759 15.7241 21.8031 16.0423 22.5607C7.25439 33.2728 10.5726 41.788 11.012 42.8183C11.5271 44.5759 10.7847 45.4698 10.7544 45.4849L3.75439 53.0001C2.87561 54.1819 2.92106 55.2274 3.11803 55.894C3.69379 57.8637 6.17864 58.8637 6.55742 59.0001C7.17864 59.1819 7.86046 59.6062 7.92106 59.8334C7.93621 59.8789 7.87561 60.1213 7.42106 60.5304C6.29985 61.5759 6.23924 62.5759 6.37561 63.2425C6.60288 64.3031 7.49682 65.1062 8.36046 65.6516C8.20894 65.8486 8.04227 66.0607 7.87561 66.3183C7.45136 66.9546 7.3453 67.6516 7.58773 68.3031C8.01197 69.4092 9.315 70.0001 10.0574 70.2425C10.5271 70.985 10.1332 71.6213 9.95136 71.8789C7.83015 75.1062 9.66349 78.1668 10.9817 79.4243C13.2392 82.3031 22.0877 80.1668 24.7241 79.4395C26.7695 78.9546 28.2241 79.6516 28.2847 79.6668C28.4211 79.7425 28.4362 79.7577 28.6029 79.7577C29.7392 80.3183 32.512 86.6213 34.3756 92.1516C34.5423 92.6213 34.9817 92.9243 35.4514 92.9243C35.5726 92.9243 35.6938 92.9092 35.815 92.8637C36.4059 92.6668 36.7241 92.0153 36.5271 91.4243C34.4968 85.4243 31.6029 78.2728 29.1635 77.5759C28.618 77.3334 26.6786 76.6213 24.1483 77.2274C19.3908 78.5304 13.5423 79.1668 12.7544 78.0153C12.7089 77.9395 12.6483 77.8789 12.5726 77.8183C12.3302 77.591 10.2241 75.5607 11.7695 73.2122C12.4059 72.4092 13.1938 70.394 11.5726 68.5153C11.4211 68.3486 11.2241 68.2122 10.9968 68.1668C10.512 68.0456 9.95136 67.7728 9.73924 67.5759C10.2544 66.8334 10.5726 66.591 10.6635 66.5304C11.1029 66.4395 11.4665 66.0759 11.5423 65.6213C11.6332 65.0759 11.3302 64.5456 10.7998 64.3637C9.8453 64.0153 8.67864 63.2728 8.58773 62.8031C8.54227 62.6062 8.86046 62.3031 8.96652 62.2122C10.2241 61.0456 10.2847 60.0001 10.118 59.3183C9.70894 57.6365 7.60288 56.9546 7.26955 56.8637C6.70894 56.6516 5.49682 55.9698 5.29985 55.2728C5.26955 55.1668 5.19379 54.894 5.49682 54.4698L12.4059 47.0607C13.0423 46.394 13.9211 44.591 13.1635 42.091C13.1483 42.0456 13.1332 41.9849 13.1029 41.9395C12.9514 41.6062 9.46652 33.7274 18.2695 23.5001C18.6029 23.1062 18.6332 22.5455 18.3453 22.1213C18.3453 22.1062 17.6332 21.0304 17.9211 19.7425C18.1483 18.7274 18.9665 17.8183 20.3756 17.0152C20.3908 17.0001 22.4665 15.7122 25.7998 14.4243C35.5574 10.6516 46.5423 12.0001 55.1938 18.0152Z" fill="#FF7E29"/>
<path d="M88.3306 55.2571C88.5427 55.5601 88.8912 55.742 89.2548 55.742H90.876C91.9973 55.742 92.9973 56.4238 93.3154 57.4086C93.467 57.8935 93.9215 58.1965 94.3912 58.1965C94.5124 58.1965 94.6185 58.1813 94.7397 58.1359C95.3457 57.9389 95.6639 57.3026 95.4821 56.7116C94.876 54.8026 92.9821 53.4692 90.876 53.4692H90.6185C90.6336 52.742 90.4518 52.0147 90.0882 51.3177C89.2548 49.742 87.5882 48.7723 85.7245 48.7723H85.3609C84.8609 43.3329 80.3609 38.9995 80.1639 38.8177C79.8154 38.4844 79.3003 38.4086 78.876 38.6207C78.4518 38.8329 78.1942 39.2874 78.2548 39.7723C78.3609 40.6359 78.3003 41.5147 78.1033 42.3935C77.27 46.0904 73.7094 48.7874 69.6488 48.7874H63.073C61.2094 48.7874 59.5276 49.7723 58.7094 51.3329C58.3457 52.0298 58.1639 52.742 58.1791 53.4844H57.9215C55.8154 53.4844 53.9366 54.8177 53.3154 56.7268C53.1185 57.3177 53.4518 57.9692 54.0579 58.151C54.6488 58.348 55.3003 58.0147 55.4821 57.4086C55.8003 56.4238 56.8003 55.742 57.9215 55.742H59.5427C59.9063 55.742 60.2548 55.5601 60.4669 55.2571C60.6791 54.9541 60.7245 54.5601 60.6033 54.2116C60.3609 53.5601 60.4063 52.9844 60.7245 52.3783C61.1488 51.5601 62.0882 51.045 63.0882 51.045H69.6639C74.7851 51.045 79.27 47.6056 80.3457 42.8783C80.376 42.7723 80.3912 42.6662 80.4063 42.5601C81.6942 44.3329 83.2094 47.0147 83.1488 49.8783C83.1488 50.1813 83.2548 50.4844 83.4821 50.6965C83.6942 50.9086 83.9821 51.0298 84.2851 51.0298H85.7397C86.7397 51.0298 87.6639 51.5601 88.1033 52.3632C88.4215 52.9692 88.4669 53.545 88.2245 54.1965C88.073 54.5753 88.1185 54.9541 88.3306 55.2571Z" fill="#FF7E29"/>
</svg>
