<svg width="351" height="369" viewBox="0 0 351 369" fill="none" xmlns="http://www.w3.org/2000/svg">
<path d="M346.326 91.3627C349.973 108.658 348.683 125.729 342.728 139.501C336.822 153.545 326.252 164.289 312.679 175.058C299.081 185.778 282.456 196.497 264.317 209.822C246.055 222.824 226.303 238.432 204.889 251.657C183.475 264.883 162.235 273.518 141.342 273.865C120.524 274.535 100.028 266.967 81.6661 255.106C63.3042 243.27 47.0514 227.142 34.8432 211.286C22.5854 195.207 14.3474 179.425 10.7246 162.255C7.10187 145.084 8.24328 127.317 12.9578 107.615C17.722 88.1866 26.0593 66.8471 38.069 48.6092C50.0786 30.3218 65.7359 15.136 85.0655 7.34459C104.321 -0.794195 127.223 -1.48897 152.161 1.96009C177.098 5.40915 201.465 11.6869 223.4 16.203C245.385 21.0416 264.938 24.1184 281.687 28.436C298.461 32.7783 312.48 38.3613 323.547 48.8078C334.589 59.0061 342.678 74.0678 346.326 91.3627Z" fill="#F7F7CE"/>
<path d="M326.153 185.977C319.28 203.867 311.017 205.53 311.141 205.554C311.042 205.505 307.618 198.582 314.193 181.485C320.893 164.538 333.2 141.536 333.101 141.362C333.25 141.263 333.2 168.012 326.153 185.977Z" fill="#A8BF96"/>
<path d="M306.153 202.824C304.54 221.136 296.947 225.379 297.071 225.33C296.947 225.355 291.686 219.846 293.299 202.228C295.036 184.661 300.52 160.989 300.371 160.914C300.495 160.79 307.89 184.388 306.153 202.824Z" fill="#A8BF96"/>
<path d="M316.452 207.49C303.474 220.914 303.747 228.829 303.772 228.953C303.697 228.854 311.588 231.037 325.111 217.192C338.833 203.395 350.421 177.217 350.223 177.168C350.247 177.366 329.479 194.239 316.452 207.49Z" fill="#A8BF96"/>
<path d="M286.626 239.872C282.83 257.886 274.74 261.186 274.865 261.137C274.74 261.137 270.2 255.033 273.922 237.713C277.768 220.468 286.055 197.689 285.907 197.59C286.055 197.491 290.571 221.758 286.626 239.872Z" fill="#A8BF96"/>
<path d="M296.276 245.727C281.76 257.488 281.066 265.404 281.09 265.528C281.041 265.429 288.609 268.53 303.72 256.397C319.03 244.313 333.645 219.797 333.447 219.747C333.447 219.946 310.817 234.139 296.276 245.727Z" fill="#A8BF96"/>
<path d="M259.207 288.431C258.935 288.207 258.662 287.959 258.389 287.736C283.301 258.431 303.152 225.306 317.271 189.748C317.618 189.872 317.941 190.021 318.288 190.145C304.12 225.802 284.195 259.027 259.207 288.431Z" fill="#A8BF96"/>
<path d="M271.959 270.838C273.597 263.791 282.132 231.335 281.909 229.97C282.257 230.045 282.629 230.094 282.976 230.169C282.927 230.343 281.239 238.779 278.882 248.059C276.599 257.34 273.621 267.439 273.076 270.912C272.703 270.888 272.331 270.863 271.959 270.838Z" fill="#A8BF96"/>
<path d="M273.871 269.721C273.821 269.349 273.747 268.977 273.697 268.605C280.744 267.066 296.426 253.22 296.501 252.948C296.724 253.22 296.972 253.518 297.196 253.791C296.625 254.536 281.166 268.108 273.871 269.721Z" fill="#A8BF96"/>
<path d="M294.518 236.62C295.907 230.515 298.314 213.072 298.215 212.898C298.587 212.923 298.934 212.948 299.307 212.972C299.406 213.121 297.024 230.64 295.609 236.768C295.262 236.744 294.89 236.669 294.518 236.62Z" fill="#A8BF96"/>
<path d="M293.524 240.418C293.251 240.17 292.978 239.921 292.705 239.698C299.157 232.254 312.655 219.897 312.729 219.649C312.953 219.947 313.201 220.22 313.424 220.517C313.35 220.716 299.901 233.048 293.524 240.418Z" fill="#A8BF96"/>
<path d="M21.8634 140.493C25.0644 159.376 32.831 162.651 32.7069 162.651C32.8061 162.602 37.5455 156.498 34.4934 138.458C31.2925 120.518 23.7493 95.5311 23.8981 95.3822C23.7493 95.2581 18.5136 121.511 21.8634 140.493Z" fill="#A8BF96"/>
<path d="M38.1179 160.989C36.0584 179.277 42.6835 184.91 42.5843 184.86C42.6835 184.885 48.9365 180.542 50.872 162.95C52.6337 145.382 51.9637 121.114 52.1126 121.065C51.9886 120.891 40.0781 142.578 38.1179 160.989Z" fill="#A8BF96"/>
<path d="M27.1257 163.521C37.1751 179.253 35.3637 186.945 35.3141 187.069C35.3885 186.97 27.2249 187.565 16.7041 171.313C5.98467 155.06 -0.193866 127.12 0.00464135 127.12C-0.0697988 127.294 16.977 147.963 27.1257 163.521Z" fill="#A8BF96"/>
<path d="M49.9298 201.162C50.1035 219.573 57.349 224.412 57.2497 224.337C57.3738 224.362 63.0312 219.276 62.8079 201.559C62.4357 183.892 58.8378 159.922 58.9866 159.872C58.8874 159.723 49.6568 182.626 49.9298 201.162Z" fill="#A8BF96"/>
<path d="M39.3103 205.008C51.1959 219.425 50.3275 227.315 50.2778 227.439C50.3523 227.34 42.3127 228.903 29.906 214.015C17.3008 199.152 7.82213 172.23 8.02064 172.205C7.97101 172.354 27.3503 190.74 39.3103 205.008Z" fill="#A8BF96"/>
<path d="M67.1996 254.19C67.5222 254.016 67.8447 253.842 68.1425 253.668C49.5325 219.997 36.6047 183.62 29.8306 145.978C29.4833 146.053 29.1111 146.102 28.7637 146.177C35.5874 183.918 48.5399 220.419 67.1996 254.19Z" fill="#A8BF96"/>
<path d="M58.1937 234.412C57.9704 227.192 56.035 193.669 56.5312 192.378C56.159 192.378 55.8117 192.354 55.4395 192.354C55.4643 192.527 55.4395 201.138 55.9357 210.691C56.3327 220.244 57.2508 230.74 57.102 234.239C57.4493 234.313 57.8215 234.363 58.1937 234.412Z" fill="#A8BF96"/>
<path d="M56.5286 232.948C56.6526 232.601 56.8015 232.228 56.9256 231.881C50.3252 228.978 37.6952 212.303 37.6952 212.006C37.4223 212.229 37.1245 212.477 36.8516 212.7C37.2238 213.544 49.7049 229.921 56.5286 232.948Z" fill="#A8BF96"/>
<path d="M42.8314 196.423C42.6825 190.17 43.7743 172.577 43.8984 172.453C43.5262 172.404 43.1788 172.354 42.8066 172.304C42.6825 172.428 41.5659 190.071 41.7148 196.348C42.1118 196.373 42.4592 196.398 42.8314 196.423Z" fill="#A8BF96"/>
<path d="M43.0814 200.32C43.404 200.146 43.7018 199.947 44.0243 199.774C39.1857 191.213 28.3919 176.4 28.3671 176.151C28.0941 176.375 27.7964 176.623 27.5234 176.846C27.5483 177.119 38.2676 191.833 43.0814 200.32Z" fill="#A8BF96"/>
<path d="M154.395 106.674L167.62 202.478C168.29 207.391 156.181 213.148 140.574 215.307C124.966 217.466 111.741 215.208 111.071 210.295L97.8452 114.49C97.2497 110.222 97.1753 104.366 97.7956 98.6592C98.4159 92.9521 99.7062 87.3691 101.89 83.6471C106.257 76.2279 108.838 73.7962 107.647 65.2604L105.587 50.2483L129.557 46.9481L131.616 61.9602C132.212 66.2281 133.279 68.7591 134.991 70.9923C136.703 73.2255 139.035 75.1113 142.137 78.0889C144.693 80.5454 147.025 84.3915 148.961 88.6594C148.961 88.6594 148.961 88.6594 148.961 88.6842C151.74 94.7387 153.7 101.662 154.395 106.674Z" fill="#4E6954"/>
<path d="M129.532 46.9229L131.542 61.5628C121.071 54.0195 111.617 55.558 106.456 56.6746L105.562 50.2231L129.532 46.9229Z" fill="#3D5242"/>
<path d="M102.486 40.3213L104.124 52.2069C104.447 54.589 110.848 55.6808 118.392 54.6386C125.935 53.5965 131.791 50.8174 131.468 48.4353L129.831 36.5497L102.486 40.3213Z" fill="#4E6954"/>
<path d="M116.752 42.7372C124.3 41.6957 130.153 38.9254 129.825 36.5498C129.497 34.1741 123.113 33.0926 115.565 34.1342C108.017 35.1758 102.164 37.946 102.492 40.3217C102.82 42.6973 109.204 43.7788 116.752 42.7372Z" fill="#709478"/>
<path d="M124.222 25.5834L124.942 37.3946C125.091 38.4616 123.279 39.6774 120.5 40.5211C119.334 40.8685 117.994 41.1662 116.555 41.3647C111.716 42.0347 107.622 41.3399 107.399 39.8015L105.488 30.9928L104.893 28.2385L124.222 25.5834Z" fill="#F4C174"/>
<path d="M124.221 25.5826L124.94 37.3938C125.089 38.4608 123.278 39.6766 120.499 40.5203C117.298 30.5949 109.531 30.3716 105.512 31.0168L104.916 28.2625L124.221 25.5826Z" fill="#DEAE66"/>
<path d="M114.989 29.9691C120.325 29.2328 124.461 27.2714 124.229 25.5881C123.997 23.9047 119.483 23.137 114.148 23.8732C108.813 24.6094 104.677 26.5708 104.909 28.2542C105.141 29.9375 109.654 30.7053 114.989 29.9691Z" fill="#FFE194"/>
<path d="M154.394 106.673L165.56 187.565L110.673 189.426L105.462 169.972L100.475 133.794C110.003 138.26 129.928 145.432 143.402 134.96C161.516 120.866 149.407 89.7007 148.96 88.6585C148.96 88.6585 148.96 88.6585 148.96 88.6833C151.739 94.7378 153.699 101.661 154.394 106.673Z" fill="#3D5242"/>
<path d="M285.086 163.991C285.086 163.991 271.463 170.765 260.868 178.953C258.213 181.013 255.756 183.147 253.747 185.281C243.722 195.975 241.588 211.583 241.588 211.583C230.075 214.561 216.154 203.345 216.154 203.345C216.154 203.345 222.779 194.412 223.846 172.452C224.095 167.44 223.946 162.626 223.574 158.234C222.482 144.761 219.405 135.083 219.405 135.083L227.221 143.098C227.221 143.098 228.065 150.865 229.504 158.259C230.844 165.083 232.705 171.609 234.938 171.46C237.122 171.336 237.221 165.48 236.725 159.326C236.154 152.428 234.839 145.182 234.839 145.182L240.025 144.785C240.025 144.785 240.397 155.182 242.258 161.113C243.077 163.718 244.193 165.455 245.682 165.108C246.402 164.934 247.022 164.487 247.543 163.842C250.595 160.145 250.645 150.046 250.645 150.046L256.253 151.088C256.253 151.088 252.704 159.847 251.538 166.82C250.943 170.343 250.967 173.395 252.357 174.686C253.474 175.703 255.632 175.529 258.312 174.611C267.096 171.658 281.339 161.088 281.339 161.088L285.086 163.991Z" fill="#82B861"/>
<path d="M219.404 135.083L227.221 143.098C227.221 143.098 228.064 150.865 229.503 158.259C227.345 158.11 225.335 158.135 223.548 158.259C222.481 144.761 219.404 135.083 219.404 135.083Z" fill="#75A657"/>
<path d="M240.074 144.787C240.074 144.787 240.446 155.184 242.307 161.114C240.446 160.345 238.585 159.775 236.749 159.328C236.178 152.43 234.863 145.184 234.863 145.184L240.074 144.787Z" fill="#75A657"/>
<path d="M256.326 151.064C256.326 151.064 252.778 159.823 251.612 166.795C250.321 165.679 248.957 164.686 247.592 163.843C250.644 160.145 250.693 150.046 250.693 150.046L256.326 151.064Z" fill="#75A657"/>
<path d="M285.085 163.993C285.085 163.993 271.463 170.767 260.868 178.956C260.098 177.392 259.255 175.928 258.361 174.564C267.145 171.611 281.388 161.04 281.388 161.04L285.085 163.993Z" fill="#75A657"/>
<path d="M306.845 123.347C311.733 115.333 309.649 101.933 301.088 99.4024C297.143 98.2362 295.555 95.0601 294.438 91.7351C294.19 91.0155 293.967 90.2711 293.744 89.5763C291.312 81.7601 279.724 77.5667 273.694 85.3581C272.28 81.6857 268.31 79.5021 264.365 80.445C262.578 70.3211 252.529 63.4478 242.33 65.9044C222.604 71.3137 234.688 86.7228 223.025 86.301C219.7 86.1769 216.475 87.5416 214.415 90.147C212.058 93.1246 211.214 97.2437 212.579 101.09C212.554 101.09 212.505 101.09 212.48 101.09C208.981 101.139 206.028 103.546 204.986 106.673C204.391 108.484 204.664 110.469 205.582 112.157C206.425 113.695 206.5 115.035 206.128 116.3C204.862 120.643 198.311 124.117 199.552 132.33C199.552 132.33 199.552 132.355 199.552 132.404C199.626 132.95 199.751 133.496 199.899 134.092C201.76 145.679 214.787 152.429 225.283 147.466C226.053 149.079 227.194 150.468 228.559 151.535C230.941 153.396 234.043 153.967 237.02 153.372C247.094 151.362 245.209 165.902 258.31 166.647C261.288 166.82 264.24 166.101 266.896 164.761C277.764 159.252 277.739 172.056 291.833 168.657C302.428 166.299 308.036 155.034 304.984 145.183C315.679 143.024 316.87 127.144 306.845 123.347Z" fill="#B4D86E"/>
<path d="M305.008 145.16C308.06 155.011 302.428 166.276 291.857 168.633C277.763 172.033 277.788 159.229 266.92 164.737C265.083 165.656 263.123 166.301 261.113 166.549C260.195 166.673 259.277 166.698 258.334 166.648C245.233 165.904 247.119 151.338 237.044 153.373C234.092 153.968 230.965 153.398 228.583 151.537C227.218 150.47 226.077 149.08 225.308 147.467C214.836 152.405 201.809 145.681 199.924 134.093C199.775 133.522 199.651 132.951 199.576 132.406C199.799 133.497 202.678 146.028 222.826 138.013C222.826 138.013 230.221 146.425 240.072 140.247C242.131 138.956 244.017 137.592 245.853 136.252C246.325 135.904 246.771 135.582 247.218 135.234C247.218 135.234 247.218 135.234 247.243 135.209C253.645 130.52 259.6 126.475 269.302 127.79C282.428 129.552 291.237 120.793 285.381 109.875C285.381 109.875 297.44 107.915 294.463 91.7365C295.604 95.0614 297.167 98.2376 301.113 99.4038C303.619 100.148 305.579 101.811 306.944 104.019C310.269 109.329 310.318 117.666 306.844 123.324C316.869 127.145 315.678 143.026 305.008 145.16Z" fill="#82B861"/>
<path d="M242.084 112.307C242.084 112.307 217.469 123.671 204.889 106.972C204.913 106.848 204.963 106.749 204.988 106.624C206.03 103.498 208.958 101.091 212.482 101.041C212.531 101.041 212.556 101.041 212.581 101.041C212.581 101.041 212.705 101.438 213.003 102.059C214.119 104.317 217.742 109.404 227.518 107.443C227.518 107.468 231.613 115.21 242.084 112.307Z" fill="#82B861"/>
<path d="M305.008 145.158C308.06 155.009 302.428 166.274 291.857 168.631C277.763 172.031 277.788 159.227 266.92 164.736C265.084 165.654 263.123 166.299 261.113 166.547C280.642 161.485 286.001 137.937 270.642 132.205C259.674 128.111 250.617 132.974 247.268 135.232C253.669 130.543 259.625 126.498 269.327 127.813C282.453 129.575 291.262 120.816 285.406 109.898C285.406 109.898 297.465 107.938 294.487 91.7593C295.629 95.0843 297.192 98.2605 301.137 99.4267C303.644 100.171 305.604 101.834 306.969 104.042C263.57 118.384 305.008 145.158 305.008 145.158Z" fill="#75A657"/>
<path d="M242.081 112.306C242.081 112.306 220.246 118.732 213 102.058C214.117 104.316 217.739 109.403 227.516 107.442C227.516 107.467 231.61 115.209 242.081 112.306Z" fill="#75A657"/>
<path d="M159.581 120.344L148.762 176.62C147.67 182.278 160.896 189.573 178.265 192.923C195.66 196.273 210.622 194.387 211.714 188.729L222.532 132.453L159.581 120.344Z" fill="#FFF7DC"/>
<path d="M187.174 146.523C169.805 143.173 156.579 135.878 157.671 130.22L151.319 163.297C150.227 168.954 163.453 176.249 180.822 179.599C198.216 182.949 213.179 181.063 214.27 175.405L220.623 142.329C219.556 147.987 204.568 149.872 187.174 146.523Z" fill="#F3694C"/>
<path d="M186.503 150.07C169.109 146.72 155.908 139.425 157 133.768L156.479 136.522C155.387 142.179 168.613 149.474 185.982 152.824C203.376 156.174 218.339 154.288 219.431 148.631L219.952 145.876C218.86 151.534 203.873 153.42 186.503 150.07Z" fill="white"/>
<path d="M222.531 132.456C223.621 126.79 210.409 119.486 193.022 116.142C175.635 112.797 160.657 114.678 159.567 120.344C158.477 126.01 171.689 133.314 189.076 136.658C206.463 140.003 221.441 138.121 222.531 132.456Z" fill="white"/>
<g opacity="0.54">
<path d="M220.919 132.132C220.597 133.844 218.214 135.233 214.368 136.077H214.344C208.686 137.293 199.778 137.293 189.332 135.283C171.714 131.884 160.35 124.837 161.168 120.618C161.441 119.179 163.154 117.963 165.982 117.12H166.007C171.491 115.482 181.168 115.234 192.781 117.467C210.373 120.866 221.738 127.938 220.919 132.132Z" fill="#F4C174"/>
</g>
<path d="M219.182 132.602C218.909 134.041 217.197 135.257 214.368 136.101H214.344C208.686 137.317 199.778 137.317 189.332 135.307C171.714 131.907 160.35 124.86 161.168 120.642C161.441 119.203 163.154 117.987 165.982 117.144H166.007C171.665 115.928 180.573 115.928 191.019 117.938C208.636 121.312 220.001 128.384 219.182 132.602Z" fill="#F4C174"/>
<path d="M169.953 118.955C166.38 118.26 163.179 119.153 162.832 120.965C162.484 122.776 165.114 124.786 168.688 125.481C172.261 126.175 174.916 125.158 175.263 123.372C175.635 121.56 173.526 119.65 169.953 118.955ZM170.623 125.059C168.588 124.662 167.149 123.223 167.397 121.858C167.67 120.493 169.531 119.674 171.566 120.071C173.601 120.468 175.04 121.908 174.792 123.272C174.544 124.637 172.658 125.456 170.623 125.059Z" fill="#FFF7DC"/>
<path d="M120.97 157.988C123.054 162.553 125.064 167.044 127 171.461C127.297 172.131 127.57 172.776 127.868 173.446C128.166 174.116 128.439 174.786 128.736 175.431C133.575 186.746 137.818 197.466 141.168 207.217C141.441 208.011 141.714 208.781 141.962 209.575C142.235 210.393 142.508 211.212 142.756 212.006C150.647 236.348 152.384 253.767 143.5 257.837C128.885 264.511 106.107 225.629 83.1047 175.332C60.1027 125.035 45.5372 82.3563 60.1523 75.6815C69.0355 71.6121 81.0948 84.3166 94.3451 106.202C94.7918 106.922 95.2136 107.666 95.6603 108.41C96.0821 109.105 96.5039 109.825 96.9257 110.544C102.112 119.452 107.447 129.651 112.831 140.717C113.154 141.363 113.451 142.008 113.774 142.678C114.072 143.323 114.394 143.968 114.717 144.613C116.801 148.955 118.886 153.422 120.97 157.988Z" fill="#DEAE66"/>
<path d="M96.9257 110.543C95.0151 111.759 92.8563 113 90.4743 114.067C81.5663 118.136 73.0801 118.732 73.0801 118.732C73.0801 118.732 79.0601 112.702 87.9681 108.632C90.1517 107.64 92.3353 106.846 94.3451 106.226C94.7918 106.945 95.2136 107.69 95.6603 108.434C96.0821 109.104 96.5039 109.824 96.9257 110.543Z" fill="#B58A48"/>
<path d="M95.6603 108.409L73.0801 118.732C73.0801 118.732 79.0601 112.702 87.9681 108.632C90.1517 107.64 92.3353 106.846 94.3452 106.226C94.7918 106.92 95.2136 107.665 95.6603 108.409Z" fill="#9E673E"/>
<path d="M114.715 144.612C112.457 146.175 109.677 147.837 106.576 149.277C97.6678 153.346 89.1816 153.942 89.1816 153.942C89.1816 153.942 95.1617 147.912 104.07 143.843C107.147 142.428 110.174 141.436 112.829 140.741C113.151 141.386 113.449 142.031 113.772 142.701C114.094 143.321 114.392 143.967 114.715 144.612Z" fill="#B58A48"/>
<path d="M113.772 142.676L89.1816 153.917C89.1816 153.917 95.1617 147.887 104.07 143.818C107.147 142.403 110.174 141.411 112.829 140.716C113.151 141.361 113.449 142.006 113.772 142.676Z" fill="#9E673E"/>
<path d="M127.001 171.461C127.299 172.131 127.572 172.777 127.869 173.446C128.167 174.116 128.44 174.786 128.738 175.432C126.48 176.97 123.75 178.632 120.673 180.022C111.765 184.091 103.279 184.687 103.279 184.687C103.279 184.687 109.259 178.657 118.167 174.588C121.269 173.149 124.321 172.156 127.001 171.461Z" fill="#B58A48"/>
<path d="M127.001 171.461C127.299 172.131 127.572 172.777 127.869 173.446L103.279 184.687C103.279 184.687 109.259 178.657 118.167 174.588C121.269 173.149 124.321 172.156 127.001 171.461Z" fill="#9E673E"/>
<path d="M141.118 207.218C141.391 208.012 141.664 208.781 141.912 209.575C142.185 210.394 142.458 211.212 142.706 212.007C140.919 213.123 138.909 214.24 136.701 215.257C127.793 219.326 119.307 219.922 119.307 219.922C119.307 219.922 125.287 213.892 134.195 209.823C136.626 208.682 138.959 207.863 141.118 207.218Z" fill="#B58A48"/>
<path d="M141.118 207.217C141.391 208.011 141.664 208.781 141.912 209.575L119.332 219.897C119.332 219.897 125.312 213.867 134.22 209.798C136.627 208.681 138.959 207.863 141.118 207.217Z" fill="#9E673E"/>
<path d="M135.711 170.865H60.9238V350.365H135.711V170.865Z" fill="#F4C174"/>
<path d="M275.931 170.865H135.711V350.365H275.931V170.865Z" fill="#DEAE66"/>
<path d="M275.658 170.865L294.79 213.123H154.842L135.711 170.865H275.658Z" fill="#F4C174"/>
<path d="M60.9231 214.115L137.1 226.497L135.711 170.865L60.7246 211.981L60.9231 214.115Z" fill="#DEAE66"/>
<path d="M60.2288 170.865L41.0977 213.122H116.555L135.711 170.865H60.2288Z" fill="#FFE194"/>
<path d="M156.799 330.167H151.092V344.807H156.799V330.167Z" fill="#FFE194"/>
<path d="M159.951 333.64L153.946 333.615L147.916 333.565L150.968 328.379L153.995 323.193L156.973 328.404L159.951 333.64Z" fill="#FFE194"/>
<path d="M170.549 330.167H164.842V344.807H170.549V330.167Z" fill="#FFE194"/>
<path d="M173.699 333.64L167.694 333.615L161.664 333.565L164.716 328.379L167.743 323.193L170.721 328.404L173.699 333.64Z" fill="#FFE194"/>
<path d="M113.55 347.884L99.0595 359.174L95.4863 361.953L95.5608 359.174L95.66 354.856L96.0322 340.043L96.3052 328.753H112.831L113.203 338.951L113.55 347.884Z" fill="#E6895A"/>
<path d="M126.23 361.954H95.4863L95.5608 359.175L95.66 354.857L113.526 347.885C113.526 347.91 113.55 347.959 113.6 348.009C113.625 348.034 113.625 348.058 113.65 348.083C113.823 348.307 114.146 348.629 114.593 349.026C114.89 349.299 115.238 349.597 115.635 349.944C115.734 350.019 115.808 350.093 115.908 350.168C116.081 350.316 116.255 350.465 116.429 350.614C116.503 350.664 116.553 350.738 116.627 350.788C116.652 350.813 116.702 350.862 116.727 350.887C116.925 351.061 117.148 351.235 117.347 351.433C117.918 351.929 118.513 352.475 119.133 353.021C119.208 353.096 119.282 353.17 119.357 353.22C119.679 353.517 120.002 353.815 120.325 354.138C120.424 354.237 120.523 354.311 120.597 354.411C120.647 354.46 120.697 354.51 120.746 354.56C121.044 354.857 121.317 355.13 121.615 355.428C121.689 355.502 121.764 355.602 121.863 355.676C122.012 355.825 122.161 355.974 122.31 356.148C122.384 356.222 122.458 356.296 122.533 356.371C122.607 356.445 122.682 356.52 122.756 356.594C123.029 356.892 123.277 357.165 123.525 357.463C123.6 357.562 123.674 357.661 123.774 357.761C123.898 357.909 124.022 358.083 124.146 358.232C124.394 358.555 124.617 358.852 124.816 359.15C124.89 359.274 124.989 359.398 125.064 359.497C125.114 359.547 125.138 359.621 125.188 359.671C125.238 359.721 125.262 359.795 125.312 359.845C125.337 359.894 125.386 359.969 125.411 360.019C125.511 360.192 125.61 360.366 125.709 360.54C125.759 360.664 125.833 360.763 125.883 360.887C125.883 360.912 125.908 360.937 125.908 360.961C125.932 361.011 125.957 361.061 125.982 361.11C126.007 361.16 126.007 361.21 126.032 361.234C126.056 361.284 126.081 361.334 126.106 361.383C126.131 361.458 126.156 361.532 126.18 361.607C126.205 361.656 126.205 361.681 126.23 361.731C126.205 361.855 126.205 361.904 126.23 361.954Z" fill="#F3694C"/>
<path d="M126.23 361.954H95.4863L95.5608 359.175H124.816C124.89 359.299 124.989 359.423 125.064 359.522C125.114 359.572 125.138 359.646 125.188 359.696C125.238 359.746 125.262 359.82 125.312 359.87C125.337 359.919 125.386 359.994 125.411 360.044C125.511 360.217 125.61 360.391 125.709 360.565C125.759 360.689 125.833 360.788 125.883 360.912C125.883 360.937 125.908 360.962 125.908 360.986C125.932 361.036 125.957 361.086 125.982 361.135C126.007 361.185 126.007 361.235 126.032 361.259C126.056 361.309 126.081 361.359 126.106 361.408C126.131 361.483 126.156 361.557 126.18 361.632C126.205 361.681 126.205 361.706 126.23 361.756C126.205 361.855 126.205 361.905 126.23 361.954Z" fill="#F7F7F7"/>
<path d="M112.83 351.011C112.731 351.011 112.631 350.961 112.557 350.887C112.408 350.738 112.433 350.49 112.582 350.366L114.368 348.753C114.517 348.604 114.765 348.629 114.89 348.778C115.038 348.927 115.014 349.175 114.865 349.299L113.078 350.912C113.004 350.961 112.904 351.011 112.83 351.011Z" fill="white"/>
<path d="M116.402 354.211C116.303 354.211 116.204 354.161 116.129 354.087C115.98 353.938 116.005 353.69 116.154 353.566L117.941 351.953C118.09 351.804 118.338 351.829 118.462 351.978C118.611 352.127 118.586 352.375 118.437 352.499L116.65 354.112C116.576 354.186 116.477 354.211 116.402 354.211Z" fill="white"/>
<path d="M114.668 352.575C114.569 352.575 114.469 352.526 114.395 352.451C114.246 352.302 114.271 352.054 114.42 351.93L116.206 350.317C116.355 350.168 116.603 350.193 116.727 350.342C116.876 350.491 116.851 350.739 116.703 350.863L114.916 352.476C114.842 352.526 114.767 352.575 114.668 352.575Z" fill="white"/>
<path d="M97.0764 354.931L82.5854 366.221L79.0371 369L79.0867 366.221L79.2108 361.903L79.5582 347.09L79.8311 335.775H96.3568L96.729 345.998L97.0764 354.931Z" fill="#FF9864"/>
<path d="M109.756 368.999H79.0371L79.1115 366.22L79.2108 361.902L97.0764 354.93C97.0764 354.955 97.1013 355.004 97.1509 355.054C97.1757 355.079 97.1757 355.104 97.2005 355.128C97.3742 355.352 97.6968 355.674 98.1434 356.071C98.4412 356.344 98.7886 356.642 99.1856 356.989C99.2848 357.064 99.3593 357.138 99.4585 357.213C99.6322 357.362 99.8059 357.511 99.9796 357.659C100.054 357.709 100.104 357.783 100.178 357.833C100.203 357.858 100.253 357.908 100.277 357.932C100.476 358.106 100.699 358.28 100.898 358.478C101.468 358.974 102.064 359.52 102.684 360.066C102.759 360.141 102.833 360.215 102.908 360.265C103.23 360.563 103.553 360.86 103.875 361.183C103.975 361.282 104.074 361.357 104.148 361.456C104.198 361.505 104.248 361.555 104.297 361.605C104.595 361.902 104.868 362.175 105.166 362.473C105.24 362.548 105.314 362.647 105.414 362.721C105.563 362.87 105.711 363.019 105.86 363.193C105.935 363.267 106.009 363.342 106.084 363.416C106.158 363.491 106.233 363.565 106.307 363.639C106.58 363.937 106.828 364.21 107.076 364.508C107.151 364.607 107.225 364.706 107.324 364.806C107.448 364.955 107.573 365.128 107.697 365.277C107.945 365.6 108.168 365.897 108.367 366.195C108.441 366.319 108.54 366.443 108.615 366.543C108.664 366.592 108.689 366.667 108.739 366.716C108.788 366.766 108.813 366.84 108.863 366.89C108.888 366.94 108.937 367.014 108.962 367.064C109.061 367.237 109.161 367.411 109.26 367.585C109.309 367.709 109.384 367.808 109.434 367.932C109.434 367.957 109.458 367.982 109.458 368.007C109.483 368.056 109.508 368.106 109.533 368.155C109.558 368.205 109.558 368.255 109.582 368.28C109.607 368.329 109.632 368.379 109.657 368.428C109.682 368.503 109.706 368.577 109.731 368.652C109.756 368.701 109.756 368.726 109.781 368.776C109.731 368.875 109.756 368.925 109.756 368.999Z" fill="#F3694C"/>
<path d="M109.756 368.999H79.0371L79.1115 366.22H108.367C108.441 366.344 108.54 366.468 108.615 366.568C108.664 366.617 108.689 366.692 108.739 366.741C108.788 366.791 108.813 366.865 108.863 366.915C108.888 366.965 108.937 367.039 108.962 367.089C109.061 367.262 109.161 367.436 109.26 367.61C109.309 367.734 109.384 367.833 109.434 367.957C109.434 367.982 109.458 368.007 109.458 368.032C109.483 368.081 109.508 368.131 109.533 368.181C109.558 368.23 109.558 368.28 109.582 368.305C109.607 368.354 109.632 368.404 109.657 368.454C109.682 368.528 109.706 368.602 109.731 368.677C109.756 368.726 109.756 368.751 109.781 368.801C109.731 368.875 109.756 368.925 109.756 368.999Z" fill="#F7F7F7"/>
<path d="M96.3554 358.032C96.2561 358.032 96.1569 357.982 96.0824 357.908C95.9336 357.759 95.9584 357.511 96.1073 357.387L97.8938 355.774C98.0427 355.625 98.2908 355.65 98.4149 355.799C98.5638 355.948 98.539 356.196 98.3901 356.32L96.6035 357.933C96.5291 358.007 96.4298 358.032 96.3554 358.032Z" fill="white"/>
<path d="M99.9296 361.257C99.8304 361.257 99.7311 361.208 99.6567 361.133C99.5078 360.985 99.5326 360.736 99.6815 360.612L101.468 358.999C101.617 358.851 101.865 358.875 101.989 359.024C102.138 359.173 102.113 359.421 101.964 359.545L100.178 361.158C100.103 361.208 100.029 361.257 99.9296 361.257Z" fill="white"/>
<path d="M98.2167 359.596C98.1175 359.596 98.0182 359.547 97.9438 359.472C97.7949 359.323 97.8197 359.075 97.9686 358.951L99.7552 357.338C99.904 357.189 100.152 357.214 100.276 357.363C100.425 357.512 100.4 357.76 100.251 357.884L98.4649 359.497C98.3904 359.571 98.2912 359.596 98.2167 359.596Z" fill="white"/>
<path d="M96.7275 345.998L79.5566 347.09L79.8296 335.775H96.3553L96.7275 345.998Z" fill="#E6895A"/>
<path d="M120.201 341.781H99.9034V344.758H68.4648C68.8867 330.466 72.7327 273.345 72.7327 273.345H116.876L120.201 341.781Z" fill="#F3694C"/>
<path d="M99.9033 341.779L98.9355 272.699H106.777L108.29 341.779H99.9033Z" fill="#BF523B"/>
<path d="M76.703 269.943C76.6534 270.911 76.6534 271.382 76.6534 271.878C76.6534 272.275 76.6534 272.672 76.6286 273.342C76.6286 273.491 76.6038 273.64 76.6038 273.814C76.5542 274.781 76.5045 275.278 76.4549 275.749C76.4053 276.221 76.3805 276.717 76.306 277.685C76.2564 278.652 76.182 279.149 76.1075 279.645C76.0331 280.116 75.9835 280.588 75.9338 281.555C75.8842 282.498 75.909 282.97 75.9338 283.466C75.9586 283.962 75.9835 284.459 75.9338 285.426C75.8842 286.394 75.8594 286.866 75.8346 287.362C75.8098 287.858 75.785 288.33 75.7353 289.297C75.6857 290.265 75.6113 290.761 75.5368 291.258C75.4624 291.754 75.4128 292.2 75.3383 293.168C75.2887 294.136 75.2887 294.607 75.3135 295.079C75.3135 295.55 75.3383 296.071 75.2887 297.039C75.2391 298.032 75.1398 298.528 75.0654 298.999C74.9909 299.496 74.8917 299.942 74.842 300.885C74.7924 301.853 74.7924 302.299 74.8172 302.796C74.842 303.267 74.8669 303.788 74.7924 304.756C74.7428 305.724 74.6684 306.22 74.5939 306.716C74.5195 307.213 74.445 307.659 74.3954 308.627C74.3458 309.595 74.3458 310.066 74.3706 310.538C74.3706 311.009 74.3954 311.53 74.321 312.498C74.2713 313.466 74.2465 313.962 74.2217 314.433C74.1969 314.905 74.1969 315.401 74.1225 316.369C74.0728 317.336 74.0232 317.833 73.9736 318.304C73.924 318.776 73.8991 319.272 73.8247 320.24C73.7751 321.207 73.7006 321.704 73.651 322.175C73.6014 322.646 73.5269 323.118 73.4773 324.086C73.4277 325.053 73.4277 325.525 73.4277 325.996C73.4277 326.468 73.4277 326.964 73.3781 327.957C73.3284 328.924 73.2788 329.421 73.254 329.892C73.2044 330.363 73.1796 330.86 73.1299 331.827C73.0803 332.795 73.0307 333.291 72.981 333.763C72.9314 334.234 72.9066 334.731 72.8322 335.698C72.7825 336.666 72.7577 337.162 72.7577 337.634C72.7329 338.105 72.7329 338.601 72.6833 339.569C72.6337 340.537 72.6337 341.008 72.6337 341.48C72.6337 341.951 72.6585 342.472 72.584 343.44C72.5592 344.011 72.5096 344.433 72.46 344.755H71.9141C71.9637 344.408 72.0133 344.011 72.0381 343.415C72.0878 342.448 72.0878 341.976 72.0878 341.505C72.0878 341.033 72.0629 340.512 72.1374 339.544C72.187 338.577 72.2118 338.08 72.2118 337.609C72.2118 337.137 72.2366 336.641 72.2863 335.673C72.3359 334.706 72.3855 334.209 72.4351 333.738C72.4848 333.267 72.5096 332.77 72.584 331.803C72.6337 330.835 72.6833 330.339 72.7081 329.867C72.7577 329.396 72.7825 328.899 72.8322 327.932C72.8818 326.964 72.8818 326.493 72.8818 326.021C72.8818 325.55 72.8818 325.053 72.9314 324.061C72.981 323.093 73.0555 322.597 73.1051 322.125C73.1547 321.654 73.2292 321.182 73.2788 320.215C73.3284 319.247 73.3781 318.751 73.4277 318.279C73.4773 317.808 73.5021 317.312 73.5766 316.344C73.6262 315.376 73.651 314.88 73.651 314.408C73.6758 313.937 73.6758 313.441 73.7503 312.473C73.7999 311.505 73.7999 311.034 73.7999 310.562C73.7999 310.091 73.7751 309.57 73.8495 308.602C73.8991 307.61 73.9736 307.138 74.048 306.642C74.1225 306.146 74.1969 305.699 74.2465 304.731C74.2962 303.788 74.2961 303.317 74.2713 302.821C74.2465 302.324 74.2217 301.828 74.2961 300.86C74.3458 299.868 74.445 299.371 74.5195 298.9C74.6187 298.404 74.6932 297.957 74.7428 297.014C74.7924 296.047 74.7924 295.6 74.7676 295.104C74.7428 294.607 74.7428 294.111 74.7924 293.143C74.842 292.176 74.9165 291.679 74.9909 291.183C75.0654 290.712 75.115 290.24 75.1894 289.272C75.2391 288.305 75.2639 287.833 75.2887 287.337C75.3135 286.866 75.3383 286.369 75.3879 285.402C75.4376 284.459 75.4127 283.987 75.3879 283.491C75.3631 282.995 75.3383 282.498 75.3879 281.531C75.4376 280.563 75.512 280.067 75.5864 279.57C75.6609 279.099 75.7105 278.628 75.7601 277.66C75.8098 276.692 75.8594 276.196 75.909 275.724C75.9586 275.253 75.9835 274.757 76.0579 273.789C76.0579 273.64 76.0827 273.466 76.0827 273.342C76.1075 272.672 76.1075 272.25 76.1075 271.853C76.1075 271.382 76.1075 270.886 76.1572 269.893L76.703 269.943Z" fill="#BF523B"/>
<path d="M80.7731 269.944C80.7235 270.912 80.6987 271.408 80.649 271.88C80.6242 272.277 80.5994 272.674 80.5746 273.344C80.5746 273.492 80.5498 273.641 80.5498 273.815C80.5001 274.783 80.4753 275.254 80.4753 275.75C80.4505 276.222 80.4257 276.718 80.4009 277.686C80.3513 278.654 80.3513 279.125 80.3513 279.621C80.3513 280.093 80.3513 280.589 80.3016 281.582C80.252 282.549 80.1776 283.046 80.1031 283.542C80.0287 284.038 79.9543 284.485 79.9294 285.452C79.8798 286.42 79.8798 286.916 79.8798 287.388C79.8798 287.859 79.8798 288.356 79.8302 289.323C79.7806 290.291 79.7806 290.763 79.8054 291.234C79.8054 291.705 79.8054 292.202 79.7806 293.194C79.7309 294.162 79.6813 294.658 79.6317 295.13C79.582 295.601 79.5324 296.097 79.4828 297.04C79.4332 298.008 79.4084 298.479 79.4084 298.976C79.3835 299.472 79.3587 299.943 79.3339 300.911C79.2843 301.879 79.2843 302.35 79.3091 302.822C79.3091 303.293 79.3091 303.79 79.2843 304.782C79.2347 305.775 79.1602 306.271 79.0858 306.742C79.0113 307.239 78.9369 307.685 78.8873 308.653C78.8376 309.621 78.8128 310.092 78.788 310.588C78.7632 311.085 78.7384 311.556 78.6888 312.524C78.6391 313.492 78.664 313.938 78.6888 314.434C78.7136 314.906 78.7136 315.427 78.6888 316.395C78.6391 317.362 78.5647 317.859 78.5151 318.355C78.4406 318.851 78.391 319.298 78.3414 320.266C78.2918 321.233 78.2918 321.73 78.2918 322.201C78.2918 322.673 78.2918 323.169 78.2421 324.137C78.1925 325.104 78.1925 325.576 78.1677 326.072C78.1677 326.568 78.1429 327.04 78.0933 328.007C78.0436 328.975 78.0684 329.447 78.0684 329.918C78.0684 330.389 78.0932 330.911 78.0436 331.878C77.994 332.846 77.9692 333.342 77.9444 333.814C77.9196 334.285 77.8947 334.781 77.8451 335.749C77.7955 336.717 77.7459 337.213 77.7211 337.685C77.6714 338.156 77.6466 338.652 77.597 339.62C77.5474 340.588 77.5225 341.084 77.4729 341.556C77.4481 342.027 77.3985 342.523 77.3489 343.491C77.324 344.062 77.2992 344.483 77.2744 344.831H76.7285C76.7533 344.483 76.7781 344.062 76.803 343.466C76.8526 342.498 76.8774 342.002 76.927 341.531C76.9518 341.059 77.0015 340.563 77.0511 339.595C77.1007 338.628 77.1503 338.131 77.1752 337.66C77.2248 337.188 77.2496 336.692 77.2992 335.749C77.3488 334.781 77.3737 334.285 77.3985 333.814C77.4233 333.342 77.4481 332.846 77.4977 331.878C77.5474 330.911 77.5225 330.439 77.5225 329.968C77.4977 329.496 77.4977 329 77.5474 328.007C77.597 327.04 77.597 326.568 77.6218 326.072C77.6466 325.576 77.6466 325.104 77.6962 324.137C77.7459 323.169 77.7459 322.697 77.7459 322.201C77.7459 321.73 77.7459 321.233 77.7955 320.266C77.8451 319.273 77.9196 318.777 77.9692 318.305C78.0436 317.809 78.0932 317.362 78.1429 316.395C78.1925 315.452 78.1677 314.956 78.1429 314.484C78.1181 314.013 78.0932 313.492 78.1429 312.524C78.1925 311.556 78.2173 311.06 78.2421 310.588C78.2669 310.117 78.2918 309.621 78.3414 308.653C78.391 307.66 78.4654 307.164 78.5399 306.693C78.6143 306.196 78.6888 305.75 78.7384 304.782C78.788 303.814 78.788 303.343 78.7632 302.871C78.7632 302.4 78.7384 301.904 78.788 300.911C78.8377 299.943 78.8625 299.447 78.8625 298.976C78.8873 298.479 78.9121 298.008 78.9369 297.04C78.9865 296.073 79.0362 295.576 79.0858 295.105C79.1354 294.633 79.185 294.137 79.2347 293.194C79.2843 292.226 79.2843 291.755 79.2595 291.284C79.2595 290.812 79.2595 290.316 79.2843 289.323C79.3339 288.356 79.3339 287.859 79.3339 287.388C79.3339 286.916 79.3339 286.42 79.3835 285.452C79.4332 284.46 79.5076 283.964 79.5572 283.492C79.6317 282.996 79.7061 282.549 79.7309 281.582C79.7806 280.614 79.7806 280.142 79.7806 279.671C79.7806 279.199 79.7806 278.703 79.8302 277.711C79.8798 276.743 79.9046 276.272 79.9046 275.775C79.9294 275.279 79.9542 274.808 79.9791 273.84C79.9791 273.691 80.0039 273.542 80.0039 273.393C80.0287 272.698 80.0783 272.301 80.1031 271.904C80.1279 271.433 80.1776 270.937 80.2272 269.969L80.7731 269.944Z" fill="#BF523B"/>
<path d="M84.519 273.815C84.4942 274.783 84.519 275.254 84.519 275.726C84.5438 276.197 84.5686 276.693 84.519 277.686C84.4942 278.654 84.4693 279.125 84.4693 279.621C84.4693 280.118 84.4445 280.589 84.4197 281.557C84.3949 282.524 84.3701 282.996 84.3701 283.492C84.3701 283.988 84.3453 284.46 84.3205 285.428C84.2957 286.42 84.2212 286.916 84.1716 287.388C84.0972 287.884 84.0475 288.331 84.0227 289.299C83.9979 290.266 83.9731 290.738 83.9731 291.234C83.9731 291.73 83.9483 292.202 83.9235 293.169C83.8986 294.137 83.8986 294.609 83.9235 295.08C83.9483 295.551 83.9483 296.048 83.9235 297.04C83.8986 298.008 83.8242 298.529 83.7746 299.001C83.725 299.497 83.6505 299.943 83.6257 300.911C83.6009 301.879 83.6009 302.35 83.6009 302.847C83.6009 303.318 83.6009 303.814 83.5761 304.782C83.5513 305.75 83.5761 306.221 83.6009 306.693C83.6257 307.164 83.6505 307.685 83.6257 308.653C83.6009 309.646 83.5264 310.142 83.452 310.613C83.3776 311.109 83.3279 311.556 83.2783 312.524C83.2535 313.492 83.2287 313.988 83.2287 314.459C83.2287 314.931 83.2287 315.427 83.1791 316.395C83.1542 317.362 83.1046 317.859 83.0798 318.33C83.055 318.802 83.0054 319.298 82.9805 320.241C82.9557 321.184 83.0054 321.655 83.0302 322.151C83.0798 322.648 83.1294 323.144 83.1046 324.137C83.0798 325.129 83.0054 325.625 82.9309 326.097C82.8565 326.593 82.782 327.04 82.7572 328.007C82.7324 328.975 82.7324 329.447 82.7572 329.918C82.782 330.389 82.782 330.886 82.7572 331.878C82.7324 332.846 82.7324 333.342 82.7324 333.814C82.7324 334.285 82.7324 334.781 82.7076 335.749C82.6828 336.717 82.6332 337.213 82.5835 337.709C82.5339 338.181 82.4843 338.652 82.4595 339.62C82.4347 340.588 82.4098 341.084 82.385 341.556C82.3602 342.027 82.3354 342.523 82.3106 343.491C82.2858 344.086 82.2858 344.483 82.2858 344.831H81.6406C81.6406 344.483 81.6406 344.062 81.6654 343.466C81.6903 342.498 81.7151 342.002 81.7399 341.531C81.7647 341.059 81.7895 340.563 81.8143 339.595C81.8391 338.628 81.8888 338.131 81.9384 337.635C81.988 337.164 82.0376 336.667 82.0625 335.724C82.0873 334.757 82.0873 334.285 82.0873 333.789C82.0873 333.317 82.0873 332.821 82.1121 331.853C82.1369 330.886 82.1369 330.414 82.1121 329.943C82.0873 329.471 82.0873 328.975 82.1121 327.983C82.1369 326.99 82.2113 326.494 82.2858 326.022C82.3602 325.526 82.4347 325.079 82.4595 324.112C82.4843 323.169 82.4347 322.697 82.4098 322.201C82.3602 321.705 82.3106 321.209 82.3602 320.241C82.385 319.273 82.4347 318.777 82.4595 318.305C82.4843 317.834 82.5339 317.338 82.5587 316.395C82.5835 315.427 82.6083 314.931 82.6083 314.459C82.6083 313.988 82.6083 313.492 82.658 312.524C82.6828 311.531 82.7572 311.035 82.8317 310.564C82.9061 310.067 82.9805 309.621 83.0054 308.653C83.0302 307.71 83.0054 307.214 82.9805 306.742C82.9557 306.271 82.9309 305.75 82.9557 304.782C82.9805 303.814 82.9805 303.318 82.9805 302.847C82.9805 302.375 82.9805 301.879 83.0054 300.911C83.0302 299.943 83.1046 299.447 83.1542 298.951C83.2039 298.455 83.2783 298.008 83.3031 297.04C83.3279 296.073 83.3279 295.601 83.3031 295.13C83.2783 294.658 83.2783 294.162 83.3031 293.169C83.3279 292.202 83.3527 291.73 83.3527 291.234C83.3776 290.763 83.3776 290.266 83.4024 289.299C83.4272 288.306 83.5016 287.81 83.5513 287.338C83.6257 286.842 83.6753 286.395 83.7001 285.428C83.7249 284.46 83.7498 283.988 83.7498 283.492C83.7498 282.996 83.7746 282.524 83.7994 281.557C83.8242 280.589 83.849 280.118 83.849 279.621C83.849 279.15 83.8738 278.654 83.8986 277.686C83.9235 276.718 83.8986 276.247 83.8986 275.775C83.8738 275.304 83.849 274.808 83.8986 273.815C83.8986 273.666 83.8986 273.517 83.9235 273.368C83.9483 272.674 84.0227 272.252 84.0475 271.855C84.122 271.358 84.1716 270.912 84.1964 269.944L84.7423 269.969C84.7175 270.961 84.643 271.458 84.5934 271.929C84.5438 272.326 84.4942 272.723 84.4693 273.368C84.519 273.492 84.519 273.641 84.519 273.815Z" fill="#BF523B"/>
<path d="M88.5649 273.815C88.54 274.758 88.5897 275.229 88.6145 275.725C88.6393 276.197 88.6889 276.718 88.6641 277.686C88.6393 278.653 88.6393 279.15 88.6145 279.621C88.6145 280.092 88.5897 280.589 88.5649 281.556C88.54 282.524 88.54 282.996 88.54 283.492C88.54 283.988 88.5401 284.46 88.5152 285.427C88.4904 286.395 88.4656 286.891 88.4408 287.363C88.416 287.834 88.3912 288.331 88.3664 289.298C88.3415 290.266 88.2919 290.762 88.2671 291.234C88.2175 291.705 88.1927 292.201 88.1678 293.144C88.143 294.087 88.1927 294.559 88.2175 295.055C88.2423 295.526 88.2919 296.047 88.2671 297.015C88.2423 298.008 88.1927 298.504 88.1182 298.975C88.0438 299.472 87.9942 299.918 87.9693 300.886C87.9445 301.829 87.9941 302.3 88.0438 302.797C88.0934 303.268 88.143 303.789 88.1182 304.757C88.0934 305.749 88.019 306.246 87.9693 306.717C87.8949 307.213 87.8453 307.66 87.8205 308.628C87.7956 309.596 87.8205 310.067 87.8453 310.538C87.8701 311.01 87.8949 311.531 87.8701 312.499C87.8453 313.466 87.8205 313.963 87.7956 314.434C87.7708 314.906 87.746 315.402 87.7212 316.37C87.6964 317.337 87.7212 317.809 87.7212 318.28C87.746 318.752 87.746 319.248 87.7212 320.24C87.6964 321.208 87.6468 321.729 87.5971 322.201C87.5475 322.697 87.4731 323.144 87.4731 324.111C87.4483 325.079 87.4731 325.575 87.4731 326.047C87.4731 326.518 87.4979 327.015 87.4731 327.982C87.4483 328.95 87.4483 329.421 87.4731 329.918C87.4731 330.389 87.4979 330.885 87.4731 331.853C87.4483 332.821 87.3986 333.317 87.3738 333.813C87.3242 334.285 87.2994 334.781 87.2746 335.724C87.2498 336.692 87.2498 337.188 87.2249 337.66C87.2249 338.156 87.2001 338.627 87.1753 339.595C87.1505 340.563 87.1753 341.034 87.2001 341.506C87.2249 341.977 87.2498 342.473 87.2249 343.466C87.2001 344.061 87.2001 344.458 87.1753 344.806H86.6294C86.6542 344.458 86.679 344.061 86.679 343.466C86.7039 342.498 86.679 342.027 86.6542 341.555C86.6294 341.084 86.6046 340.587 86.6294 339.595C86.6542 338.627 86.6542 338.156 86.679 337.66C86.679 337.188 86.7039 336.692 86.7287 335.724C86.7535 334.756 86.8031 334.26 86.8279 333.764C86.8775 333.292 86.9024 332.796 86.9272 331.853C86.952 330.885 86.952 330.389 86.9272 329.918C86.9272 329.446 86.9024 328.95 86.9272 327.982C86.952 327.015 86.9272 326.543 86.9272 326.047C86.9272 325.575 86.9024 325.079 86.9272 324.111C86.952 323.119 87.0016 322.623 87.0512 322.151C87.1009 321.655 87.1505 321.208 87.1753 320.24C87.2001 319.273 87.1753 318.801 87.1753 318.33C87.1753 317.858 87.1505 317.362 87.1753 316.394C87.2001 315.427 87.2249 314.93 87.2498 314.459C87.2746 313.988 87.2994 313.491 87.3242 312.524C87.349 311.556 87.3242 311.084 87.2994 310.613C87.2746 310.141 87.2498 309.645 87.2746 308.653C87.2994 307.66 87.3738 307.164 87.4234 306.692C87.4979 306.196 87.5475 305.75 87.5723 304.782C87.5971 303.839 87.5475 303.367 87.4979 302.871C87.4483 302.375 87.3986 301.879 87.4234 300.911C87.4483 299.918 87.5227 299.422 87.5723 298.951C87.6468 298.454 87.6964 298.008 87.7212 297.04C87.746 296.097 87.6964 295.626 87.6716 295.129C87.6219 294.658 87.5971 294.137 87.622 293.169C87.6468 292.201 87.6964 291.705 87.7212 291.209C87.7708 290.737 87.7956 290.241 87.8205 289.298C87.8453 288.331 87.8701 287.834 87.8949 287.363C87.9197 286.891 87.9445 286.395 87.9693 285.427C87.9942 284.46 87.9942 283.988 87.9942 283.492C87.9942 282.996 87.9942 282.524 88.019 281.556C88.0438 280.589 88.0438 280.117 88.0686 279.621C88.0686 279.15 88.0934 278.653 88.1182 277.686C88.143 276.718 88.0934 276.271 88.0686 275.775C88.0438 275.279 87.9942 274.782 88.019 273.815C88.019 273.666 88.019 273.492 88.019 273.368C88.0438 272.673 88.0934 272.251 88.1182 271.854C88.1678 271.383 88.2175 270.912 88.2423 269.944H88.7882C88.7634 270.912 88.7137 271.408 88.6641 271.904C88.6145 272.301 88.5897 272.698 88.5649 273.343C88.5649 273.492 88.5649 273.641 88.5649 273.815Z" fill="#BF523B"/>
<path d="M92.6078 277.661C92.6078 278.604 92.6326 279.075 92.6822 279.572C92.7318 280.043 92.7815 280.564 92.7815 281.532C92.7815 282.524 92.707 283.021 92.6326 283.492C92.5581 283.988 92.5085 284.435 92.4837 285.403C92.4837 286.346 92.5085 286.817 92.5581 287.313C92.6078 287.785 92.6326 288.306 92.6326 289.274C92.6326 290.241 92.6326 290.738 92.6574 291.209C92.6822 291.681 92.6822 292.177 92.6822 293.145C92.6822 294.112 92.6574 294.584 92.6574 295.08C92.6574 295.551 92.6326 296.048 92.6326 297.015C92.6326 297.983 92.6078 298.479 92.6078 298.951C92.6078 299.422 92.583 299.919 92.583 300.886C92.583 301.854 92.5581 302.35 92.5333 302.822C92.5085 303.293 92.4837 303.79 92.4837 304.757C92.4837 305.725 92.4837 306.196 92.5085 306.693C92.5333 307.164 92.5333 307.66 92.5333 308.628C92.5333 309.596 92.5085 310.092 92.4837 310.564C92.4589 311.035 92.4341 311.531 92.4341 312.499C92.4341 313.467 92.4341 313.938 92.4341 314.434C92.4341 314.931 92.4341 315.402 92.4341 316.37C92.4341 317.338 92.3844 317.834 92.3596 318.305C92.3348 318.777 92.31 319.273 92.2852 320.216C92.2852 321.184 92.31 321.655 92.3348 322.127C92.3596 322.598 92.3844 323.094 92.3844 324.087C92.3844 325.055 92.3596 325.551 92.3596 326.022C92.3348 326.494 92.3348 326.99 92.3348 327.958C92.3348 328.925 92.3596 329.397 92.3596 329.868C92.3844 330.34 92.4093 330.836 92.4093 331.829C92.4093 332.796 92.3844 333.268 92.3844 333.764C92.3844 334.236 92.3844 334.732 92.3596 335.7C92.3596 336.667 92.31 337.164 92.2604 337.66C92.2107 338.131 92.1859 338.628 92.1611 339.57C92.1611 340.538 92.1611 341.034 92.1859 341.506C92.1859 341.977 92.2108 342.474 92.1859 343.441C92.1859 344.037 92.1611 344.434 92.1611 344.781H91.6152C91.64 344.434 91.64 344.037 91.64 343.441C91.64 342.474 91.64 341.977 91.64 341.506C91.64 341.034 91.6152 340.538 91.6152 339.57C91.6152 338.603 91.6649 338.106 91.7145 337.61C91.7641 337.139 91.7889 336.642 91.8137 335.7C91.8137 334.732 91.8386 334.26 91.8386 333.764C91.8386 333.268 91.8386 332.796 91.8634 331.829C91.8634 330.861 91.8386 330.389 91.8137 329.918C91.7889 329.447 91.7641 328.95 91.7889 327.958C91.7889 326.99 91.8137 326.494 91.8137 326.022C91.8137 325.551 91.8386 325.055 91.8386 324.087C91.8386 323.119 91.8137 322.648 91.7889 322.176C91.7641 321.705 91.7393 321.209 91.7393 320.216C91.7393 319.248 91.7889 318.752 91.8137 318.281C91.8386 317.809 91.8634 317.313 91.8882 316.37C91.8882 315.402 91.8882 314.931 91.8882 314.434C91.8882 313.938 91.8882 313.467 91.8882 312.499C91.8882 311.531 91.913 311.035 91.9378 310.564C91.9626 310.092 91.9874 309.596 91.9874 308.628C91.9874 307.66 91.9874 307.189 91.9626 306.693C91.9378 306.221 91.9378 305.725 91.9378 304.757C91.9378 303.79 91.9626 303.293 91.9874 302.822C92.0122 302.35 92.0371 301.854 92.0371 300.886C92.0371 299.919 92.0619 299.422 92.0619 298.951C92.0619 298.455 92.0867 297.983 92.0867 297.015C92.0867 296.048 92.1115 295.551 92.1115 295.08C92.1115 294.609 92.1363 294.112 92.1363 293.145C92.1363 292.177 92.1363 291.705 92.1115 291.209C92.0867 290.738 92.0867 290.241 92.0867 289.274C92.0867 288.331 92.0619 287.859 92.0122 287.363C91.9626 286.892 91.9378 286.395 91.9378 285.403C91.9378 284.41 92.0122 283.914 92.0867 283.443C92.1611 282.946 92.2108 282.5 92.2356 281.532C92.2356 280.589 92.1859 280.118 92.1363 279.621C92.0867 279.15 92.0371 278.629 92.0371 277.661C92.0371 276.693 92.0619 276.197 92.1115 275.726C92.1363 275.254 92.1611 274.758 92.1859 273.815C92.1859 273.641 92.1859 273.492 92.1859 273.368C92.1859 272.674 92.2108 272.277 92.2356 271.88C92.2604 271.408 92.2852 270.912 92.2852 269.944H92.8311C92.8311 270.912 92.8063 271.408 92.7815 271.88C92.7566 272.277 92.7318 272.674 92.7318 273.344C92.7318 273.492 92.7318 273.641 92.7318 273.79C92.7318 274.758 92.6822 275.254 92.6574 275.75C92.6574 276.222 92.6078 276.718 92.6078 277.661Z" fill="#BF523B"/>
<path d="M97.028 343.415C97.028 344.011 97.028 344.433 97.0032 344.755H96.4573C96.4822 344.408 96.4822 344.011 96.4822 343.415C96.4822 342.448 96.4822 341.976 96.4573 341.48C96.4573 340.984 96.4325 340.512 96.4325 339.545C96.4325 338.577 96.4077 338.081 96.4077 337.609C96.4077 337.138 96.3829 336.641 96.3829 335.674C96.3829 334.706 96.3581 334.234 96.3333 333.763C96.3085 333.292 96.2836 332.795 96.2836 331.828C96.2836 330.835 96.3333 330.339 96.4077 329.867C96.4822 329.371 96.5318 328.924 96.5318 327.957C96.5318 326.989 96.507 326.518 96.4822 326.046C96.4573 325.575 96.4325 325.078 96.4325 324.111C96.4325 323.143 96.4573 322.647 96.4822 322.175C96.507 321.704 96.5318 321.207 96.5318 320.265C96.5318 319.297 96.507 318.801 96.507 318.329C96.507 317.858 96.4822 317.361 96.4822 316.394C96.4822 315.426 96.4822 314.93 96.507 314.458C96.5318 313.987 96.5318 313.491 96.5318 312.523C96.5318 311.58 96.4822 311.108 96.4325 310.612C96.3829 310.141 96.3333 309.644 96.3333 308.652C96.3333 307.684 96.3829 307.163 96.4077 306.692C96.4573 306.195 96.4822 305.724 96.4822 304.781C96.4822 303.813 96.4573 303.342 96.4325 302.87C96.4077 302.399 96.3829 301.903 96.3829 300.935C96.3829 299.967 96.3581 299.496 96.3333 299.024C96.3085 298.553 96.2836 298.057 96.2836 297.089C96.2836 296.121 96.2836 295.65 96.2588 295.153C96.2588 294.657 96.234 294.186 96.234 293.218C96.234 292.25 96.2588 291.754 96.3085 291.258C96.3333 290.786 96.3829 290.29 96.3829 289.347C96.3829 288.379 96.3829 287.883 96.3829 287.412C96.3829 286.94 96.3829 286.444 96.3829 285.476C96.3829 284.508 96.3829 284.012 96.3829 283.541C96.3829 283.069 96.3829 282.573 96.3829 281.605C96.3829 280.662 96.3333 280.191 96.2836 279.695C96.234 279.223 96.1844 278.702 96.1596 277.734C96.1596 276.767 96.1596 276.27 96.1596 275.799C96.1596 275.328 96.1596 274.831 96.1596 273.864C96.1596 273.69 96.1596 273.541 96.1596 273.417C96.1596 272.747 96.1596 272.35 96.1596 271.953C96.1596 271.457 96.1596 270.985 96.1348 270.017H96.6807C96.6807 270.985 96.6807 271.457 96.7055 271.953C96.7055 272.35 96.7055 272.747 96.7055 273.442C96.7055 273.591 96.7055 273.739 96.7055 273.888C96.7055 274.856 96.7055 275.352 96.7055 275.824C96.7055 276.32 96.7055 276.792 96.7055 277.759C96.7055 278.702 96.7551 279.174 96.8047 279.67C96.8544 280.141 96.904 280.662 96.904 281.63C96.904 282.598 96.904 283.094 96.904 283.566C96.904 284.062 96.904 284.533 96.904 285.501C96.904 286.469 96.904 286.965 96.904 287.436C96.904 287.908 96.904 288.404 96.904 289.372C96.904 290.34 96.8792 290.836 96.8295 291.332C96.8047 291.804 96.7551 292.3 96.7551 293.243C96.7551 294.211 96.7551 294.682 96.7799 295.178C96.7799 295.675 96.8047 296.146 96.8047 297.114C96.8047 298.081 96.8295 298.553 96.8544 299.024C96.8792 299.496 96.904 299.992 96.904 300.985C96.904 301.952 96.9288 302.424 96.9536 302.895C96.9784 303.367 97.0032 303.863 97.0032 304.831C97.0032 305.798 96.9536 306.319 96.9288 306.791C96.8792 307.287 96.8544 307.734 96.8544 308.702C96.8544 309.644 96.904 310.116 96.9536 310.612C97.0032 311.084 97.0529 311.58 97.0529 312.572C97.0529 313.54 97.0529 314.036 97.028 314.508C97.028 314.979 97.0032 315.476 97.0032 316.443C97.0032 317.411 97.028 317.907 97.028 318.379C97.0529 318.85 97.0529 319.346 97.0529 320.314C97.0529 321.282 97.028 321.778 97.0032 322.274C96.9784 322.746 96.9536 323.242 96.9536 324.185C96.9536 325.153 96.9784 325.624 97.0032 326.096C97.028 326.567 97.0529 327.063 97.0529 328.031C97.0529 329.024 97.0032 329.52 96.9288 329.991C96.8792 330.488 96.8047 330.934 96.8047 331.902C96.8047 332.87 96.8295 333.341 96.8544 333.813C96.8792 334.284 96.904 334.78 96.904 335.773C96.904 336.741 96.9288 337.237 96.9288 337.708C96.9288 338.18 96.9536 338.676 96.9536 339.644C96.9536 340.612 96.9536 341.083 96.9784 341.579C97.028 341.976 97.028 342.448 97.028 343.415Z" fill="#BF523B"/>
<path d="M101.963 341.777H101.417C101.417 341.678 101.417 341.578 101.417 341.479C101.417 341.008 101.417 340.512 101.393 339.544L101.343 335.673C101.318 334.705 101.318 334.209 101.293 333.737C101.269 333.266 101.244 332.77 101.244 331.802C101.219 330.834 101.194 330.363 101.144 329.891C101.095 329.42 101.045 328.924 101.045 327.931C101.02 326.939 101.07 326.442 101.12 325.971C101.169 325.475 101.219 325.028 101.194 324.06C101.169 323.117 101.12 322.646 101.045 322.15C100.971 321.678 100.921 321.157 100.896 320.189C100.871 319.222 100.896 318.725 100.921 318.229C100.946 317.758 100.946 317.261 100.946 316.294C100.921 315.326 100.946 314.83 100.971 314.358C100.996 313.887 100.996 313.39 100.971 312.423C100.946 311.455 100.946 310.959 100.946 310.487C100.946 310.016 100.946 309.52 100.921 308.552C100.896 307.584 100.871 307.113 100.847 306.641C100.822 306.17 100.772 305.674 100.772 304.706C100.747 303.738 100.747 303.267 100.723 302.77C100.698 302.274 100.698 301.803 100.673 300.835C100.648 299.867 100.673 299.371 100.673 298.899C100.673 298.428 100.673 297.932 100.673 296.964C100.648 295.996 100.673 295.5 100.698 295.029C100.723 294.557 100.723 294.061 100.723 293.093C100.698 292.15 100.648 291.679 100.574 291.183C100.499 290.711 100.45 290.19 100.425 289.222C100.4 288.255 100.425 287.758 100.45 287.287C100.474 286.815 100.499 286.319 100.474 285.376C100.45 284.408 100.474 283.912 100.524 283.416C100.549 282.944 100.574 282.448 100.574 281.505C100.549 280.538 100.549 280.066 100.524 279.57C100.499 279.074 100.499 278.602 100.474 277.634C100.45 276.667 100.425 276.195 100.4 275.724C100.375 275.252 100.326 274.756 100.301 273.764C100.301 273.59 100.301 273.441 100.301 273.292C100.301 272.622 100.301 272.2 100.301 271.803C100.301 271.332 100.326 270.836 100.301 269.868H100.847C100.871 270.836 100.847 271.332 100.847 271.803C100.847 272.2 100.822 272.597 100.847 273.267C100.847 273.416 100.847 273.565 100.847 273.714C100.871 274.682 100.896 275.153 100.921 275.625C100.946 276.096 100.996 276.592 101.02 277.585C101.045 278.552 101.045 279.024 101.07 279.52C101.095 280.016 101.095 280.488 101.12 281.456C101.144 282.423 101.095 282.92 101.07 283.416C101.045 283.887 101.02 284.384 101.02 285.327C101.045 286.294 101.02 286.791 100.996 287.287C100.971 287.758 100.971 288.255 100.971 289.197C100.996 290.14 101.045 290.612 101.12 291.108C101.194 291.58 101.244 292.101 101.269 293.068C101.293 294.036 101.269 294.532 101.244 295.004C101.219 295.475 101.219 295.971 101.219 296.939C101.244 297.907 101.219 298.403 101.219 298.875C101.219 299.346 101.219 299.842 101.219 300.81C101.244 301.778 101.244 302.249 101.269 302.746C101.269 303.242 101.293 303.713 101.318 304.681C101.343 305.649 101.368 306.12 101.393 306.592C101.417 307.063 101.467 307.559 101.467 308.527C101.492 309.495 101.492 309.991 101.492 310.462C101.492 310.959 101.492 311.43 101.517 312.398C101.541 313.366 101.517 313.862 101.517 314.358C101.492 314.83 101.492 315.326 101.492 316.294C101.517 317.261 101.492 317.758 101.467 318.229C101.442 318.701 101.442 319.197 101.442 320.165C101.467 321.107 101.517 321.579 101.591 322.075C101.666 322.571 101.715 323.068 101.74 324.035C101.765 325.028 101.715 325.524 101.666 325.996C101.616 326.492 101.566 326.939 101.591 327.906C101.616 328.874 101.641 329.345 101.69 329.817C101.74 330.288 101.79 330.785 101.79 331.777C101.814 332.745 101.814 333.241 101.839 333.713C101.864 334.184 101.864 334.68 101.889 335.648L101.938 339.519C101.963 340.487 101.963 340.958 101.963 341.454C101.963 341.578 101.963 341.678 101.963 341.777Z" fill="#F3694C"/>
<path d="M106.775 341.777C106.775 341.653 106.75 341.554 106.75 341.454C106.7 340.958 106.651 340.512 106.626 339.544C106.601 338.576 106.576 338.08 106.576 337.608C106.552 337.137 106.552 336.641 106.527 335.673C106.502 334.705 106.502 334.209 106.502 333.738C106.502 333.266 106.502 332.77 106.477 331.802C106.452 330.834 106.477 330.363 106.477 329.891C106.502 329.42 106.502 328.924 106.477 327.931C106.452 326.963 106.427 326.467 106.403 325.996C106.378 325.524 106.353 325.028 106.328 324.06C106.303 323.093 106.279 322.596 106.254 322.125C106.229 321.653 106.204 321.157 106.179 320.189C106.155 319.222 106.105 318.725 106.08 318.254C106.055 317.783 106.006 317.286 105.981 316.343C105.956 315.376 105.981 314.904 106.006 314.433C106.03 313.961 106.055 313.44 106.03 312.472C106.006 311.505 106.006 311.033 106.03 310.537C106.03 310.066 106.055 309.569 106.03 308.602C106.006 307.634 105.981 307.138 105.956 306.666C105.931 306.195 105.906 305.698 105.882 304.731C105.857 303.763 105.857 303.267 105.857 302.795C105.857 302.324 105.857 301.828 105.832 300.86C105.807 299.892 105.758 299.396 105.708 298.9C105.658 298.428 105.609 297.932 105.584 296.989C105.559 296.021 105.559 295.525 105.559 295.053C105.559 294.582 105.559 294.086 105.534 293.118C105.509 292.15 105.46 291.654 105.435 291.183C105.41 290.711 105.361 290.215 105.336 289.272C105.311 288.304 105.311 287.833 105.336 287.337C105.336 286.865 105.361 286.369 105.336 285.401C105.311 284.433 105.311 283.962 105.286 283.466C105.286 282.969 105.261 282.498 105.236 281.53C105.212 280.562 105.212 280.091 105.236 279.595C105.236 279.123 105.261 278.627 105.236 277.634C105.212 276.667 105.162 276.17 105.112 275.699C105.063 275.228 105.038 274.731 105.013 273.788C105.013 273.615 105.013 273.466 104.988 273.342C104.964 272.647 104.964 272.25 104.939 271.853C104.914 271.382 104.889 270.885 104.864 269.918L104.318 269.942C104.343 270.91 104.368 271.406 104.393 271.878C104.418 272.275 104.418 272.672 104.442 273.342C104.442 273.491 104.442 273.64 104.467 273.813C104.492 274.781 104.542 275.277 104.591 275.773C104.641 276.245 104.666 276.741 104.715 277.684C104.74 278.652 104.74 279.123 104.715 279.62C104.715 280.091 104.691 280.587 104.715 281.555C104.74 282.523 104.74 282.994 104.765 283.49C104.765 283.987 104.79 284.458 104.815 285.426C104.839 286.394 104.839 286.865 104.815 287.361C104.815 287.833 104.79 288.329 104.815 289.297C104.839 290.265 104.889 290.761 104.914 291.232C104.939 291.704 104.988 292.2 105.013 293.143C105.038 294.111 105.038 294.607 105.038 295.078C105.038 295.55 105.038 296.046 105.063 297.014C105.088 297.981 105.137 298.478 105.187 298.974C105.236 299.445 105.286 299.917 105.311 300.885C105.336 301.852 105.336 302.324 105.336 302.82C105.336 303.292 105.336 303.788 105.361 304.756C105.385 305.723 105.41 306.22 105.435 306.691C105.46 307.162 105.485 307.659 105.509 308.626C105.534 309.594 105.534 310.066 105.509 310.562C105.509 311.033 105.485 311.53 105.509 312.497C105.534 313.465 105.509 313.936 105.485 314.408C105.46 314.879 105.435 315.376 105.46 316.368C105.485 317.336 105.534 317.832 105.559 318.304C105.584 318.775 105.633 319.271 105.658 320.214C105.683 321.182 105.708 321.678 105.733 322.15C105.758 322.621 105.782 323.117 105.807 324.085C105.832 325.053 105.857 325.549 105.882 326.021C105.906 326.492 105.931 326.988 105.956 327.956C105.981 328.924 105.956 329.395 105.956 329.867C105.931 330.338 105.931 330.834 105.956 331.827C105.981 332.795 105.981 333.291 105.981 333.762C105.981 334.234 105.981 334.73 106.006 335.698C106.03 336.666 106.055 337.162 106.055 337.633C106.08 338.105 106.08 338.601 106.105 339.569C106.13 340.561 106.179 341.057 106.229 341.529C106.229 341.628 106.254 341.703 106.254 341.802H106.775V341.777Z" fill="#F3694C"/>
<path d="M111.689 341.777H111.143C111.143 341.678 111.118 341.603 111.118 341.504C111.069 341.033 111.044 340.536 110.994 339.569C110.945 338.601 110.945 338.105 110.969 337.608C110.969 337.137 110.969 336.641 110.945 335.673C110.895 334.705 110.895 334.209 110.895 333.737C110.895 333.266 110.895 332.77 110.845 331.802C110.796 330.859 110.746 330.388 110.672 329.891C110.597 329.42 110.548 328.924 110.498 327.931C110.448 326.963 110.448 326.492 110.424 325.996C110.399 325.524 110.399 325.028 110.349 324.06C110.324 323.093 110.3 322.621 110.275 322.125C110.25 321.653 110.225 321.157 110.2 320.189C110.175 319.222 110.175 318.725 110.175 318.229C110.175 317.758 110.175 317.261 110.151 316.318C110.101 315.351 110.076 314.854 110.027 314.383C109.977 313.912 109.952 313.415 109.903 312.448C109.853 311.48 109.878 310.984 109.878 310.487C109.878 310.016 109.903 309.52 109.853 308.552C109.803 307.584 109.754 307.113 109.729 306.641C109.679 306.17 109.63 305.674 109.605 304.706C109.555 303.713 109.605 303.217 109.63 302.746C109.654 302.249 109.679 301.778 109.654 300.835C109.605 299.892 109.53 299.421 109.456 298.949C109.381 298.478 109.307 297.981 109.257 296.989C109.208 296.021 109.208 295.525 109.208 295.053C109.208 294.582 109.208 294.086 109.158 293.118C109.108 292.15 109.133 291.654 109.133 291.183C109.133 290.711 109.133 290.215 109.108 289.247C109.059 288.279 109.059 287.783 109.059 287.312C109.059 286.84 109.034 286.344 109.009 285.376C108.984 284.408 108.935 283.912 108.91 283.441C108.885 282.969 108.836 282.473 108.811 281.505C108.761 280.538 108.711 280.066 108.662 279.595C108.612 279.123 108.563 278.627 108.513 277.634C108.463 276.667 108.463 276.17 108.439 275.699C108.414 275.227 108.414 274.731 108.364 273.764C108.364 273.59 108.364 273.441 108.339 273.292C108.314 272.622 108.314 272.2 108.339 271.803C108.339 271.332 108.339 270.836 108.314 269.893L108.86 269.868C108.91 270.836 108.885 271.332 108.885 271.803C108.885 272.2 108.885 272.597 108.885 273.267C108.885 273.391 108.885 273.565 108.91 273.714C108.96 274.682 108.96 275.178 108.984 275.649C109.009 276.146 109.009 276.617 109.059 277.585C109.108 278.552 109.158 279.024 109.208 279.495C109.257 279.967 109.307 280.463 109.357 281.456C109.406 282.423 109.431 282.92 109.456 283.391C109.481 283.863 109.53 284.359 109.555 285.327C109.605 286.294 109.605 286.791 109.605 287.262C109.605 287.733 109.63 288.23 109.654 289.197C109.704 290.165 109.679 290.661 109.679 291.158C109.679 291.629 109.679 292.125 109.704 293.093C109.754 294.061 109.754 294.557 109.754 295.029C109.754 295.5 109.754 295.996 109.803 296.964C109.853 297.907 109.927 298.378 110.002 298.85C110.076 299.321 110.151 299.818 110.2 300.81C110.25 301.803 110.2 302.299 110.175 302.77C110.151 303.267 110.126 303.738 110.151 304.681C110.175 305.649 110.25 306.12 110.275 306.592C110.324 307.063 110.374 307.559 110.424 308.552C110.473 309.52 110.448 310.016 110.448 310.512C110.448 310.984 110.424 311.48 110.473 312.423C110.523 313.39 110.548 313.862 110.597 314.333C110.647 314.805 110.672 315.301 110.721 316.269C110.771 317.237 110.746 317.733 110.746 318.204C110.746 318.676 110.746 319.172 110.771 320.14C110.821 321.107 110.845 321.579 110.845 322.075C110.87 322.547 110.895 323.043 110.92 324.011C110.969 324.978 110.969 325.45 110.994 325.946C111.019 326.418 111.019 326.914 111.069 327.882C111.118 328.824 111.168 329.296 111.242 329.792C111.317 330.264 111.366 330.76 111.416 331.752C111.466 332.72 111.466 333.216 111.466 333.688C111.466 334.159 111.466 334.656 111.515 335.623C111.565 336.591 111.54 337.087 111.54 337.559C111.54 338.03 111.54 338.526 111.565 339.494C111.615 340.462 111.639 340.933 111.689 341.405C111.664 341.554 111.689 341.678 111.689 341.777Z" fill="#BF523B"/>
<path d="M116.528 341.777H115.982C115.982 341.678 115.957 341.603 115.957 341.504C115.908 341.033 115.858 340.536 115.833 339.569C115.784 338.601 115.759 338.13 115.709 337.633C115.684 337.137 115.635 336.666 115.61 335.698C115.56 334.73 115.511 334.234 115.486 333.762C115.461 333.291 115.411 332.795 115.362 331.827C115.312 330.834 115.337 330.338 115.362 329.867C115.387 329.37 115.411 328.899 115.362 327.956C115.312 326.988 115.238 326.542 115.188 326.045C115.114 325.574 115.039 325.078 114.99 324.085L114.791 320.214C114.741 319.222 114.766 318.725 114.816 318.254C114.841 317.758 114.89 317.286 114.841 316.343C114.791 315.4 114.717 314.929 114.642 314.433C114.568 313.961 114.493 313.465 114.444 312.472C114.394 311.505 114.369 311.008 114.344 310.537C114.32 310.066 114.295 309.569 114.245 308.602C114.196 307.609 114.22 307.113 114.245 306.641C114.27 306.145 114.295 305.674 114.245 304.731C114.196 303.788 114.121 303.316 114.047 302.82C113.972 302.349 113.898 301.852 113.848 300.86C113.799 299.892 113.774 299.396 113.749 298.924C113.724 298.428 113.699 297.957 113.65 296.989C113.6 296.021 113.6 295.525 113.625 295.029C113.625 294.557 113.65 294.061 113.6 293.118C113.55 292.15 113.501 291.679 113.451 291.207C113.402 290.736 113.327 290.24 113.302 289.272C113.253 288.304 113.253 287.808 113.228 287.337C113.228 286.865 113.203 286.369 113.153 285.401C113.104 284.433 113.079 283.962 113.054 283.466C113.029 282.994 113.005 282.498 112.955 281.53C112.905 280.562 112.905 280.066 112.905 279.57C112.905 279.098 112.905 278.602 112.856 277.659C112.806 276.692 112.756 276.22 112.707 275.749C112.657 275.277 112.608 274.781 112.558 273.813C112.558 273.64 112.533 273.491 112.533 273.342C112.483 272.672 112.483 272.275 112.459 271.878C112.434 271.382 112.409 270.91 112.359 269.942L112.905 269.918C112.955 270.885 112.98 271.357 113.005 271.853C113.029 272.25 113.054 272.672 113.079 273.342C113.079 273.466 113.104 273.615 113.104 273.788C113.153 274.756 113.203 275.228 113.253 275.699C113.302 276.17 113.352 276.667 113.402 277.634C113.451 278.602 113.451 279.098 113.451 279.595C113.451 280.066 113.451 280.562 113.501 281.505C113.55 282.473 113.575 282.945 113.6 283.441C113.625 283.937 113.65 284.409 113.699 285.376C113.749 286.344 113.749 286.84 113.774 287.312C113.774 287.783 113.799 288.279 113.848 289.247C113.898 290.215 113.947 290.686 113.997 291.158C114.047 291.629 114.121 292.125 114.171 293.093C114.22 294.061 114.22 294.557 114.196 295.053C114.196 295.525 114.171 296.021 114.22 296.964C114.27 297.932 114.295 298.428 114.32 298.9C114.344 299.371 114.369 299.867 114.419 300.835C114.469 301.778 114.543 302.249 114.617 302.746C114.692 303.217 114.766 303.713 114.816 304.706C114.866 305.698 114.841 306.195 114.816 306.666C114.791 307.162 114.766 307.634 114.816 308.577C114.866 309.544 114.89 310.016 114.915 310.512C114.94 310.984 114.965 311.48 115.014 312.448C115.064 313.391 115.138 313.862 115.213 314.358C115.287 314.83 115.362 315.326 115.411 316.319C115.461 317.311 115.436 317.807 115.387 318.279C115.362 318.775 115.312 319.247 115.362 320.189L115.56 324.06C115.61 325.003 115.684 325.475 115.734 325.971C115.808 326.442 115.883 326.939 115.933 327.931C115.982 328.899 115.957 329.42 115.933 329.891C115.908 330.388 115.883 330.859 115.933 331.802C115.982 332.77 116.032 333.266 116.057 333.738C116.081 334.209 116.131 334.705 116.181 335.673C116.23 336.641 116.255 337.112 116.28 337.608C116.305 338.105 116.354 338.576 116.404 339.544C116.454 340.512 116.503 341.008 116.528 341.479C116.528 341.554 116.528 341.678 116.528 341.777Z" fill="#BF523B"/>
<path d="M120.2 276.519C107.372 279.001 70.7969 276.519 70.7969 276.519V224.684C71.4172 220.739 72.4346 217.513 73.6752 214.883C79.9778 201.633 92.459 203.072 92.459 203.072L113.426 206.968L120.2 276.519Z" fill="#7C82BE"/>
<path d="M103.551 253.989L101.938 254.411C91.4664 257.24 80.3004 255.527 71.1443 249.721L70.7969 249.498V224.684C71.4172 220.739 72.4346 217.513 73.6752 214.883L79.8538 217.067L103.551 253.989Z" fill="#5D628F"/>
<path d="M146.824 223.718C146.849 240.591 135.062 247.44 120.546 247.986C106.031 248.532 94.7653 239.202 94.2691 225.654C94.0209 219.227 95.7827 213.148 99.5791 208.855C99.5791 208.855 99.5791 208.855 99.6039 208.83C103.003 205.009 108.04 202.627 114.74 202.726C118.239 202.776 121.713 202.404 125.162 201.808C130.77 200.84 135.087 201.634 138.313 203.595C138.313 203.595 138.313 203.595 138.338 203.595C144.566 207.441 146.824 215.604 146.824 223.718Z" fill="#F3694C"/>
<path d="M93.08 206.944C93.08 207.292 93.0304 207.664 92.9808 208.011C92.8319 208.954 92.4845 209.897 91.8393 210.741C89.3828 214.016 78.2168 211.286 78.2168 211.286C78.8371 210.095 79.2341 208.78 79.4327 207.465C80.053 203.718 79.3086 200.096 79.3086 200.096L86.0082 201.485L90.5242 202.428L92.3604 202.8C92.3604 202.8 92.3852 202.875 92.4349 203.024L92.8071 204.339C92.9808 205.108 93.1048 206.001 93.08 206.944Z" fill="#FF9864"/>
<path d="M93.081 206.943C85.7859 207.464 79.8555 201.484 79.8555 201.484C79.8555 201.484 83.4782 202.229 86.0092 201.509L90.5252 202.452L92.3614 202.824C92.3614 202.824 92.3862 202.899 92.4359 203.048L92.8081 204.363C92.9818 205.107 93.1058 206 93.081 206.943Z" fill="#E6895A"/>
<path d="M141.045 240.193C140.524 241.508 139.581 242.699 138.638 243.717C137.695 244.734 136.554 245.603 135.288 246.223L133.03 247.364C131.715 248.009 130.301 248.406 128.862 248.53L119.706 249.325C118.912 249.399 118.142 249.548 117.373 249.771L102.411 254.312C96.0584 256.247 89.1851 254.362 84.6939 249.523C84.5202 249.325 84.3465 249.151 84.1728 248.952L81.3193 245.603L79.2598 243.196L95.3388 231.484L95.4629 231.633L96.2569 232.526L100.227 236.943L118.837 233.816C122.584 233.196 126.405 233.072 130.177 233.469L133.03 233.767C133.824 233.841 134.494 234.461 134.544 235.28C134.594 235.752 134.42 236.198 134.122 236.546C133.849 236.843 133.477 237.042 133.055 237.067C130.971 237.216 127.497 237.489 127.497 237.489L134.048 239.598C135.313 239.995 136.628 240.218 137.943 240.218L141.045 240.193Z" fill="#FF9864"/>
<path d="M87.7451 186.249C89.2835 186.249 90.6979 187.142 91.343 188.532C93.3281 192.75 96.8268 201.733 92.3852 204.512C87.1992 207.762 79.8544 201.509 79.8544 201.509C77.9438 203.42 76.0331 199.872 76.579 197.415C77.1249 194.959 79.3085 196.05 79.3085 196.05C79.3085 196.05 87.1992 194.14 87.7451 186.249Z" fill="#FF9864"/>
<path d="M95.5117 231.608L81.3681 245.603L79.3086 243.171L95.3877 231.459L95.5117 231.608Z" fill="#E6895A"/>
<path d="M87.0008 186.249C87.0008 186.249 90.4002 186.174 91.6161 189.127C91.6161 189.127 92.9064 187.862 90.7972 185.777C88.6633 183.693 82.2863 180.145 74.6934 184.09L87.0008 186.249Z" fill="#4E6954"/>
<path d="M76.8032 210.12C76.8032 210.12 71.0217 216.944 70.8232 223.867C70.5998 230.79 78.2424 244.338 78.2424 244.338L96.0832 231.46L87.4233 215.455L76.8032 210.12Z" fill="#7C82BE"/>
<path d="M87.9668 190.046C87.9668 190.046 87.9668 190.046 87.9668 190.071C87.6442 190.815 87.0983 191.584 86.1306 192.229C83.0041 194.314 83.1282 197.713 79.7784 196.547C79.5799 196.472 79.3814 196.398 79.1829 196.299C78.7362 196.1 77.3715 195.629 77.1482 197.664C76.8752 200.12 78.24 202.304 79.8776 201.485C79.8776 201.485 82.6071 203.395 80.2002 206.969C77.7933 210.542 80.5228 212.254 77.4708 215.008C77.4708 215.008 74.2202 213.395 70.7463 212.353C67.2725 211.286 65.6348 208.879 65.6348 208.879C65.6348 208.879 75.039 205.033 72.4088 197.217C71.8381 195.505 71.4907 193.172 71.6148 190.939C71.7885 187.788 72.8555 184.785 75.4361 183.694C79.8528 181.833 86.2795 182.552 88.0164 186.522C88.0164 186.522 88.6864 188.259 87.9668 190.046Z" fill="#4E6954"/>
<path d="M87.9434 190.07C87.6208 190.815 87.0749 191.584 86.1072 192.229C82.9807 194.313 83.1048 197.713 79.755 196.547C79.5564 196.472 79.3579 196.398 79.1594 196.298C78.7128 196.1 77.3481 195.629 77.1247 197.663C76.8518 200.12 78.2165 202.303 79.8542 201.484C79.8542 201.484 82.5837 203.395 80.1768 206.968C77.7699 210.541 80.4994 212.253 77.4473 215.008C77.4473 215.008 74.1968 213.395 70.7229 212.353C67.249 211.286 65.6113 208.879 65.6113 208.879C65.6113 208.879 75.0156 205.033 72.3854 197.217C71.8147 195.504 71.4673 193.172 71.5914 190.939C71.8643 194.363 74.8915 195.728 77.8691 194.983C80.8467 194.239 79.6805 192.75 83.3281 192.576C86.7523 192.452 87.8193 190.343 87.9434 190.07Z" fill="#3D5242"/>
<path d="M103.725 219.655C104.945 215.229 104.23 211.172 102.129 210.593C100.029 210.014 97.3373 213.133 96.118 217.559C94.8986 221.985 95.6131 226.042 97.7139 226.621C99.8146 227.2 102.506 224.081 103.725 219.655Z" fill="#FF9059"/>
<path d="M126.925 205.431C126.925 206.523 124.419 207.441 121.218 207.565C120.994 207.565 120.746 207.59 120.523 207.59C120.3 207.59 120.051 207.59 119.828 207.565C116.627 207.441 114.121 206.548 114.121 205.431C114.121 204.315 116.677 203.397 119.927 203.297C120.126 203.297 120.324 203.297 120.523 203.297C120.796 203.297 121.069 203.297 121.317 203.322C124.493 203.446 126.925 204.34 126.925 205.431Z" fill="#CE5545"/>
<path d="M121.217 207.538C120.993 207.538 120.745 207.563 120.522 207.563C120.298 207.563 120.05 207.563 119.827 207.538C119.976 206.794 120.174 205.23 119.926 203.295C119.579 200.863 118.462 197.811 115.509 194.983C115.261 194.734 115.286 194.387 115.559 194.164C115.832 193.965 116.279 193.965 116.527 194.213C119.802 197.315 120.993 200.64 121.341 203.27C121.564 205.156 121.39 206.694 121.217 207.538Z" fill="#3D5242"/>
<path d="M132.484 191.98C132.484 191.98 131.988 201.484 120.201 201.955C120.201 201.931 120.276 192.402 132.484 191.98Z" fill="#82B861"/>
<path d="M132.484 191.98C128.439 193.891 120.201 201.955 120.201 201.955C120.201 201.955 120.276 192.402 132.484 191.98Z" fill="#B4D86E"/>
<path d="M177 243.071C177 242.252 177.67 241.582 178.489 241.582C179.308 241.582 179.978 242.252 179.978 243.071C179.978 243.89 179.308 244.56 178.489 244.56C177.67 244.56 177 243.89 177 243.071Z" fill="#F4C174"/>
<path d="M243.895 244.56C244.717 244.56 245.384 243.893 245.384 243.071C245.384 242.249 244.717 241.582 243.895 241.582C243.073 241.582 242.406 242.249 242.406 243.071C242.406 243.893 243.073 244.56 243.895 244.56Z" fill="#F4C174"/>
<path d="M177 286.372C177 285.553 177.67 284.883 178.489 284.883C179.308 284.883 179.978 285.553 179.978 286.372C179.978 287.19 179.308 287.86 178.489 287.86C177.67 287.86 177 287.19 177 286.372Z" fill="#F4C174"/>
<path d="M243.895 287.86C244.717 287.86 245.384 287.194 245.384 286.372C245.384 285.549 244.717 284.883 243.895 284.883C243.073 284.883 242.406 285.549 242.406 286.372C242.406 287.194 243.073 287.86 243.895 287.86Z" fill="#F4C174"/>
<path d="M264.665 361.904C264.194 361.904 263.797 361.582 263.698 361.11L228.14 187.317C228.041 186.771 228.388 186.25 228.909 186.151C229.455 186.052 229.976 186.399 230.075 186.92L265.608 360.713C265.707 361.259 265.36 361.78 264.839 361.879C264.789 361.904 264.715 361.904 264.665 361.904Z" fill="#628A4A"/>
<path d="M302.232 361.904C301.761 361.904 301.364 361.582 301.265 361.11L265.732 187.317C265.633 186.771 265.98 186.25 266.501 186.151C267.047 186.052 267.568 186.399 267.667 186.92L303.2 360.713C303.299 361.259 302.952 361.78 302.431 361.879C302.381 361.904 302.307 361.904 302.232 361.904Z" fill="#628A4A"/>
<path d="M269.331 201.063H231.813C231.267 201.063 230.82 200.616 230.82 200.07C230.82 199.524 231.267 199.078 231.813 199.078H269.355C269.901 199.078 270.348 199.524 270.348 200.07C270.348 200.616 269.901 201.063 269.331 201.063Z" fill="#628A4A"/>
<path d="M272.729 217.588H235.186C234.64 217.588 234.193 217.142 234.193 216.596C234.193 216.05 234.64 215.603 235.186 215.603H272.729C273.274 215.603 273.721 216.05 273.721 216.596C273.721 217.167 273.274 217.588 272.729 217.588Z" fill="#628A4A"/>
<path d="M276.104 234.138H238.586C238.04 234.138 237.594 233.691 237.594 233.145C237.594 232.599 238.04 232.153 238.586 232.153H276.129C276.675 232.153 277.121 232.599 277.121 233.145C277.097 233.691 276.65 234.138 276.104 234.138Z" fill="#628A4A"/>
<path d="M279.355 250.666H241.961C241.415 250.666 240.969 250.219 240.969 249.674C240.969 249.128 241.415 248.681 241.961 248.681H279.355C279.901 248.681 280.348 249.128 280.348 249.674C280.348 250.219 279.901 250.666 279.355 250.666Z" fill="#628A4A"/>
<path d="M282.731 267.192H245.362C244.816 267.192 244.369 266.745 244.369 266.199C244.369 265.654 244.816 265.207 245.362 265.207H282.755C283.301 265.207 283.748 265.654 283.748 266.199C283.748 266.745 283.277 267.192 282.731 267.192Z" fill="#628A4A"/>
<path d="M286.128 283.741H248.735C248.189 283.741 247.742 283.295 247.742 282.749C247.742 282.203 248.189 281.756 248.735 281.756H286.128C286.674 281.756 287.121 282.203 287.121 282.749C287.121 283.295 286.674 283.741 286.128 283.741Z" fill="#628A4A"/>
<path d="M289.502 300.267H252.108C251.562 300.267 251.115 299.82 251.115 299.274C251.115 298.729 251.562 298.282 252.108 298.282H289.502C290.047 298.282 290.494 298.729 290.494 299.274C290.494 299.82 290.047 300.267 289.502 300.267Z" fill="#628A4A"/>
<path d="M292.902 316.794H255.508C254.962 316.794 254.516 316.347 254.516 315.801C254.516 315.255 254.962 314.809 255.508 314.809H292.902C293.448 314.809 293.894 315.255 293.894 315.801C293.894 316.347 293.448 316.794 292.902 316.794Z" fill="#628A4A"/>
<path d="M296.275 333.318H258.881C258.335 333.318 257.889 332.872 257.889 332.326C257.889 331.78 258.335 331.333 258.881 331.333H296.275C296.821 331.333 297.267 331.78 297.267 332.326C297.267 332.896 296.846 333.318 296.275 333.318Z" fill="#628A4A"/>
<path d="M299.675 349.871H262.282C261.736 349.871 261.289 349.424 261.289 348.878C261.289 348.332 261.736 347.885 262.282 347.885H299.675C300.221 347.885 300.668 348.332 300.668 348.878C300.668 349.424 300.221 349.871 299.675 349.871Z" fill="#628A4A"/>
<path d="M113.365 92.4223C115.923 85.5217 115.496 79.0009 112.412 77.8576C109.328 76.7144 104.754 81.3817 102.196 88.2823C99.6381 95.1829 100.065 101.704 103.149 102.847C106.233 103.99 110.807 99.3229 113.365 92.4223Z" fill="#709478"/>
</svg>
