<svg width="60" height="60" viewBox="0 0 60 60" fill="none" xmlns="http://www.w3.org/2000/svg">
<g clip-path="url(#clip0_5062_704)">
<path fill-rule="evenodd" clip-rule="evenodd" d="M43.9628 55.5748H16.0352C15.8067 55.5748 15.5899 55.4799 15.434 55.3123C15.2793 55.1448 15.1996 54.9209 15.2172 54.6936C15.4106 52.0639 16.6024 48.8636 18.3273 46.3394C20.3863 43.3266 22.9011 41.6685 25.4077 41.6685H26.1776C26.3241 41.6685 26.4682 41.7071 26.5948 41.7821C27.6225 42.388 28.8002 42.7091 29.999 42.7091C31.1978 42.7091 32.3755 42.3892 33.4032 41.7821C33.5298 41.7071 33.6739 41.6685 33.8204 41.6685H34.5903C37.0969 41.6685 39.6117 43.3278 41.6707 46.3394C43.3956 48.8624 44.5874 52.064 44.7808 54.6936C44.7971 54.9209 44.7186 55.1448 44.564 55.3123C44.4093 55.4799 44.1913 55.5748 43.9628 55.5748ZM16.9563 53.9342H43.0417C42.3292 49.439 38.7117 43.3102 34.5903 43.3102H34.0372C32.8056 43.9911 31.4146 44.3508 29.999 44.3508C28.5834 44.3508 27.1924 43.9922 25.9608 43.3102H25.4077C21.2863 43.3102 17.6688 49.439 16.9563 53.9342Z" fill="#01AC5D"/>
<path fill-rule="evenodd" clip-rule="evenodd" d="M29.9995 41.9823C25.394 41.9823 21.6465 38.2347 21.6465 33.6293C21.6465 29.0239 25.3941 25.2764 29.9995 25.2764C34.6048 25.2764 38.3524 29.024 38.3524 33.6293C38.3524 38.2347 34.6048 41.9823 29.9995 41.9823ZM29.9995 26.917C26.2987 26.917 23.2871 29.9286 23.2871 33.6293C23.2871 37.33 26.2987 40.3417 29.9995 40.3417C33.7001 40.3417 36.7118 37.33 36.7118 33.6293C36.7118 29.9286 33.7001 26.917 29.9995 26.917Z" fill="#01AC5D"/>
<path fill-rule="evenodd" clip-rule="evenodd" d="M34.6748 33.1498C34.3373 33.1498 34.022 32.9401 33.9025 32.6049C33.3799 31.1401 32.1729 30.0234 30.6741 29.6167C30.237 29.4984 29.978 29.0472 30.0975 28.6101C30.2159 28.173 30.6658 27.914 31.1041 28.0335C33.1209 28.5808 34.7451 30.0831 35.4482 32.0542C35.6005 32.4807 35.3779 32.9507 34.9513 33.103C34.8588 33.1346 34.7662 33.1498 34.6748 33.1498Z" fill="#01AC5D"/>
<path fill-rule="evenodd" clip-rule="evenodd" d="M59.1785 53.1925H43.5448C43.0913 53.1925 42.7245 52.8257 42.7245 52.3721C42.7245 51.9186 43.0913 51.5518 43.5448 51.5518L58.2469 51.5519C57.9434 49.8503 57.136 47.8922 56.0755 46.3406C55.2668 45.1582 53.6005 43.1743 51.5216 43.1743H51.1091C50.0896 43.7309 48.94 44.0239 47.7717 44.0239C46.6033 44.0239 45.4538 43.7309 44.4342 43.1743H44.0217C42.38 43.1743 40.9948 44.4235 40.123 45.4712C39.8335 45.8192 39.3156 45.8661 38.9676 45.5766C38.6195 45.2871 38.5715 44.7692 38.8621 44.4211C40.4347 42.5321 42.2183 41.5337 44.0218 41.5337L44.651 41.5337C44.7975 41.5337 44.9417 41.5724 45.0682 41.6474C45.8838 42.129 46.8201 42.3833 47.7728 42.3833C48.7256 42.3833 49.6607 42.129 50.4775 41.6474C50.604 41.5724 50.7482 41.5337 50.8947 41.5337H51.5239C56.1411 41.5337 59.6824 48.0211 59.9976 52.3124C60.014 52.5398 59.9355 52.7636 59.7808 52.9312C59.6238 53.0976 59.407 53.1925 59.1785 53.1925Z" fill="#01AC5D"/>
<path fill-rule="evenodd" clip-rule="evenodd" d="M47.7725 42.0899C43.9277 42.0899 40.7988 38.9611 40.7988 35.1163C40.7988 31.2714 43.9277 28.1426 47.7725 28.1426C51.6174 28.1426 54.7462 31.2703 54.7462 35.1163C54.7462 38.9623 51.6185 42.0899 47.7725 42.0899ZM47.7725 29.7832C44.8324 29.7832 42.4394 32.1749 42.4394 35.1163C42.4394 38.0576 44.8324 40.4494 47.7725 40.4494C50.7127 40.4494 53.1056 38.0565 53.1056 35.1163C53.1056 32.1761 50.7139 29.7832 47.7725 29.7832Z" fill="#01AC5D"/>
<path fill-rule="evenodd" clip-rule="evenodd" d="M51.5904 34.8749C51.2529 34.8749 50.9376 34.6652 50.8181 34.3301C50.408 33.1804 49.46 32.3028 48.2834 31.984C47.8463 31.8656 47.5873 31.4145 47.7069 30.9773C47.8252 30.5403 48.2764 30.2825 48.7135 30.4008C50.408 30.8602 51.7732 32.1234 52.3638 33.7793C52.5161 34.2058 52.2935 34.6757 51.867 34.8281C51.7755 34.8597 51.6818 34.8749 51.5904 34.8749Z" fill="#01AC5D"/>
<path fill-rule="evenodd" clip-rule="evenodd" d="M16.454 53.1922H0.820339C0.591828 53.1922 0.375044 53.0973 0.219183 52.9297C0.064484 52.7621 -0.015174 52.5383 0.00239857 52.3109C0.318805 48.0196 3.85897 41.5322 8.47608 41.5322L9.10534 41.5323C9.2518 41.5323 9.39597 41.5709 9.52253 41.6459C10.3381 42.1276 11.2733 42.3819 12.2272 42.3819C13.181 42.3819 14.115 42.1275 14.9318 41.6459C15.0583 41.5709 15.2025 41.5323 15.3489 41.5323H15.9783C17.7805 41.5323 19.5653 42.5307 21.1379 44.4197C21.4274 44.7678 21.3805 45.2857 21.0325 45.5752C20.6844 45.8646 20.1676 45.8177 19.877 45.4697C19.0052 44.4221 17.6212 43.1729 15.9783 43.1729L15.5658 43.1729C14.5463 43.7295 13.3967 44.0224 12.2284 44.0224C11.06 44.0224 9.91043 43.7295 8.89092 43.1729H8.47841C6.39956 43.1729 4.73318 45.1568 3.92458 46.3392C2.86408 47.8919 2.05667 49.8489 1.75315 51.5504H16.4552C16.9087 51.5504 17.2755 51.9172 17.2755 52.3707C17.2755 52.8243 16.9064 53.1922 16.454 53.1922Z" fill="#01AC5D"/>
<path fill-rule="evenodd" clip-rule="evenodd" d="M12.2276 42.0899C8.38276 42.0899 5.25391 38.9611 5.25391 35.1163C5.25391 31.2714 8.3816 28.1426 12.2276 28.1426C16.0736 28.1426 19.2013 31.2703 19.2013 35.1163C19.2013 38.9623 16.0725 42.0899 12.2276 42.0899ZM12.2276 29.7832C9.28743 29.7832 6.8945 32.1749 6.8945 35.1163C6.8945 38.0576 9.28624 40.4494 12.2276 40.4494C15.1678 40.4494 17.5607 38.0565 17.5607 35.1163C17.5607 32.1761 15.1678 29.7832 12.2276 29.7832Z" fill="#01AC5D"/>
<path fill-rule="evenodd" clip-rule="evenodd" d="M16.0455 34.8749C15.708 34.8749 15.3927 34.6652 15.2732 34.3301C14.8631 33.1804 13.915 32.3028 12.7385 31.984C12.3014 31.8656 12.0424 31.4145 12.162 30.9773C12.2815 30.5403 12.7315 30.2825 13.1686 30.4008C14.8631 30.8602 16.2283 32.1234 16.8189 33.7793C16.9713 34.2058 16.7486 34.6757 16.3221 34.8281C16.2295 34.8597 16.1369 34.8749 16.0455 34.8749Z" fill="#01AC5D"/>
<path fill-rule="evenodd" clip-rule="evenodd" d="M40.5878 23.2668H17.1953C15.4152 23.2668 13.9668 21.8184 13.9668 20.0383V7.65423C13.9668 5.87418 15.4152 4.42578 17.1953 4.42578H40.5889C42.369 4.42578 43.8174 5.87418 43.8174 7.65423V20.0396C43.8162 21.8196 42.369 23.2668 40.5878 23.2668ZM17.1953 6.06635C16.3199 6.06635 15.6074 6.77885 15.6074 7.65423V20.0396C15.6074 20.9149 16.3199 21.6274 17.1953 21.6274L40.5889 21.6274C41.4643 21.6274 42.1768 20.9149 42.1768 20.0395V7.65423C42.1768 6.77888 41.4643 6.06635 40.5889 6.06635H17.1953Z" fill="#01AC5D"/>
<path fill-rule="evenodd" clip-rule="evenodd" d="M25.7476 20.194C25.5297 20.194 25.3211 20.1073 25.1676 19.9538L20.3981 15.1844C20.0782 14.8645 20.0782 14.3442 20.3981 14.0243C20.718 13.7043 21.2383 13.7043 21.5583 14.0243L25.7477 18.2136L36.2229 7.73846C36.5428 7.41856 37.0631 7.41856 37.383 7.73846C37.7029 8.05835 37.7029 8.57865 37.383 8.89861L26.3278 19.9538C26.173 20.1085 25.9644 20.194 25.7476 20.194Z" fill="#01AC5D"/>
</g>
<defs>
<clipPath id="clip0_5062_704">
<rect width="60" height="60" fill="white"/>
</clipPath>
</defs>
</svg>
