<svg width="21" height="20" viewBox="0 0 21 20" fill="none" xmlns="http://www.w3.org/2000/svg">
<rect x="5.84961" y="5.35034" width="9.84615" height="9.29914" fill="white"/>
<path d="M10.5 0C8.52219 0 6.58879 0.58649 4.9443 1.6853C3.29981 2.78412 2.01809 4.3459 1.26121 6.17316C0.504333 8.00042 0.3063 10.0111 0.692152 11.9509C1.078 13.8907 2.03041 15.6725 3.42894 17.0711C4.82746 18.4696 6.60929 19.422 8.5491 19.8078C10.4889 20.1937 12.4996 19.9957 14.3268 19.2388C16.1541 18.4819 17.7159 17.2002 18.8147 15.5557C19.9135 13.9112 20.5 11.9778 20.5 10C20.4967 7.34885 19.4421 4.80723 17.5674 2.93259C15.6928 1.05794 13.1512 0.00330774 10.5 0ZM14.0038 10.6404L9.38846 13.7173C9.26188 13.8012 9.11341 13.846 8.96154 13.8462C8.75753 13.8462 8.56187 13.7651 8.41761 13.6208C8.27335 13.4766 8.19231 13.2809 8.19231 13.0769V6.92308C8.19222 6.78378 8.22996 6.64707 8.30149 6.52755C8.37302 6.40802 8.47567 6.31016 8.59848 6.24442C8.72128 6.17867 8.85963 6.14751 8.99876 6.15425C9.1379 6.16099 9.27259 6.20538 9.38846 6.28269L14.0038 9.35961C14.1094 9.42983 14.1959 9.52503 14.2557 9.63675C14.3156 9.74848 14.3469 9.87326 14.3469 10C14.3469 10.1267 14.3156 10.2515 14.2557 10.3632C14.1959 10.475 14.1094 10.5702 14.0038 10.6404Z" fill="#01AC5D"/>
</svg>
