<svg width="60" height="60" viewBox="0 0 60 60" fill="none" xmlns="http://www.w3.org/2000/svg">
<path fill-rule="evenodd" clip-rule="evenodd" d="M26.0576 24.8497C23.8073 24.8497 21.6916 23.9733 20.1003 22.3822C18.509 20.7909 17.6328 18.6753 17.6328 16.4249C17.6328 14.1746 18.5092 12.0589 20.1005 10.4677C21.6917 8.8764 23.8074 8 26.0577 8C28.3081 8 30.4238 8.8764 32.015 10.4677C33.6063 12.0589 34.4827 14.1746 34.4827 16.4249C34.4827 18.6753 33.6063 20.7909 32.0152 22.3822C30.4236 23.9735 28.3079 24.8497 26.0576 24.8497ZM26.0576 9.82075C22.4161 9.82075 19.4534 12.7833 19.4534 16.4249C19.4534 20.0666 22.4159 23.0291 26.0576 23.0291C29.6991 23.0291 32.6618 20.0666 32.6618 16.4249C32.6616 12.7833 29.6991 9.82075 26.0576 9.82075Z" fill="#01AC5D"/>
<path fill-rule="evenodd" clip-rule="evenodd" d="M21.4785 52.1057C20.1988 52.1057 19.0082 51.595 18.1261 50.6677C17.244 49.7405 16.7935 48.5258 16.8576 47.2477L17.7248 29.9262C17.8482 27.4615 19.8779 25.5308 22.3457 25.5308C23.6255 25.5308 24.8161 26.0414 25.6982 26.9687C26.5803 27.896 27.0307 29.1106 26.9667 30.3888L26.0995 47.7103C25.976 50.1749 23.9463 52.1057 21.4785 52.1057ZM22.3457 27.3515C20.8491 27.3515 19.6181 28.5224 19.5433 30.0172L18.6761 47.3387C18.6374 48.1139 18.9105 48.8505 19.4453 49.413C19.9803 49.9753 20.7023 50.2851 21.4785 50.2851C22.9751 50.2851 24.2062 49.1143 24.2809 47.6194L25.1481 30.2979C25.1869 29.5227 24.9138 28.7861 24.3789 28.2238C23.8439 27.6611 23.1219 27.3515 22.3457 27.3515Z" fill="#01AC5D"/>
<path fill-rule="evenodd" clip-rule="evenodd" d="M30.6368 52.1057C28.1689 52.1057 26.1392 50.1751 26.0158 47.7103L25.1486 30.3888C25.0846 29.1106 25.5352 27.896 26.4171 26.9687C27.2992 26.0414 28.4896 25.5308 29.7695 25.5308C32.2373 25.5308 34.267 27.4615 34.3905 29.9262L35.2577 47.2477C35.3217 48.5258 34.8713 49.7405 33.9892 50.6677C33.1071 51.5949 31.9165 52.1057 30.6368 52.1057ZM29.7695 27.3515C28.9933 27.3515 28.2714 27.6613 27.7363 28.2236C27.2015 28.786 26.9282 29.5227 26.9671 30.2978L27.8343 47.6192C27.9091 49.1141 29.1402 50.2849 30.6368 50.2849C31.4129 50.2849 32.1349 49.9752 32.6699 49.4128C33.2049 48.8505 33.478 48.1138 33.4393 47.3385L32.5721 30.0171C32.4972 28.5224 31.2661 27.3515 29.7695 27.3515Z" fill="#01AC5D"/>
<path fill-rule="evenodd" clip-rule="evenodd" d="M18.3324 36.8457C18.2712 36.8457 18.2091 36.8396 18.1469 36.8266C17.3568 36.663 16.6109 36.3419 15.9299 35.8724C14.7655 35.0694 13.9146 33.9298 13.469 32.5766C13.0268 31.2339 13.026 29.8124 13.4665 28.4652C14.1687 26.3168 15.3708 24.5499 17.0392 23.2136C18.4462 22.0867 19.8957 21.5067 20.8638 21.2187C21.3455 21.0753 21.8525 21.3497 21.9959 21.8316C22.1392 22.3135 21.8649 22.8204 21.383 22.9637C19.6444 23.4809 16.5289 24.9569 15.1971 29.031C14.5491 31.0125 15.2755 33.2093 16.9635 34.3735C17.443 34.7041 17.9656 34.9295 18.5162 35.0436C19.0086 35.1456 19.325 35.6275 19.223 36.1198C19.1339 36.55 18.755 36.8457 18.3324 36.8457Z" fill="#01AC5D"/>
<path fill-rule="evenodd" clip-rule="evenodd" d="M33.7816 36.8628C33.3528 36.8628 32.9708 36.5584 32.8882 36.1217C32.7946 35.6278 33.1192 35.1514 33.6131 35.0579C34.1907 34.9485 34.7367 34.7184 35.2362 34.374C36.9243 33.2099 37.6509 31.0132 37.0029 29.0317C35.6601 24.9247 32.514 23.4567 30.7584 22.947C30.2756 22.8068 29.9977 22.3019 30.1379 21.819C30.2781 21.3362 30.7831 21.0582 31.2659 21.1985C32.2367 21.4801 33.6915 22.0517 35.1097 23.1735C36.8045 24.5144 38.0237 26.2949 38.7335 28.4657C39.174 29.8128 39.1732 31.2345 38.7308 32.5771C38.2851 33.9303 37.434 35.07 36.2697 35.8729C35.56 36.3623 34.7802 36.6899 33.9518 36.8467C33.8948 36.8574 33.8377 36.8628 33.7816 36.8628Z" fill="#01AC5D"/>
<path fill-rule="evenodd" clip-rule="evenodd" d="M7.97876 52.1054C4.13068 52.1054 1 48.9748 1 45.1267C1 44.6239 1.40761 44.2163 1.91038 44.2163H14.047C14.5498 44.2163 14.9574 44.6239 14.9574 45.1267C14.9575 48.9748 11.8268 52.1054 7.97876 52.1054ZM2.9012 46.0371C3.33237 48.4485 5.4452 50.2847 7.97876 50.2847C10.5123 50.2847 12.625 48.4486 13.0563 46.0371H2.9012Z" fill="#01AC5D"/>
<path fill-rule="evenodd" clip-rule="evenodd" d="M26.0559 46.6139C25.7784 46.6139 25.501 46.6051 25.2255 46.5875C24.7237 46.5555 24.343 46.1229 24.3749 45.6211C24.407 45.1192 24.8394 44.7385 25.3414 44.7704C25.8154 44.8006 26.2963 44.8006 26.7708 44.7704C27.2722 44.7388 27.7054 45.1192 27.7373 45.6211C27.7694 46.1229 27.3885 46.5555 26.8867 46.5875C26.611 46.6051 26.3335 46.6139 26.0559 46.6139Z" fill="#01AC5D"/>
<path fill-rule="evenodd" clip-rule="evenodd" d="M58.3598 52.1065H38.8791C38.3764 52.1065 37.9688 51.6988 37.9688 51.1961V38.8191C37.9688 38.3163 38.3764 37.9087 38.8791 37.9087H58.3598C58.8625 37.9087 59.2701 38.3163 59.2701 38.8191V51.1961C59.2701 51.6988 58.8625 52.1065 58.3598 52.1065ZM39.7895 50.2857H57.4494V39.7294H39.7895V50.2857Z" fill="#01AC5D"/>
<path fill-rule="evenodd" clip-rule="evenodd" d="M48.1908 47.809H44.133C43.6303 47.809 43.2227 47.4014 43.2227 46.8987C43.2227 46.3959 43.6303 45.9883 44.133 45.9883H48.1908C48.6936 45.9883 49.1012 46.3959 49.1012 46.8987C49.1012 47.4014 48.6938 47.809 48.1908 47.809Z" fill="#01AC5D"/>
<path fill-rule="evenodd" clip-rule="evenodd" d="M53.0918 47.809H50.9377C50.435 47.809 50.0273 47.4014 50.0273 46.8987C50.0273 46.3959 50.435 45.9883 50.9377 45.9883H53.0918C53.5946 45.9883 54.0022 46.3959 54.0022 46.8987C54.0022 47.4014 53.5946 47.809 53.0918 47.809Z" fill="#01AC5D"/>
<path fill-rule="evenodd" clip-rule="evenodd" d="M54.3114 44.0161H42.9221C42.4193 44.0161 42.0117 43.6085 42.0117 43.1057C42.0117 42.6029 42.4193 42.1953 42.9221 42.1953H54.3114C54.8142 42.1953 55.2218 42.6029 55.2218 43.1057C55.2218 43.6085 54.8144 44.0161 54.3114 44.0161Z" fill="#01AC5D"/>
</svg>
