<svg width="30" height="30" viewBox="0 0 30 30" fill="none" xmlns="http://www.w3.org/2000/svg">
<path d="M4.82227 9.4113V8.84833C4.82227 8.60563 4.62557 8.40887 4.38281 8.40887C4.14006 8.40887 3.94336 8.60563 3.94336 8.84833V9.4113C3.94336 9.65399 4.14006 9.85075 4.38281 9.85075C4.62557 9.85075 4.82227 9.65399 4.82227 9.4113Z" fill="white"/>
<path d="M10.6816 9.4113V8.84833C10.6816 8.60563 10.4849 8.40887 10.2422 8.40887C9.99943 8.40887 9.80273 8.60563 9.80273 8.84833V9.4113C9.80273 9.65399 9.99943 9.85075 10.2422 9.85075C10.4849 9.85075 10.6816 9.65399 10.6816 9.4113Z" fill="white"/>
<path d="M7.31336 10.1859C7.73647 10.1859 8.13871 10.0028 8.41709 9.68333C8.57659 9.50034 8.55748 9.22278 8.3745 9.06329C8.19139 8.90385 7.91389 8.9229 7.75446 9.10589C7.64307 9.23374 7.48223 9.30704 7.31336 9.30704C7.1445 9.30704 6.98371 9.23374 6.87233 9.10589C6.71278 8.92296 6.43522 8.90391 6.25229 9.06329C6.06936 9.22278 6.05026 9.50034 6.20969 9.68333C6.48807 10.0027 6.89032 10.1859 7.31336 10.1859Z" fill="white"/>
<path d="M3.08648 12.4224C3.24457 12.6064 3.52207 12.6275 3.70617 12.4693C3.89027 12.3111 3.91125 12.0336 3.75311 11.8495C3.06568 11.0496 2.67463 10.0318 2.65201 8.98383C2.63648 8.26729 2.78273 7.5784 3.08672 6.93628C3.12703 6.85102 3.19857 6.82764 3.2376 6.82131C3.27809 6.81475 3.35572 6.8144 3.42369 6.88536C3.85975 7.3404 4.44703 7.591 5.07715 7.591C5.19229 7.591 5.30977 7.58192 5.42631 7.56405C5.81408 7.50452 6.18217 7.34485 6.49096 7.10215C6.5424 7.06167 6.6092 7.04819 6.67002 7.06606C7.02352 7.1703 7.40801 7.1703 7.76092 7.06606C7.82156 7.04819 7.88848 7.06172 7.94004 7.10221C8.3468 7.42202 8.8357 7.591 9.35379 7.591C9.98391 7.591 10.5711 7.3404 11.0072 6.88536C11.0752 6.81446 11.153 6.81475 11.1933 6.82131C11.2324 6.82764 11.304 6.85102 11.3443 6.93633C11.6334 7.54735 11.78 8.20231 11.78 8.88311C11.78 10.1078 11.3016 11.2578 10.4327 12.1211C9.56461 12.9836 8.41541 13.4547 7.18682 13.4474C7.17838 13.4471 7.16988 13.4468 7.16133 13.4467C7.156 13.4467 7.15084 13.4467 7.14557 13.4469C6.48187 13.4368 5.84256 13.2857 5.2452 12.9976C5.02652 12.892 4.76385 12.9839 4.65844 13.2024C4.55297 13.421 4.64473 13.6837 4.86328 13.7892C5.58264 14.1362 6.35285 14.3169 7.15242 14.326C7.15471 14.3261 7.15717 14.3261 7.15916 14.326C7.18008 14.3268 7.1973 14.3266 7.21582 14.3266C8.66332 14.3265 10.0247 13.7656 11.0521 12.7446C11.5312 12.2686 11.9105 11.7194 12.1802 11.1222C12.3997 11.219 12.6387 11.2701 12.8831 11.2701C13.8448 11.2701 14.6271 10.4878 14.6271 9.52612C14.6271 8.96544 14.3609 8.4661 13.9485 8.14682C13.8686 4.5562 10.923 1.65979 7.31361 1.65979C7.22936 1.65979 7.14041 1.66196 7.03541 1.66653C7.02703 1.66641 7.01883 1.66653 7.01045 1.66694C3.50871 1.8245 0.755332 4.65751 0.678516 8.14676C0.266191 8.46604 0 8.96538 0 9.526C0 10.4876 0.782344 11.27 1.74398 11.27C1.9302 11.27 2.11271 11.2398 2.28656 11.1829C2.4948 11.6274 2.76252 12.0454 3.08648 12.4224ZM12.8831 10.3911C12.7397 10.3911 12.6006 10.355 12.4763 10.2887C12.5965 9.83579 12.6588 9.36434 12.6588 8.88305C12.6588 8.81913 12.6574 8.75544 12.6552 8.69186C12.7287 8.67182 12.8047 8.66092 12.8831 8.66092C13.3601 8.66092 13.7481 9.04899 13.7481 9.526C13.7481 10.003 13.3601 10.3911 12.8831 10.3911ZM7.02504 2.54602C7.03336 2.54614 7.0415 2.54596 7.04971 2.54555C7.15248 2.54081 7.23633 2.53858 7.31355 2.53858C10.3178 2.53858 12.7917 4.85151 13.0489 7.7901C12.9943 7.78495 12.9391 7.78202 12.8831 7.78202C12.7724 7.78202 12.6622 7.7928 12.5539 7.8136C12.4679 7.38241 12.3294 6.9634 12.1387 6.56034C11.9859 6.23754 11.6851 6.01079 11.3342 5.95377C10.9812 5.89641 10.6217 6.01735 10.3727 6.27721C10.1039 6.5577 9.74209 6.71209 9.35379 6.71209C9.03469 6.71209 8.73363 6.60803 8.4832 6.41122C8.20852 6.19524 7.84564 6.12481 7.51242 6.22307C7.32076 6.27961 7.11059 6.27961 6.91852 6.22307C6.58541 6.12481 6.22248 6.19524 5.94785 6.41122C5.75795 6.56051 5.53154 6.65877 5.29307 6.69534C4.82191 6.76764 4.37607 6.60874 4.05838 6.27721C3.8093 6.01729 3.44982 5.89641 3.0968 5.95377C2.74588 6.01079 2.44518 6.23754 2.29236 6.56034C2.10516 6.95579 1.96852 7.36606 1.88221 7.78776C1.83639 7.78418 1.79039 7.78202 1.7441 7.78202C1.68803 7.78202 1.63271 7.78495 1.57799 7.7901C1.8242 4.94614 4.12605 2.68875 7.02504 2.54602ZM1.74398 10.3911C1.26697 10.3911 0.878906 10.003 0.878906 9.526C0.878906 9.04899 1.26697 8.66092 1.74398 8.66092C1.75488 8.66092 1.76566 8.66198 1.7765 8.66239C1.77211 8.7753 1.77088 8.88874 1.77334 9.00282C1.78324 9.46348 1.8532 9.91899 1.97801 10.3586C1.90242 10.3798 1.82391 10.3911 1.74398 10.3911Z" fill="white"/>
<path d="M29.9997 9.46112C29.9997 8.90015 29.7362 8.39987 29.3269 8.07649C29.2558 7.13337 28.9898 6.23519 28.5347 5.40421C28.5075 5.35458 28.4912 5.30319 28.4876 5.2555C28.3249 3.12978 25.7896 1.4646 22.7157 1.4646C19.6417 1.4646 17.1064 3.12978 16.9437 5.25556C16.9401 5.30313 16.9238 5.35452 16.8966 5.40421C16.4422 6.23401 16.1764 7.13261 16.1051 8.07603C15.6954 8.3994 15.4316 8.89991 15.4316 9.46118C15.4316 9.93444 15.6193 10.3644 15.9236 10.6816C15.7878 11.4822 15.999 12.2957 16.5131 12.9305C17.0521 13.596 17.8524 13.9776 18.7088 13.9776H20.8011C21.3868 14.1998 22.0122 14.3192 22.6558 14.3262C22.6759 14.3265 22.6961 14.3266 22.7162 14.3266C23.3822 14.3266 24.0292 14.206 24.6343 13.9776H26.7224C27.5788 13.9776 28.3791 13.596 28.9182 12.9305C29.4323 12.2958 29.6436 11.4823 29.5077 10.6816C29.8121 10.3643 29.9997 9.93438 29.9997 9.46112ZM28.1314 8.58204C28.1656 8.57806 28.2002 8.57554 28.2353 8.57554C28.7235 8.57554 29.1208 8.9728 29.1208 9.46106C29.1208 9.94933 28.7235 10.3466 28.2353 10.3466C28.1406 10.3466 28.0479 10.3313 27.9597 10.3025C28.0796 9.85077 28.1418 9.3805 28.1418 8.90026C28.1418 8.7938 28.1376 8.68774 28.1314 8.58204ZM17.6675 5.82632C17.7555 5.66565 17.8069 5.49614 17.8201 5.32253C17.8792 4.54956 18.3933 3.81708 19.2677 3.26003C20.1954 2.66899 21.4199 2.34351 22.7157 2.34351C24.0115 2.34351 25.2359 2.66899 26.1636 3.26003C27.038 3.81708 27.5521 4.54956 27.6112 5.32247C27.6245 5.49614 27.6759 5.66565 27.7638 5.82632C28.0871 6.41671 28.2999 7.04642 28.4003 7.70466C28.3459 7.69956 28.2909 7.69669 28.2352 7.69669C28.1591 7.69669 28.0839 7.70202 28.0095 7.71151C27.8043 6.79517 27.3641 5.9428 26.7192 5.23821C26.4561 4.95081 26.0817 4.78546 25.692 4.78452C25.6908 4.78452 25.6898 4.78452 25.6887 4.78452C25.3052 4.78452 24.937 4.94495 24.6781 5.22503C24.0467 5.90812 23.19 6.48333 22.2004 6.88856C21.0643 7.35386 19.8787 7.53726 18.8625 7.40483C18.4721 7.35415 18.0764 7.4711 17.7771 7.72616C17.7578 7.74257 17.7391 7.75956 17.7208 7.77696C17.5516 7.7244 17.3744 7.69681 17.1961 7.69681C17.1405 7.69681 17.0854 7.69974 17.0311 7.70477C17.1316 7.04601 17.3446 6.41606 17.6675 5.82632ZM16.3106 9.46112C16.3106 8.97286 16.7079 8.5756 17.1961 8.5756C17.233 8.5756 17.2695 8.57782 17.3055 8.58216C17.2982 8.63278 17.2936 8.68399 17.292 8.73561L17.2908 8.78718C17.2801 9.30544 17.3429 9.81421 17.4738 10.3022C17.3852 10.3314 17.2918 10.3467 17.1962 10.3467C16.7079 10.3467 16.3106 9.94938 16.3106 9.46112ZM18.7089 13.0987C18.1189 13.0987 17.5676 12.8357 17.1962 12.3772C16.9156 12.0308 16.7658 11.6069 16.7621 11.1714C16.9011 11.2067 17.0464 11.2256 17.1962 11.2256C17.3941 11.2256 17.5871 11.1922 17.7701 11.1292C18.0259 11.6919 18.3803 12.2133 18.825 12.6722C18.9724 12.8243 19.1272 12.9663 19.2882 13.0987H18.7089ZM22.6653 13.4473C21.4497 13.4342 20.31 12.9417 19.4561 12.0606C18.6013 11.1786 18.1444 10.0225 18.1694 8.80569L18.1705 8.76146C18.1748 8.6186 18.2376 8.48847 18.3471 8.39519C18.4418 8.31456 18.558 8.2719 18.6802 8.2719C18.703 8.2719 18.726 8.27337 18.7492 8.27642C19.9146 8.42823 21.2585 8.22415 22.5336 7.7019C23.641 7.24845 24.6057 6.59829 25.3237 5.82163C25.4182 5.71927 25.549 5.66284 25.6899 5.66343C25.8345 5.66378 25.9734 5.72513 26.071 5.83171C26.8396 6.67147 27.2629 7.76132 27.2629 8.90044C27.2629 10.1243 26.7837 11.2724 25.9136 12.1332C25.0435 12.9939 23.89 13.4596 22.6653 13.4473ZM28.2353 12.3772C27.8639 12.8357 27.3125 13.0987 26.7225 13.0987H26.1532C26.2836 12.9915 26.4101 12.8782 26.5316 12.758C27.0138 12.281 27.3953 11.73 27.6657 11.1304C27.8477 11.1925 28.0394 11.2256 28.2353 11.2256C28.385 11.2256 28.5304 11.2067 28.6693 11.1715C28.6656 11.6069 28.5159 12.0308 28.2353 12.3772Z" fill="white"/>
<path d="M19.7871 8.72791C19.5444 8.72791 19.3477 8.92466 19.3477 9.16736V9.73033C19.3477 9.97302 19.5444 10.1698 19.7871 10.1698C20.0299 10.1698 20.2266 9.97302 20.2266 9.73033V9.16736C20.2266 8.92466 20.0298 8.72791 19.7871 8.72791Z" fill="white"/>
<path d="M26.0859 9.73033V9.16736C26.0859 8.92466 25.8892 8.72791 25.6465 8.72791C25.4037 8.72791 25.207 8.92466 25.207 9.16736V9.73033C25.207 9.97302 25.4037 10.1698 25.6465 10.1698C25.8892 10.1698 26.0859 9.97302 26.0859 9.73033Z" fill="white"/>
<path d="M23.7769 9.38224C23.5939 9.22275 23.3163 9.2418 23.1569 9.42478C23.0455 9.55264 22.8847 9.626 22.7158 9.626C22.5468 9.626 22.3861 9.55269 22.2747 9.42484C22.1152 9.24185 21.8376 9.22281 21.6547 9.38224C21.4717 9.54168 21.4526 9.81924 21.612 10.0023C21.8903 10.3217 22.2927 10.5049 22.7158 10.5049C23.1388 10.5049 23.5411 10.3217 23.8194 10.0023C23.9789 9.8193 23.9599 9.54168 23.7769 9.38224Z" fill="white"/>
<path d="M25.1549 15.1699L22.1952 16.3791C21.4673 16.6764 20.6997 16.8271 19.9135 16.8271H18.9759C18.6148 16.526 18.1507 16.3444 17.6448 16.3444H14.6447C14.1634 16.3444 13.6849 16.2317 13.2225 16.0093C12.6006 15.7102 11.9331 15.5587 11.2386 15.5587C9.96197 15.5587 8.73314 16.0974 7.86724 17.0367C7.64658 17.276 7.39099 17.4804 7.10746 17.6441L5.9132 18.3336C5.78494 18.2841 5.65152 18.2451 5.51365 18.2187C4.91072 18.103 4.29906 18.2293 3.79105 18.5738L2.98387 19.1213C1.93533 19.8327 1.66076 21.2645 2.37197 22.3131L5.90822 27.5266C6.25275 28.0346 6.77453 28.378 7.37734 28.4936C7.52318 28.5216 7.66949 28.5354 7.8148 28.5354C8.27008 28.5354 8.71486 28.3996 9.1 28.1385L9.90719 27.591C10.4152 27.2465 10.7586 26.7247 10.8742 26.1218C10.8787 26.0981 10.8822 26.0743 10.8861 26.0506L14.0484 24.2248C14.5411 23.9404 15.1021 23.79 15.671 23.79H17.352C17.5947 23.79 17.7914 23.5933 17.7914 23.3506C17.7914 23.1079 17.5947 22.9111 17.352 22.9111H15.671C14.9481 22.9111 14.235 23.1022 13.609 23.4637L10.8302 25.068C10.7639 24.8329 10.6602 24.6073 10.519 24.3992L6.98283 19.1857C6.90724 19.0743 6.82269 18.9713 6.73105 18.8764L7.54691 18.4053C7.90744 18.1972 8.23264 17.9372 8.51353 17.6325C9.21349 16.8731 10.2068 16.4376 11.2387 16.4376C11.8003 16.4376 12.3396 16.56 12.8417 16.8015C13.424 17.0814 14.0306 17.2234 14.6448 17.2234H17.6449C18.3078 17.2234 18.8471 17.7627 18.8471 18.4256C18.8471 19.0885 18.3078 19.6278 17.6449 19.6278H14.1474C13.9046 19.6278 13.7079 19.8246 13.7079 20.0673C13.7079 20.31 13.9046 20.5067 14.1474 20.5067H17.6449H18.7393C19.64 20.5067 20.5195 20.334 21.3534 19.9933L24.3132 18.7842C24.6106 18.6627 24.9375 18.6643 25.2337 18.7886C25.5299 18.913 25.7598 19.1453 25.8814 19.4427C26.132 20.0563 25.837 20.7597 25.2235 21.0107L21.6784 22.4616C20.9495 22.7599 20.1807 22.9111 19.3932 22.9111C19.1504 22.9111 18.9537 23.1079 18.9537 23.3506C18.9537 23.5933 19.1504 23.79 19.3932 23.79C20.2953 23.79 21.1762 23.6167 22.0114 23.275L25.5565 21.8241C26.6181 21.3896 27.1288 20.1722 26.6951 19.1103C26.6866 19.0896 26.6774 19.0694 26.6683 19.0491L26.7308 19.0235C27.7923 18.5891 28.3031 17.3717 27.8693 16.3098C27.4352 15.2472 26.2176 14.7359 25.1549 15.1699ZM9.79146 24.8925C10.0043 25.2062 10.0821 25.584 10.0108 25.9563C9.93941 26.3285 9.7273 26.6508 9.41365 26.8636L8.60646 27.4111C8.29275 27.6239 7.91488 27.7016 7.54269 27.6304C7.17039 27.559 6.84818 27.347 6.63549 27.0332L3.09924 21.8197C2.66002 21.1722 2.82953 20.2879 3.47711 19.8487L4.28429 19.3012C4.52213 19.1399 4.79676 19.0561 5.07795 19.0561C5.16765 19.0561 5.25801 19.0647 5.34806 19.0819C5.72037 19.1533 6.04258 19.3653 6.25527 19.679L9.79146 24.8925ZM26.3978 18.21L26.1275 18.3206C25.9642 18.1801 25.7783 18.0641 25.5739 17.9782C25.0612 17.763 24.4955 17.7601 23.9806 17.9705L21.021 19.1796C20.4876 19.3975 19.9329 19.5366 19.3651 19.5955C19.5928 19.2619 19.7259 18.859 19.7259 18.4255C19.7259 18.1728 19.6805 17.9304 19.5976 17.7061H19.9135C20.8142 17.7061 21.6937 17.5334 22.5276 17.1927L25.4874 15.9836C26.1012 15.7329 26.8047 16.0282 27.0556 16.6421C27.3062 17.2556 27.0111 17.959 26.3978 18.21Z" fill="white"/>
</svg>
