<svg width="100" height="100" viewBox="0 0 100 100" fill="none" xmlns="http://www.w3.org/2000/svg">
<path fill-rule="evenodd" clip-rule="evenodd" d="M50.1451 28.6087C49.6129 28.6087 49.1809 28.1791 49.1809 27.647C49.1769 22.8422 46.2535 16.8207 42.0731 13.0059C41.6799 12.6465 41.6515 12.0381 42.011 11.6446C42.3707 11.251 42.9787 11.2229 43.3722 11.5823C47.9224 15.7345 51.1044 22.3403 51.1084 27.645C51.1087 28.177 50.6767 28.6088 50.1451 28.6087Z" fill="#FF7E29"/>
<path fill-rule="evenodd" clip-rule="evenodd" d="M37.9641 8.04474C37.6207 10.141 38.1767 12.2251 39.536 13.8455C41.0442 15.6445 43.3529 16.6464 45.9491 16.6524C46.4432 13.5383 45.9451 11.1228 44.4913 9.63709C43.106 8.21948 40.803 7.66134 37.9641 8.04474ZM45.9693 18.5819C42.793 18.5819 39.9436 17.3311 38.0582 15.0823C36.1669 12.8275 35.4962 9.86593 36.221 6.9626C36.3138 6.59315 36.6126 6.31408 36.9882 6.2458C40.7672 5.57111 43.9212 6.29597 45.8708 8.28978C47.2885 9.73946 48.758 12.5625 47.7038 17.7809C47.6178 18.2064 47.2582 18.5217 46.8265 18.5518C46.5394 18.572 46.2522 18.5819 45.9693 18.5819Z" fill="#FF7E29"/>
<path fill-rule="evenodd" clip-rule="evenodd" d="M48.8 22.2103C48.6234 22.2103 48.4425 22.1621 48.282 22.0597C47.8342 21.7725 47.7037 21.1763 47.9888 20.7285C50.1413 17.3613 52.8358 14.8195 56.2269 12.9582C56.6928 12.7032 57.2791 12.8738 57.5341 13.3397C57.791 13.8055 57.6205 14.3918 57.1545 14.6488C54.0526 16.3494 51.5868 18.6785 49.6131 21.7666C49.4307 22.0536 49.1192 22.2103 48.8 22.2103Z" fill="#FF7E29"/>
<path fill-rule="evenodd" clip-rule="evenodd" d="M52.3695 17.1608C54.9034 17.8534 57.4212 17.488 59.3629 16.1267C61.094 14.914 62.1718 13.0447 62.3827 10.9325C59.586 9.77787 56.9515 9.81807 55.0801 11.0609C53.3494 12.2094 52.3998 14.3598 52.3695 17.1608ZM54.8615 19.4317C53.6286 19.4317 52.3615 19.2188 51.1026 18.7852C50.7274 18.6566 50.4701 18.3113 50.4541 17.9137C50.2996 14.0848 51.5644 11.081 54.014 9.45469C56.5904 7.74399 60.1539 7.74203 63.7922 9.44667C64.1357 9.60924 64.3523 9.9566 64.3463 10.3361C64.2943 13.3298 62.8806 16.0163 60.4692 17.7049C58.8393 18.8473 56.8992 19.4317 54.8615 19.4317Z" fill="#FF7E29"/>
<path fill-rule="evenodd" clip-rule="evenodd" d="M62.6185 79.9937C62.0904 79.9937 61.6586 79.566 61.6565 79.0359C61.6369 75.9278 62.7268 68.8543 63.5259 66.0413C64.5743 62.3468 67.3187 59.5499 71.6877 57.7268C73.6434 56.7047 74.603 55.0684 75.6171 53.3397C76.0974 52.5204 76.5909 51.6752 77.2052 50.868C79.0727 48.4184 82.4758 45.9328 85.9213 46.9889C87.0097 47.3222 87.7585 48.0812 88.0315 49.1252C88.4174 50.605 87.7525 52.3157 86.9313 53.175C84.4116 55.8093 81.5422 60.0619 80.2552 63.0676C80.0444 63.5576 79.4782 63.7824 78.9902 63.5736C78.5003 63.3648 78.2735 62.7986 78.4822 62.3087C79.8701 59.068 82.8373 54.6648 85.5377 51.8418C85.9878 51.372 86.357 50.3399 86.1663 49.6111C86.0642 49.2176 85.8069 48.9706 85.3551 48.8321C82.6868 48.0129 79.9399 50.4604 78.7392 52.0366C78.1954 52.7494 77.7514 53.5103 77.2795 54.3135C76.1656 56.2149 75.0127 58.1805 72.537 59.4575C72.513 59.4696 72.4889 59.4796 72.4647 59.4897C68.5918 61.0979 66.2745 63.413 65.3791 66.5674C64.6221 69.2376 63.564 76.1306 63.5841 79.0239C63.5862 79.556 63.1584 79.9916 62.6264 79.9937C62.6244 79.9937 62.6224 79.9937 62.6185 79.9937Z" fill="#FF7E29"/>
<path fill-rule="evenodd" clip-rule="evenodd" d="M77.8906 79.9927C77.7759 79.9927 77.6594 79.9727 77.547 79.9304C77.0494 79.7397 76.8001 79.1835 76.9909 78.6856C79.1031 73.144 86.0863 66.9679 88.3913 65.3456C92.5942 62.384 93.1338 52.9653 91.5094 45.6045C91.2185 44.2833 90.0859 40.1131 88.6122 36.3203C86.5464 30.9995 85.0262 29.586 84.4419 29.586C84.438 29.5859 84.4359 29.586 84.4318 29.586C84.0043 29.6 83.8375 29.7647 83.7291 29.9233C83.1229 30.8167 83.4479 33.2644 84.1147 35.1155C85.6551 39.3983 86.7248 43.7734 87.293 48.1203C87.3614 48.6484 86.9898 49.1323 86.4618 49.2026C85.936 49.2708 85.4498 48.8994 85.3817 48.3713C84.8315 44.1609 83.7953 39.9203 82.2996 35.7681C82.1272 35.2882 80.6552 31.0156 82.1349 28.8391C82.6391 28.0982 83.412 27.6906 84.3697 27.6605C85.6208 27.6223 87.6042 28.4014 90.4091 35.6235C91.9233 39.5187 93.0917 43.8235 93.3929 45.1889C94.2684 49.1604 94.5132 53.5716 94.0594 57.2881C93.5013 61.882 91.9251 65.2131 89.5016 66.9197C86.7493 68.8593 80.5787 74.688 78.7918 79.3723C78.6455 79.7578 78.2778 79.9927 77.8906 79.9927Z" fill="#FF7E29"/>
<path fill-rule="evenodd" clip-rule="evenodd" d="M60.8079 79.99C60.6127 79.99 60.446 80.1547 60.446 80.3515V91.9909C60.446 92.1876 60.6126 92.3523 60.8075 92.3523H79.2114C79.406 92.3523 79.5706 92.1876 79.5706 91.9909L79.571 80.3515C79.571 80.1547 79.4061 79.99 79.2112 79.99H60.8079ZM79.2114 94.2797H60.8079C59.5448 94.2797 58.5186 93.2538 58.5186 91.9909L58.5188 80.3515C58.5188 79.0885 59.5445 78.0626 60.8075 78.0626L79.2114 78.0625C80.4723 78.0625 81.4982 79.0885 81.4982 80.3515V91.9909C81.4982 93.2538 80.4723 94.2797 79.2114 94.2797Z" fill="#FF7E29"/>
<path fill-rule="evenodd" clip-rule="evenodd" d="M66.3922 84.449H63.2999C62.7659 84.449 62.3359 84.0193 62.3359 83.4853C62.3363 82.9532 62.7656 82.5215 63.2997 82.5215H66.3922C66.9262 82.5215 67.3556 82.9532 67.3556 83.4853C67.3559 84.0193 66.9259 84.449 66.3922 84.449Z" fill="#FF7E29"/>
<path fill-rule="evenodd" clip-rule="evenodd" d="M37.6665 79.9937C37.6642 79.9937 37.6622 79.9937 37.6582 79.9937C37.1262 79.9916 36.6985 79.556 36.7025 79.0239C36.7206 76.1306 35.6624 69.2376 34.9055 66.5674C34.01 63.4129 31.693 61.0979 27.8198 59.4897C27.796 59.4796 27.7717 59.4696 27.7475 59.4575C25.272 58.1805 24.1194 56.2149 23.005 54.3135C22.5334 53.5103 22.0894 52.7494 21.5453 52.0366C20.3451 50.4604 17.598 48.0129 14.9295 48.8321C14.478 48.9706 14.2207 49.2176 14.1184 49.6111C13.93 50.3399 14.2971 51.372 14.7468 51.8418C17.4474 54.6648 20.4149 59.068 21.8024 62.3087C22.0116 62.7986 21.7843 63.3648 21.2943 63.5736C20.8067 63.7824 20.2382 63.5576 20.0294 63.0676C18.7426 60.0619 15.8731 55.8093 13.3534 53.175C12.5322 52.3157 11.8675 50.605 12.2531 49.1252C12.5263 48.0812 13.2751 47.3222 14.3633 46.9889C17.8088 45.9328 21.2121 48.4184 23.0793 50.868C23.6939 51.6752 24.1876 52.5205 24.6675 53.3397C25.6817 55.0684 26.6412 56.7048 28.5968 57.7268C32.9659 59.5499 35.7106 62.3469 36.7587 66.0413C37.5581 68.8543 38.6481 75.9278 38.628 79.0359C38.6261 79.566 38.1943 79.9937 37.6665 79.9937Z" fill="#FF7E29"/>
<path fill-rule="evenodd" clip-rule="evenodd" d="M22.3927 79.9925C22.0051 79.9925 21.6375 79.7576 21.491 79.3721C19.7043 74.6878 13.5339 68.859 10.7812 66.9195C8.35782 65.2128 6.78161 61.8818 6.22341 57.2878C5.76965 53.5714 6.01458 49.1601 6.89003 45.1887C7.1913 43.8233 8.35972 39.5185 9.87359 35.6233C12.6789 28.4011 14.6643 27.6261 15.9132 27.6602C16.8713 27.6903 17.644 28.0979 18.1479 28.8388C19.628 31.0153 18.156 35.288 17.9832 35.7678C16.4877 39.92 15.4514 44.1607 14.9012 48.3711C14.8334 48.8991 14.3491 49.2706 13.8211 49.2023C13.2933 49.132 12.9215 48.6482 12.9898 48.1201C13.558 43.7751 14.6282 39.3981 16.1682 35.1153C16.8351 33.2641 17.16 30.8166 16.5537 29.9231C16.4453 29.7644 16.2786 29.5998 15.851 29.5857C15.8472 29.5857 15.845 29.5857 15.841 29.5857C15.2567 29.5857 13.7368 30.9993 11.6707 36.3201C10.1969 40.1128 9.06452 44.2831 8.77328 45.6042C7.14932 52.965 7.68912 62.3857 11.8916 65.3433C14.1968 66.9676 21.1797 73.1438 23.292 78.6854C23.4828 79.1833 23.2338 79.7395 22.7359 79.9302C22.6236 79.9724 22.5069 79.9925 22.3927 79.9925Z" fill="#FF7E29"/>
<path fill-rule="evenodd" clip-rule="evenodd" d="M21.0721 79.99C20.8774 79.99 20.7128 80.1547 20.7128 80.3515L20.713 91.9909C20.713 92.1876 20.8774 92.3523 21.0721 92.3523H39.4761C39.6731 92.3523 39.8374 92.1876 39.8374 91.9909L39.8375 80.3515C39.8375 80.1547 39.6728 79.99 39.476 79.99H21.0721ZM39.4761 94.2797H21.0721C19.8112 94.2797 18.7852 93.2538 18.7852 91.9909L18.7853 80.3515C18.7853 79.0885 19.8112 78.0626 21.0721 78.0626L39.4761 78.0625C40.7392 78.0625 41.7649 79.0885 41.7649 80.3515L41.7651 91.9909C41.7651 93.2538 40.7389 94.2797 39.4761 94.2797Z" fill="#FF7E29"/>
<path fill-rule="evenodd" clip-rule="evenodd" d="M36.9848 84.449H33.8925C33.3608 84.449 32.9287 84.0193 32.9287 83.4853C32.9289 82.9532 33.3604 82.5215 33.8924 82.5215H36.9848C37.5188 82.5215 37.9483 82.9532 37.9483 83.4853C37.9484 84.0193 37.5186 84.449 36.9848 84.449Z" fill="#FF7E29"/>
<path fill-rule="evenodd" clip-rule="evenodd" d="M29.996 52.3862C28.4962 52.3862 26.8435 51.6555 24.9642 50.1615C24.5469 49.8303 24.4784 49.2239 24.8076 48.8063C25.141 48.3907 25.7454 48.3204 26.1629 48.6517C27.8276 49.9749 29.2229 50.5772 30.3111 50.4406C30.9858 50.3564 31.572 49.9768 32.1042 49.2802C32.1085 49.2721 32.1141 49.264 32.1201 49.258C33.4574 47.6035 36.1137 47.8445 38.4589 48.0594C39.9331 48.1918 41.7678 48.3605 42.2136 47.8506C42.3762 47.6658 42.3922 47.2381 42.2598 46.6498C42.0293 45.6218 41.0791 44.9231 40.1616 44.2485C39.1881 43.5317 38.1818 42.7888 38.0553 41.5901C37.9692 40.789 38.3063 39.9718 39.0873 39.0904C39.0954 39.0803 39.1034 39.0723 39.1114 39.0622C39.7681 38.3776 40.0752 37.6608 40.0532 36.8737C40.0153 35.4601 38.9408 33.7535 36.8607 31.8039C36.4711 31.4405 36.453 30.8302 36.8165 30.4426C37.18 30.0531 37.7903 30.035 38.1778 30.3984C40.6839 32.7455 41.9264 34.8458 41.9806 36.8215C42.017 38.1245 41.5249 39.3232 40.5189 40.3813C40.1476 40.803 39.9487 41.1685 39.9707 41.3873C40.0089 41.7406 40.6976 42.2487 41.304 42.6964C42.3947 43.4975 43.7495 44.4954 44.141 46.2242C44.4204 47.465 44.2596 48.4409 43.6631 49.1215C42.5714 50.3684 40.4889 50.1776 38.2842 49.9788C36.4274 49.8102 34.3228 49.6174 33.6261 50.4607C32.7789 51.567 31.7447 52.2035 30.55 52.3521C30.3674 52.3762 30.1825 52.3862 29.996 52.3862Z" fill="#FF7E29"/>
<path fill-rule="evenodd" clip-rule="evenodd" d="M64.3689 44.0195C63.7441 44.0195 63.1236 43.9171 62.5152 43.7083C61.2142 43.2605 60.7062 42.6722 60.3347 42.2425C59.9335 41.7807 59.6179 41.4133 56.7326 41.5117C56.7047 41.5117 56.6784 41.5117 56.6503 41.5117C54.4599 41.3972 53.5563 40.3993 53.1828 39.5821C52.3958 37.8514 53.3535 35.6528 54.514 34.1731C55.3336 33.1249 55.4658 31.2175 54.9096 28.4989C54.8032 27.9788 55.1384 27.4689 55.6605 27.3625C56.1807 27.256 56.6904 27.5913 56.7969 28.1134C57.484 31.4564 57.2326 33.8277 56.0319 35.3597C55.0445 36.6206 54.5943 38.0302 54.9377 38.7831C55.2049 39.3714 56.0419 39.544 56.7105 39.5842C60.2145 39.4737 60.9973 40.0661 61.7905 40.9817C62.0938 41.331 62.3325 41.6061 63.1437 41.8852C65.3022 42.626 67.8279 41.3029 70.0687 38.251C70.3841 37.8213 70.9863 37.7289 71.416 38.0442C71.8461 38.3594 71.938 38.9618 71.6227 39.3914C69.4083 42.4072 66.8461 44.0195 64.3689 44.0195Z" fill="#FF7E29"/>
<path fill-rule="evenodd" clip-rule="evenodd" d="M55.7337 62.4885C57.9988 62.5969 59.5566 62.2376 60.2452 61.4505C60.7152 60.9143 60.8416 60.1153 60.6328 59.0069C60.1209 56.2983 61.2351 55.1218 62.0504 54.2624C62.5544 53.7283 62.8435 53.4011 62.9197 52.8549C63.3454 49.7749 62.7671 48.8011 62.3836 48.496C61.8076 48.0361 60.7091 48.2912 59.8537 48.6023C57.3343 50.2146 55.302 50.7548 53.6415 50.2528C52.3468 49.8633 51.0614 49.9355 50.5876 50.4234C50.2303 50.7909 50.3506 51.4876 50.5233 52.0216C51.7564 54.9089 51.5112 55.7663 50.9973 56.7421C50.8149 57.0875 50.6719 57.3605 50.7 58.0854C50.7806 60.0289 52.6135 61.6312 55.7337 62.4885ZM56.513 64.4341C56.1976 64.4341 55.8702 64.4261 55.5309 64.408C55.4626 64.404 55.3963 64.394 55.3321 64.3759C51.2824 63.2917 48.8909 61.0289 48.7745 58.1657C48.7245 56.9208 49.0515 56.2964 49.2925 55.8426C49.5296 55.3908 49.7182 55.0334 48.7344 52.7405C48.7245 52.7164 48.7143 52.6903 48.7063 52.6642C48.0781 50.7708 48.63 49.6705 49.2042 49.0802C50.411 47.8394 52.5733 47.9197 54.1956 48.4076C55.2719 48.7308 56.8982 48.2188 58.896 46.9258C58.9543 46.8897 59.0165 46.8575 59.0807 46.8335C61.0225 46.1005 62.5383 46.1527 63.5863 46.9901C64.8534 48.002 65.2589 50.0059 64.8292 53.1199C64.6646 54.3046 63.9899 55.0154 63.4498 55.5875C62.7233 56.3546 62.1969 56.9088 62.5262 58.6495C62.8474 60.3522 62.5684 61.7215 61.6969 62.7194C60.6891 63.8699 58.9883 64.4341 56.513 64.4341Z" fill="#FF7E29"/>
<path fill-rule="evenodd" clip-rule="evenodd" d="M74.5348 57.6325C74.4805 57.6325 74.424 57.6285 74.3678 57.6185C73.844 57.5261 73.4924 57.0281 73.5828 56.5041C73.8178 55.1549 73.9361 53.7755 73.9361 52.4021C73.9361 39.2828 63.2624 28.6072 50.1432 28.6072C37.0221 28.6072 26.3484 39.2829 26.3484 52.4021C26.3488 53.7774 26.4668 55.1568 26.6997 56.5021C26.7901 57.0262 26.4387 57.5261 25.9147 57.6164C25.391 57.7068 24.8907 57.3554 24.8002 56.8314C24.5476 55.3778 24.4209 53.8879 24.4209 52.4021C24.4211 38.2187 35.9598 26.6797 50.1432 26.6797C64.3267 26.6797 75.8637 38.2187 75.8637 52.4021C75.8638 53.8859 75.7351 55.3757 75.4821 56.8334C75.4022 57.3012 74.9942 57.6325 74.5348 57.6325ZM50.1436 78.1245C45.3748 78.1245 40.7185 76.8094 36.6767 74.3216C36.2229 74.0426 36.0823 73.4503 36.3614 72.9965C36.6408 72.5428 37.2348 72.4022 37.6865 72.6813C41.4255 74.9802 45.7319 76.197 50.1432 76.197C54.5528 76.197 58.8593 74.9802 62.5978 72.6792C63.0518 72.4001 63.644 72.5428 63.923 72.9945C64.2025 73.4483 64.0615 74.0426 63.6078 74.3216C59.566 76.8094 54.9099 78.1245 50.1436 78.1245Z" fill="#FF7E29"/>
<path fill-rule="evenodd" clip-rule="evenodd" d="M44.4288 77.4619C43.9811 77.4619 43.5792 77.1487 43.4868 76.6929C42.8025 73.3478 43.0531 70.9786 44.2538 69.4446C45.2397 68.1837 45.6894 66.7762 45.3461 66.0212C45.0794 65.4329 44.2417 65.2603 43.5731 65.2221C40.0715 65.3326 39.2865 64.7403 38.4933 63.8247C38.1904 63.4753 37.9512 63.2003 37.1401 62.9211C36.1602 62.5838 35.1141 62.6621 34.0319 63.1561C33.5481 63.3749 32.9758 63.1621 32.7549 62.6761C32.5361 62.1923 32.7489 61.6201 33.2348 61.4012C34.7588 60.7065 36.3268 60.6021 37.7685 61.098C39.07 61.5458 39.5775 62.1321 39.949 62.5617C40.3507 63.0235 40.6657 63.391 43.551 63.2946C43.5795 63.2926 43.6053 63.2926 43.6334 63.2946C45.8244 63.4091 46.7275 64.405 47.101 65.2221C47.8879 66.9529 46.9303 69.1515 45.7697 70.6333C44.9506 71.6794 44.818 73.5888 45.3742 76.3054C45.481 76.8274 45.1452 77.3354 44.6233 77.4438C44.5594 77.4559 44.4927 77.4619 44.4288 77.4619Z" fill="#FF7E29"/>
</svg>
