<svg width="60" height="60" viewBox="0 0 60 60" fill="none" xmlns="http://www.w3.org/2000/svg">
<g clip-path="url(#clip0_5062_451)">
<path d="M34.6885 49.2188C34.6883 49.4673 34.5894 49.7056 34.4137 49.8814C34.2379 50.0572 33.9996 50.156 33.751 50.1562H2.81258C2.56402 50.156 2.3257 50.0572 2.14993 49.8814C1.97416 49.7056 1.8753 49.4673 1.87506 49.2188V5.15625C1.8753 4.90768 1.97416 4.66936 2.14993 4.4936C2.3257 4.31784 2.56402 4.21899 2.81258 4.21875H33.751C33.9996 4.21899 34.2379 4.31784 34.4137 4.4936C34.5894 4.66936 34.6883 4.90768 34.6886 5.15625V11.2838C35.3236 11.437 35.9495 11.6254 36.5636 11.8481V5.15625C36.5628 4.41057 36.2662 3.69566 35.7389 3.16839C35.2116 2.64112 34.4967 2.34455 33.751 2.34375H2.81258C2.0669 2.34455 1.35199 2.64112 0.824702 3.16839C0.297416 3.69566 0.00082388 4.41057 0 5.15625L0 49.2188C0.00082388 49.9644 0.297416 50.6793 0.824702 51.2066C1.35199 51.7339 2.0669 52.0304 2.81258 52.0312H33.751C34.4967 52.0304 35.2116 51.7339 35.7389 51.2066C36.2662 50.6793 36.5628 49.9644 36.5636 49.2188V45.3393C35.9495 45.562 35.3235 45.7504 34.6886 45.9036L34.6885 49.2188Z" fill="#01AC5D"/>
<path d="M58.8894 51.1685L48.6776 40.957C48.0809 40.3592 47.3017 39.9777 46.4635 39.8731C45.6253 39.7684 44.7762 39.9466 44.0508 40.3794L42.5986 38.9272C45.2823 35.773 46.6313 31.6971 46.3594 27.5647C46.0875 23.4322 44.2161 19.5683 41.1422 16.7928C38.0684 14.0174 34.0341 12.5489 29.8954 12.6989C25.7567 12.849 21.8393 14.6058 18.9746 17.5965C16.1098 20.5872 14.5231 24.5765 14.5511 28.7178C14.5792 32.8592 16.2198 36.8266 19.1249 39.7782C22.0299 42.7299 25.9707 44.4334 30.1111 44.5273C34.2514 44.6213 38.2655 43.0982 41.3014 40.2814L42.7251 41.7051C42.2923 42.4305 42.1141 43.2795 42.2188 44.1177C42.3234 44.9558 42.7049 45.735 43.3027 46.3317L53.5146 56.5432C53.8675 56.8962 54.2864 57.1761 54.7475 57.3671C55.2086 57.5581 55.7029 57.6564 56.2019 57.6564C56.701 57.6564 57.1952 57.5581 57.6564 57.3671C58.1175 57.1762 58.5364 56.8962 58.8894 56.5433C59.2423 56.1904 59.5222 55.7714 59.7132 55.3103C59.9042 54.8492 60.0025 54.355 60.0025 53.8559C60.0025 53.3568 59.9042 52.8626 59.7132 52.4015C59.5223 51.9404 59.2423 51.5214 58.8894 51.1685ZM40.4144 38.5376C38.4478 40.5042 35.9421 41.8436 33.2142 42.3862C30.4864 42.9288 27.6589 42.6503 25.0893 41.5859C22.5197 40.5216 20.3234 38.7191 18.7782 36.4066C17.233 34.094 16.4083 31.3752 16.4083 28.5939C16.4083 25.8126 17.233 23.0937 18.7782 20.7812C20.3234 18.4686 22.5197 16.6662 25.0893 15.6018C27.6589 14.5375 30.4864 14.259 33.2142 14.8016C35.9421 15.3442 38.4478 16.6835 40.4144 18.6502C41.7255 19.9531 42.7659 21.5024 43.4758 23.2089C44.1858 24.9155 44.5513 26.7455 44.5513 28.5939C44.5513 30.4422 44.1858 32.2723 43.4758 33.9788C42.7659 35.6853 41.7255 37.2346 40.4144 38.5376Z" fill="#01AC5D"/>
<path d="M36.4879 40.6012C36.1271 40.8169 36.6715 40.5552 36.4879 40.6012V40.6012Z" fill="#01AC5D"/>
<path d="M17.9059 23.936L17.6953 23.9842C17.7671 23.976 17.8378 23.9599 17.9059 23.936Z" fill="#01AC5D"/>
<path d="M18.7383 25.3125H36.5645V23.4375H19.427C19.1463 24.0425 18.9159 24.6696 18.7383 25.3125Z" fill="#01AC5D"/>
<path d="M21.8517 19.9759C21.3628 20.466 20.9165 20.9968 20.5176 21.5625H36.5637V19.6875H22.1545C22.0528 19.7826 21.9506 19.877 21.8517 19.9759Z" fill="#01AC5D"/>
<path d="M21.2714 36.5842C21.3363 36.57 21.4025 36.5627 21.4689 36.5625H36.5638V34.6875H19.916C20.3058 35.3618 20.7597 35.997 21.2714 36.5842Z" fill="#01AC5D"/>
<path d="M30.4691 40.7812C32.6088 40.7855 34.7114 40.223 36.5631 39.1509V38.4375H23.2812C25.3652 39.9667 27.8843 40.7881 30.4691 40.7812Z" fill="#01AC5D"/>
<path d="M18.2997 29.0625H36.5646V27.1875H18.3726C18.3005 27.8097 18.2762 28.4366 18.2997 29.0625Z" fill="#01AC5D"/>
<path d="M30.4691 16.4063C28.4847 16.4021 26.5297 16.885 24.7754 17.8125H36.1452C34.3964 16.8873 32.4476 16.4045 30.4691 16.4063Z" fill="#01AC5D"/>
<path d="M19.0395 32.8125H36.5637V30.9375H18.5137C18.6387 31.5755 18.8145 32.2025 19.0395 32.8125Z" fill="#01AC5D"/>
</g>
<defs>
<clipPath id="clip0_5062_451">
<rect width="60" height="60" fill="white"/>
</clipPath>
</defs>
</svg>
