<svg width="40" height="40" viewBox="0 0 40 40" fill="none" xmlns="http://www.w3.org/2000/svg">
<rect opacity="0.1" width="40" height="40" rx="20" fill="#67CD9E"/>
<path d="M31 13.7778V19.9998C31 20.2061 30.9172 20.4039 30.7699 20.5497C30.6225 20.6956 30.4227 20.7775 30.2143 20.7775C30.0059 20.7775 29.8061 20.6956 29.6587 20.5497C29.5114 20.4039 29.4286 20.2061 29.4286 19.9998V15.6551L21.3418 23.6611C21.2688 23.7334 21.1822 23.7907 21.0868 23.8299C20.9914 23.869 20.8892 23.8892 20.7859 23.8892C20.6827 23.8892 20.5804 23.869 20.485 23.8299C20.3897 23.7907 20.303 23.7334 20.23 23.6611L16.8574 20.3216L10.342 26.7721C10.1946 26.918 9.99463 27 9.78614 27C9.57764 27 9.37768 26.918 9.23025 26.7721C9.08282 26.6261 9 26.4282 9 26.2218C9 26.0154 9.08282 25.8175 9.23025 25.6716L16.3015 18.6718C16.3745 18.5995 16.4612 18.5421 16.5565 18.503C16.6519 18.4638 16.7542 18.4437 16.8574 18.4437C16.9607 18.4437 17.0629 18.4638 17.1583 18.503C17.2537 18.5421 17.3403 18.5995 17.4133 18.6718L20.7859 22.0112L28.3178 14.5555H23.9287C23.7203 14.5555 23.5205 14.4736 23.3731 14.3277C23.2258 14.1819 23.143 13.984 23.143 13.7778C23.143 13.5715 23.2258 13.3737 23.3731 13.2278C23.5205 13.0819 23.7203 13 23.9287 13H30.2143C30.4227 13 30.6225 13.0819 30.7699 13.2278C30.9172 13.3737 31 13.5715 31 13.7778Z" fill="#01AC5D"/>
</svg>
