<svg width="33" height="40" viewBox="0 0 33 40" fill="none" xmlns="http://www.w3.org/2000/svg">
<path opacity="0.5" d="M32.3679 21.1341C32.6315 20.5886 32.0103 20.1266 31.5337 20.184C27.1552 20.7502 22.8159 19.9521 18.8612 22.3742C15.9456 24.1644 13.6851 27.0235 12.9538 30.3958C12.9383 30.4577 12.9392 30.5088 12.9475 30.5643C11.2096 31.9549 9.53733 33.4241 7.9275 34.9599C8.6168 33.0617 9.07908 31.1026 9.31952 29.1261C9.3521 29.1045 9.39224 29.0873 9.42164 29.0537C18.5695 19.4306 10.2866 9.0728 3.81741 0.800872C3.37101 0.227806 2.3596 0.723957 2.54769 1.43055C4.24131 7.84096 -0.0623162 13.5841 0.687532 19.9528C1.21514 24.4307 4.33863 27.6212 7.66576 30.3529C7.161 33.0164 6.20939 35.633 4.76357 38.1449C4.34424 38.8735 5.27669 39.8806 5.94372 39.1947C8.76753 36.2678 11.7673 33.6658 14.9015 31.233C18.3198 31.7395 22.207 32.4473 25.4507 31.0501C29.3129 29.3843 30.7104 24.6268 32.3874 21.1353L32.3679 21.1341ZM9.47672 26.9088C9.61509 22.605 8.63957 18.2923 6.41722 14.3593C6.15535 13.9035 5.47816 14.2393 5.6836 14.7231C7.74907 19.5066 8.52745 24.4946 7.81579 29.3566C6.12831 27.5769 4.3295 25.763 3.21023 23.5741C1.41869 20.0837 2.08705 16.5229 2.96569 12.9121C3.71505 9.82368 4.54128 6.95199 4.39186 3.91882C9.8175 10.8862 15.2668 18.7583 9.47353 26.8968L9.47672 26.9088ZM23.4044 30.0341C21.2262 30.4907 18.9012 30.2039 16.649 29.8783C18.381 28.5856 20.1659 27.3235 21.9842 26.091C22.6447 25.6442 21.901 24.5543 21.2171 24.9368C18.7854 26.2891 16.4588 27.8442 14.2377 29.5313C15.6848 26.5443 17.8406 24.0598 21.0233 22.7689C24.0139 21.5488 27.3117 21.9144 30.4899 21.7347C28.9302 25.1626 27.3879 29.2082 23.4076 30.0461L23.4044 30.0341Z" fill="#01AC5D"/>
</svg>
