<svg width="24" height="25" viewBox="0 0 24 25" fill="none" xmlns="http://www.w3.org/2000/svg">
<g clip-path="url(#clip0_1304_66874)">
<path d="M1.44922 15.7023C1.44922 18.0432 3.35364 19.9476 5.69451 19.9476C8.03532 19.9476 9.93974 18.0432 9.93974 15.7023C9.93974 13.3614 8.03532 11.457 5.69451 11.457C3.35364 11.457 1.44922 13.3614 1.44922 15.7023ZM9.23864 15.7023C9.23864 17.6566 7.64876 19.2464 5.69455 19.2464C3.74035 19.2464 2.15037 17.6566 2.15037 15.7023C2.15037 13.7481 3.7403 12.1582 5.69451 12.1582C7.64871 12.1582 9.23864 13.748 9.23864 15.7023Z" fill="#FDB60D"/>
<path d="M23.194 12.7849C23.1932 12.783 23.1926 12.7811 23.1917 12.7793L20.3481 6.88396C19.9552 6.06936 19.3026 5.42318 18.5196 5.02521L18.2512 4.46868C17.8042 3.54199 16.8505 2.94326 15.8217 2.94326C14.3344 2.94326 13.1244 4.15326 13.1244 5.64059V6.67628C12.8881 7.10001 12.7253 7.57002 12.6534 8.0691H11.3467C11.2748 7.57002 11.112 7.09996 10.8757 6.67619V5.64059C10.8757 4.1533 9.66566 2.94326 8.17837 2.94326C7.14955 2.94326 6.19594 3.54204 5.74888 4.46873L5.48048 5.02521C4.69744 5.42323 4.04485 6.06941 3.65197 6.88396L3.15944 7.90503C3.0753 8.07938 3.1485 8.28898 3.32285 8.37312C3.49725 8.45716 3.7068 8.3841 3.79094 8.20965L4.28348 7.18854C4.84178 6.03099 6.03304 5.28305 7.3182 5.28305C9.17606 5.28305 10.6876 6.7945 10.6876 8.65236V12.9651C10.3575 12.3634 9.9177 11.8192 9.38127 11.363C9.23379 11.2376 9.01251 11.2555 8.88714 11.4029C8.76168 11.5504 8.77959 11.7717 8.92706 11.8971C10.0459 12.8486 10.6876 14.2355 10.6876 15.7023C10.6876 18.4555 8.44761 20.6954 5.69438 20.6954C2.94114 20.6954 0.701152 18.4555 0.701152 15.7023C0.701152 12.9491 2.9411 10.7091 5.69433 10.7091C6.41002 10.7091 7.1008 10.8572 7.74754 11.1494C7.92381 11.229 8.13163 11.1507 8.21137 10.9742C8.29107 10.7977 8.21264 10.5901 8.03623 10.5104C7.29815 10.177 6.51024 10.008 5.69433 10.008C4.47826 10.008 3.35015 10.3914 2.42407 11.0433L3.14022 9.55858C3.22436 9.38418 3.15116 9.17463 2.97681 9.09049C2.8025 9.00654 2.59286 9.07955 2.50872 9.25395L0.808288 12.7793C0.807399 12.7811 0.806792 12.783 0.80595 12.7849C0.29453 13.6387 0 14.6366 0 15.7023C0 18.8422 2.55444 21.3966 5.69433 21.3966C8.79464 21.3966 11.3239 18.9061 11.3872 15.8207H12.6129C12.6762 18.9061 15.2054 21.3966 18.3057 21.3966C21.4456 21.3966 24 18.8422 24 15.7023C24 14.6366 23.7055 13.6387 23.194 12.7849ZM19.7166 7.18854L21.5759 11.0432C20.6498 10.3913 19.5217 10.0079 18.3057 10.0079C16.1564 10.0079 14.2817 11.205 13.3125 12.9672V8.65236C13.3125 6.7945 14.824 5.28305 16.6818 5.28305C17.967 5.28305 19.1582 6.03103 19.7166 7.18854ZM12.6114 15.1195H11.3887V8.7702H12.6114V15.1195ZM15.8217 3.64441C16.5486 3.64441 17.2239 4.04888 17.5716 4.68225C17.2825 4.61667 16.9844 4.58194 16.6818 4.58194C15.57 4.58194 14.5609 5.03026 13.8255 5.75539V5.64059C13.8255 4.53987 14.721 3.64441 15.8217 3.64441ZM7.3182 4.58189C7.01568 4.58189 6.71759 4.61662 6.42848 4.68221C6.77616 4.04883 7.45147 3.64436 8.17837 3.64436C9.27904 3.64436 10.1745 4.53983 10.1745 5.64054V5.75534C9.43914 5.03021 8.43009 4.58189 7.3182 4.58189ZM18.3057 20.6955C15.5524 20.6955 13.3125 18.4555 13.3125 15.7023C13.3125 12.9491 15.5524 10.7091 18.3057 10.7091C21.0589 10.7091 23.2988 12.9491 23.2988 15.7023C23.2988 18.4555 21.0589 20.6955 18.3057 20.6955Z" fill="#FDB60D"/>
<path d="M19.8985 11.768C19.7191 11.6951 19.5146 11.7816 19.4418 11.9609C19.3689 12.1403 19.4553 12.3448 19.6347 12.4176C20.9804 12.9643 21.85 14.2536 21.85 15.7023C21.85 17.6565 20.26 19.2464 18.3058 19.2464C16.3516 19.2464 14.7617 17.6565 14.7617 15.7023C14.7617 13.7519 16.3485 12.1621 18.2989 12.1583C18.4925 12.1579 18.6491 12.0006 18.6487 11.807C18.6484 11.6137 18.4915 11.4572 18.2982 11.4572C18.2979 11.4572 18.2977 11.4572 18.2975 11.4572C15.9613 11.4617 14.0605 13.3661 14.0605 15.7023C14.0605 18.0431 15.965 19.9475 18.3058 19.9475C20.6466 19.9475 22.5511 18.0431 22.5511 15.7023C22.5511 13.9669 21.51 12.4226 19.8985 11.768Z" fill="#FDB60D"/>
</g>
<defs>
<clipPath id="clip0_1304_66874">
<rect width="24" height="24" fill="white" transform="translate(0 0.169922)"/>
</clipPath>
</defs>
</svg>
